<svg id="Layer_1" data-name="Layer 1" xmlns="http://www.w3.org/2000/svg" viewBox="0 0 662 703.18"><defs><style>.cls-1{fill:#8c6239;}.cls-2{fill:#e6e6e6;}.cls-3{fill:none;stroke:#ed1c24;stroke-miterlimit:10;stroke-width:16px;}</style></defs><rect class="cls-1" x="314" width="35" height="700" rx="17.5"/><rect class="cls-1" x="488" y="253" width="35" height="465" rx="17.5" transform="translate(-59.39 31.9) rotate(-5)"/><rect class="cls-1" x="-37" y="468" width="465" height="35" rx="17.5" transform="translate(-324.19 623.94) rotate(-85)"/><rect class="cls-1" x="168" y="580" width="318" height="16"/><rect class="cls-2" y="73" width="662" height="436" rx="7.82"/><path class="cls-3" d="M83,413c8.26-39,16.4-42.86,20-43,12.94-.51,24.49,44.59,29,64,4.61,17.81,9,21.76,12.29,21.95C151,456.33,168.13,443.07,190,332c11.49-58.37,20.15-77,26.13-76.71,9.24.44,12.08,48.08,34.87,138.71,12.46,49.53,16.83,56.05,21.43,56.31,12.38.7,35-41.08,60.92-168.13C386,24,414,345,422,416c2.94,26.09,11.69,47.46,24.36,49,27.53,3.26,63.19-126.67,90.64-246" transform="translate(-19 -14)"/><path class="cls-2" d="M124,425" transform="translate(-19 -14)"/></svg>