<?xml version="1.0" encoding="utf-8"?>
<!-- Generator: Adobe Illustrator 25.4.1, SVG Export Plug-In . SVG Version: 6.00 Build 0)  -->
<svg version="1.1" id="Layer_1" xmlns="http://www.w3.org/2000/svg" xmlns:xlink="http://www.w3.org/1999/xlink" x="0px" y="0px"
	 viewBox="0 0 6401 5128.6" style="enable-background:new 0 0 6401 5128.6;" xml:space="preserve">
<style type="text/css">
	.st0{fill:url(#SVGID_1_);stroke:#231815;stroke-miterlimit:10;}
	.st1{fill:#7DC273;stroke:#231815;stroke-miterlimit:10;}
	.st2{fill:#FFFFFF;stroke:#231815;stroke-miterlimit:10;}
	.st3{fill:#231815;stroke:#231815;stroke-miterlimit:10;}
	.st4{fill:none;stroke:#231815;stroke-width:14;stroke-miterlimit:10;}
	.st5{fill:none;stroke:#231815;stroke-width:10;stroke-miterlimit:10;}
</style>
<linearGradient id="SVGID_1_" gradientUnits="userSpaceOnUse" x1="1569.889" y1="1731.7406" x2="4663.959" y2="1731.7406" gradientTransform="matrix(1 0 0 -1 0.5 5128.5)">
	<stop  offset="0" style="stop-color:#83CEE6"/>
	<stop  offset="0.29" style="stop-color:#94BFDE"/>
	<stop  offset="0.71" style="stop-color:#A6AFD6"/>
	<stop  offset="1" style="stop-color:#ADA9D3"/>
</linearGradient>
<path class="st0" d="M4645.5,3432.5c15,91.9,101.3,681.5-277.3,1086.4c-334.9,358.2-827.4,351.4-1254.5,345.5
	c-423.7-5.9-929.9-12.9-1263.6-390.9c-331.1-374.9-283.5-878.2-268.2-1040.9c51.9-549.8,401.7-1269.7,1068.2-1459.1
	C3556.9,1715.7,4508.9,2593.7,4645.5,3432.5z"/>
<path class="st1" d="M2828.1,1027.9c261,303.4,298.8,798,145.9,899.8c-195.3,130-589.4-456.2-1555-781.6
	c-540.8-182.2-835.5-139.3-836.4-200C580.6,802.5,2227.4,329.7,2828.1,1027.9z"/>
<path class="st2" d="M3537.1,1600.7"/>
<path class="st1" d="M4782.6,1909.8c702.2,206.6,858.2,363.4,1000,272.7c207.5-132.8,199.4-677.4-36.4-1036.4
	c-357.6-544.5-1237.1-658.4-1854.6-390.9C3220.4,1046,2855.3,1789,2974,1927.7c93.6,109.4,438.8-215.5,1081.4-181.6
	C4264,1757.2,4436.9,1808,4782.6,1909.8z"/>
<path class="st2" d="M3446.2,1655.2"/>
<path class="st2" d="M5009.9,2818.9"/>
<ellipse class="st3" cx="2473.5" cy="3264.3" rx="254.6" ry="218.2"/>
<ellipse class="st3" cx="3700.8" cy="3264.3" rx="254.6" ry="218.2"/>
<circle class="st2" cx="2571.2" cy="3339.3" r="75"/>
<circle class="st2" cx="3775.8" cy="3339.3" r="75"/>
<path class="st4" d="M2796.8,3791.1c84.3-112.1,240.2-166.7,390.2-137.9c184.6,35.4,266.2,178.9,273.9,192.9"/>
<path class="st4" d="M3002.7,1900.8c61.6-104.8,296.5-475.7,779.9-645.5c404.5-142.2,753.7-63,881.8-27.3"/>
<path class="st4" d="M2899.7,1910.8c-33.3-96.9-109.9-277.9-280.8-446.4c-180.2-177.8-373.9-251.6-472.7-281.8"/>
<path class="st5" d="M2010.6,3065c110.1-153,277.3-251.1,426.8-245.9c46.7,1.5,92.5,13.7,133.8,35.5"/>
<path class="st5" d="M3502.2,2859.3c42.6-22.9,89.7-36.4,138-39.7c226.3-15,399.5,199.3,409.1,211.5"/>
</svg>
