<svg xmlns="http://www.w3.org/2000/svg" xmlns:xlink="http://www.w3.org/1999/xlink" viewBox="20 20 6365 5100"><defs><style>.cls-1{fill:url(#linear-gradient);}.cls-2{fill:#7dc273;}.cls-3{fill:#231815;}.cls-3,.cls-4,.cls-5,.cls-6,.cls-8,.cls-9{stroke:#231815;stroke-miterlimit:10;}.cls-4{fill:#fff;}.cls-5,.cls-6,.cls-9{fill:none;}.cls-5{stroke-width:14px;}.cls-6{stroke-width:10px;}.cls-7{fill:#3e3a39;}.cls-8{fill:#e4007f;}</style><linearGradient id="linear-gradient" x1="1577.66" y1="3405.72" x2="4671.69" y2="3405.72" gradientUnits="userSpaceOnUse"><stop offset="0" stop-color="#9090c6"/><stop offset="0.19" stop-color="#9492c6"/><stop offset="0.39" stop-color="#a199c7"/><stop offset="0.6" stop-color="#b7a3c9"/><stop offset="0.81" stop-color="#d4b2cb"/><stop offset="1" stop-color="#f5c2cd"/></linearGradient></defs><g id="Layer_2" data-name="Layer 2"><g id="Layer_1-2" data-name="Layer 1"><path class="cls-1" d="M4652.75,3441.46c15,91.95,101.25,681.5-277.27,1086.37-334.86,358.16-827.39,351.35-1254.55,345.45-423.68-5.85-929.86-12.85-1263.64-390.91-331-374.93-283.53-878.16-268.18-1040.91C1641,2891.63,1990.79,2171.8,2657.29,1982.37,3564.17,1724.64,4516.16,2602.67,4652.75,3441.46Z"/><path class="cls-2" d="M2835.33,1036.92c261,303.41,298.8,798,145.92,899.75-195.33,130-589.44-456.23-1555-781.57-540.78-182.21-835.51-139.29-836.36-200C587.85,811.45,2234.64,338.66,2835.33,1036.92Z"/><path class="cls-2" d="M4789.88,1918.74c702.21,206.65,858.24,363.44,1000,272.72,207.47-132.78,199.42-677.42-36.37-1036.36C5395.87,610.64,4516.43,496.74,3899,764.19,3227.66,1055,2862.56,1798,2981.25,1936.67,3074.9,2046.11,3420,1721.13,4062.6,1755.1,4271.32,1766.13,4444.17,1817,4789.88,1918.74Z"/><ellipse class="cls-3" cx="2501.25" cy="3273.28" rx="266.5" ry="218.18" transform="translate(-1276.83 4915.46) rotate(-76.11)"/><circle class="cls-4" cx="2605.25" cy="3273.28" r="75"/><path class="cls-5" d="M3010,1909.71c61.58-104.8,296.53-475.64,779.91-645.52,404.49-142.15,753.72-63,881.81-27.27"/><path class="cls-5" d="M2907,1919.73c-33.29-96.87-109.87-277.87-280.75-446.45-180.24-177.82-373.94-251.57-472.73-281.82"/><ellipse class="cls-3" cx="3575.97" cy="3273.28" rx="218.18" ry="266.5" transform="translate(-535.55 704.76) rotate(-10.48)"/><circle class="cls-4" cx="3453.51" cy="3273.28" r="75"/><path class="cls-6" d="M3744.41,2650.8c-44.5-12.46-213.09-106.53-231.11,2.22-41.05,247.65-219.05,327.66-253.31,315.83"/><path class="cls-6" d="M2348.58,2785.56c.3-35.94,5.6-105.32,46.11-157.92,84.49-109.69,244-45,259.23-38.49"/><path class="cls-7" d="M3135.06,3891c-41,85.71-38.41,114-63.87,123.69-50.67,19.34-153.89-57-150.4-122.73,5.27-99.16,252.95-165.54,277.9-128.23C3208.13,3777.85,3179.63,3797.73,3135.06,3891Z"/><ellipse class="cls-8" cx="2207.78" cy="3668.28" rx="236.36" ry="122.73"/><ellipse class="cls-8" cx="3980.77" cy="3668.28" rx="236.36" ry="122.73"/><rect class="cls-9" x="0.5" y="0.5" width="6400" height="5127.63"/></g></g></svg>