<svg id="Layer_1" data-name="Layer 1" xmlns="http://www.w3.org/2000/svg" xmlns:xlink="http://www.w3.org/1999/xlink" viewBox="0 0 6401 5128.63"><defs><style>.cls-1,.cls-2,.cls-3,.cls-4,.cls-5,.cls-6,.cls-7,.cls-8,.cls-9{stroke:#231815;stroke-miterlimit:10;}.cls-1{fill:url(#linear-gradient);}.cls-2{fill:#7dc273;}.cls-3{fill:#fff;}.cls-4{fill:#231815;}.cls-5,.cls-8,.cls-9{fill:none;}.cls-5{stroke-width:14px;}.cls-6{fill:#e4007f;}.cls-7{fill:#898989;}.cls-7,.cls-9{stroke-width:10px;}</style><linearGradient id="linear-gradient" x1="1569.88" y1="3396.26" x2="4663.91" y2="3396.26" gradientUnits="userSpaceOnUse"><stop offset="0" stop-color="#b0d79f"/><stop offset="0.25" stop-color="#acd6a2"/><stop offset="0.49" stop-color="#a0d3aa"/><stop offset="0.73" stop-color="#8dceb7"/><stop offset="0.97" stop-color="#72c6ca"/><stop offset="1" stop-color="#6dc5cd"/></linearGradient></defs><path class="cls-1" d="M4645,3432c15,91.94,101.26,681.5-277.27,1086.36-334.86,358.17-827.38,351.36-1254.54,345.46-423.68-5.86-929.86-12.85-1263.64-390.91C1518.49,4098,1566,3594.75,1581.33,3432c51.88-549.83,401.67-1269.67,1068.18-1459.09C3556.38,1715.17,4508.37,2593.21,4645,3432Z" transform="translate(0.5 0.5)"/><path class="cls-2" d="M2827.55,1027.45c261,303.41,298.79,798,145.91,899.76-195.33,130-589.44-456.24-1555-781.57-540.78-182.21-835.5-139.29-836.36-200C580.07,802,2226.85,329.2,2827.55,1027.45Z" transform="translate(0.5 0.5)"/><path class="cls-3" d="M3536.64,1600.18" transform="translate(0.5 0.5)"/><path class="cls-2" d="M4782.09,1909.27c702.21,206.65,858.25,363.45,1000,272.73,207.47-132.78,199.42-677.42-36.36-1036.36C5388.08,601.18,4508.64,487.28,3891.18,754.73c-671.3,290.77-1036.4,1033.78-917.72,1172.48,93.65,109.44,438.75-215.54,1081.36-181.57C4263.53,1756.67,4436.39,1807.54,4782.09,1909.27Z" transform="translate(0.5 0.5)"/><path class="cls-3" d="M3445.73,1654.73" transform="translate(0.5 0.5)"/><path class="cls-3" d="M5009.36,2818.36" transform="translate(0.5 0.5)"/><ellipse class="cls-4" cx="2493.47" cy="3263.82" rx="266.5" ry="218.18" transform="translate(-1273.06 4901.21) rotate(-76.11)"/><circle class="cls-3" cx="2597.97" cy="3264.32" r="75"/><path class="cls-5" d="M3002.18,1900.25c61.58-104.81,296.53-475.65,779.91-645.52,404.49-142.16,753.73-63,881.82-27.28" transform="translate(0.5 0.5)"/><path class="cls-5" d="M2899.21,1910.27c-33.3-96.87-109.88-277.87-280.76-446.45C2438.21,1286,2244.51,1212.25,2145.73,1182" transform="translate(0.5 0.5)"/><ellipse class="cls-4" cx="3568.18" cy="3263.82" rx="218.18" ry="266.5" transform="translate(-533.46 703.68) rotate(-10.48)"/><circle class="cls-3" cx="3446.23" cy="3264.32" r="75"/><ellipse class="cls-6" cx="2200.5" cy="3659.32" rx="236.36" ry="122.73"/><ellipse class="cls-6" cx="3973.49" cy="3659.32" rx="236.36" ry="122.73"/><path class="cls-7" d="M2836.13,3735.63c9.68,131.53,124.16,228.25,245.69,218.64,109.15-8.63,201-101.24,208.86-218.64Z" transform="translate(0.5 0.5)"/><rect class="cls-8" x="0.5" y="0.5" width="6400" height="5127.63"/><line class="cls-8" x1="2146.23" y1="2945.3" x2="2522.97" y2="2728.32"/><path class="cls-9" d="M3402.05,2825.46c96.16-117.3,241.07-158.07,347.16-108.49,75.67,35.36,110,106.59,121.86,135.28" transform="translate(0.5 0.5)"/><path class="cls-9" d="M2145.73,2852.25c2.57-13.7,28-138.07,138.88-189.53,105.33-48.89,243.51-11.41,325.46,97.65" transform="translate(0.5 0.5)"/></svg>