<svg xmlns="http://www.w3.org/2000/svg" xmlns:xlink="http://www.w3.org/1999/xlink" viewBox="20 20 6365 5100"><defs><style>.cls-1{fill:url(#linear-gradient);}.cls-2{fill:#7dc273;}.cls-3{fill:#231815;}.cls-3,.cls-4,.cls-5,.cls-6,.cls-7{stroke:#231815;stroke-miterlimit:10;}.cls-4{fill:#fff;}.cls-5,.cls-6,.cls-7{fill:none;}.cls-5{stroke-width:14px;}.cls-6{stroke-width:10px;}</style><linearGradient id="linear-gradient" x1="1570.38" y1="3227.58" x2="4827.77" y2="3227.58" gradientUnits="userSpaceOnUse"><stop offset="0" stop-color="#ec779a"/><stop offset="0.36" stop-color="#ec7998"/><stop offset="0.54" stop-color="#ed8192"/><stop offset="0.68" stop-color="#ed8e87"/><stop offset="0.8" stop-color="#efa177"/><stop offset="0.9" stop-color="#f0b963"/><stop offset="0.99" stop-color="#f2d64b"/><stop offset="1" stop-color="#f2d849"/></linearGradient></defs><g id="Layer_2" data-name="Layer 2"><g id="Layer_1-2" data-name="Layer 1"><path class="cls-1" d="M4807.83,3259.2c15.76,81.36,106.6,603-291.91,961.26-352.55,316.92-871.07,310.9-1320.79,305.67-446.05-5.18-979-11.36-1330.36-345.89-348.49-331.76-298.5-777-282.34-921,54.62-486.51,422.89-1123.45,1124.58-1291.06C3661.77,1740.08,4664,2517,4807.83,3259.2Z"/><path class="cls-2" d="M2809,1169.34c282.08,256.69,322.91,675.15,157.69,761.22-211.09,110-637-386-1680.51-661.23-584.43-154.16-902.95-117.84-903.87-169.21C380.13,978.59,2159.83,578.6,2809,1169.34Z"/><path class="cls-2" d="M4853.2,1954.5c729.3,175.74,891.35,309.09,1038.57,231.94,215.48-112.92,207.11-576.09-37.76-881.35-371.44-463-1284.8-559.87-1926.08-332.43-697.19,247.27-1076.38,879.14-953.11,997.1,97.26,93.07,455.66-183.3,1123.06-154.42C4314.65,1824.73,4494.17,1868,4853.2,1954.5Z"/><ellipse class="cls-3" cx="2493.97" cy="3264.32" rx="218.18" ry="266.5"/><circle class="cls-4" cx="2597.97" cy="3264.32" r="75"/><path class="cls-5" d="M2869.21,3760.43a1108,1108,0,0,1,178.19-86.14c95.71-36,122.16-30.5,138.46-23.36,59.34,26,70.87,111.74,72.73,127.28"/><path class="cls-5" d="M3002.68,1900.75c67.64-69.52,325.68-315.49,856.58-428.16,444.26-94.29,827.83-41.81,968.51-18.09"/><path class="cls-5" d="M2899.71,1910.77c-44.56-96.87-147-277.87-375.7-446.45-241.2-177.82-500.41-251.57-632.6-281.82"/><path class="cls-6" d="M2236.86,2800.23c50.6-16.38,153.6-41.33,272.73-9.09,248.44,67.23,337.35,321,345.46,345.45"/><ellipse class="cls-3" cx="3568.68" cy="3264.32" rx="218.18" ry="266.5"/><circle class="cls-4" cx="3643.68" cy="3264.32" r="75"/><path class="cls-6" d="M3824.7,2734.66c-49.73-7.79-150.43-15.88-263.23,31.39-235.24,98.56-305.56,346.74-311.89,370.54"/><path class="cls-6" d="M2236.86,2800.23c50.6-16.38,153.6-41.33,272.73-9.09,248.44,67.23,337.35,321,345.46,345.45"/><path class="cls-6" d="M2236.86,2800.23c50.6-16.38,153.6-41.33,272.73-9.09,248.44,67.23,337.35,321,345.46,345.45"/><rect class="cls-7" x="0.5" y="0.5" width="6400" height="5127.63"/></g></g></svg>