<?xml version="1.0" encoding="utf-8"?>
<!-- Generator: Adobe Illustrator 25.4.1, SVG Export Plug-In . SVG Version: 6.00 Build 0)  -->
<svg version="1.1" id="Layer_1" xmlns="http://www.w3.org/2000/svg" xmlns:xlink="http://www.w3.org/1999/xlink" x="0px" y="0px"
	 viewBox="0 0 6401 5128.6" style="enable-background:new 0 0 6401 5128.6;" xml:space="preserve">
<style type="text/css">
	.st0{fill:url(#SVGID_1_);stroke:#231815;stroke-miterlimit:10;}
	.st1{fill:#7DC273;stroke:#231815;stroke-miterlimit:10;}
	.st2{fill:#FFFFFF;stroke:#231815;stroke-miterlimit:10;}
	.st3{fill:#231815;stroke:#231815;stroke-miterlimit:10;}
	.st4{fill:none;stroke:#231815;stroke-width:14;stroke-miterlimit:10;}
	.st5{fill:none;stroke:#231815;stroke-width:10;stroke-miterlimit:10;}
	.st6{fill:url(#SVGID_00000036246737945983302980000016602925593879638667_);stroke:#231815;stroke-miterlimit:10;}
</style>
<linearGradient id="SVGID_1_" gradientUnits="userSpaceOnUse" x1="1569.8406" y1="1878.1862" x2="4730.8379" y2="1878.1862" gradientTransform="matrix(1 0 0 -1 0.5 5128.5)">
	<stop  offset="0" style="stop-color:#83CEE6"/>
	<stop  offset="0.29" style="stop-color:#94BFDE"/>
	<stop  offset="0.71" style="stop-color:#A6AFD6"/>
	<stop  offset="1" style="stop-color:#ADA9D3"/>
</linearGradient>
<path class="st0" d="M4712,3282.5c15.3,82.8,103.5,613.6-283.3,978.1c-342.1,322.5-845.3,316.3-1281.7,311
	c-432.8-5.3-950-11.6-1291-351.9c-338.2-337.6-289.7-790.6-274-937.1c53-495,410.4-1143.1,1091.3-1313.6
	C3599.9,1736.8,4572.4,2527.3,4712,3282.5z"/>
<path class="st1" d="M2816.3,1169.2c274,256.7,313.6,675.2,153.2,761.3c-205,110-618.7-386-1632.2-661.3
	c-567.6-154.2-963.2-33.6-964-85C371.1,1062.7,2185.8,578.4,2816.3,1169.2z"/>
<path class="st2" d="M3537.1,1600.7"/>
<path class="st1" d="M4782.6,1959.6c702.2,172.2,858.2,302.8,1000,227.3c207.5-110.6,199.4-564.5-36.4-863.6
	c-357.6-453.7-1237.1-548.6-1854.6-325.7c-671.3,242.3-1036.4,861.4-917.7,977c93.6,91.2,438.8-179.6,1081.4-151.3
	C4264,1832.5,4436.9,1874.8,4782.6,1959.6z"/>
<path class="st2" d="M3446.2,1655.2"/>
<path class="st2" d="M5009.9,2818.9"/>
<ellipse class="st3" cx="2473.5" cy="3264.3" rx="254.6" ry="218.2"/>
<ellipse class="st3" cx="3700.8" cy="3264.3" rx="254.6" ry="218.2"/>
<circle class="st2" cx="2571.2" cy="3339.3" r="75"/>
<circle class="st2" cx="3775.8" cy="3339.3" r="75"/>
<path class="st4" d="M2801.1,3762c72.9-94.9,208.2-140.6,338.7-115.8c160.6,30.6,232,152.6,238.6,164.5"/>
<path class="st4" d="M3002.7,1900.8c67.8-78.7,326.4-357.1,858.5-484.7c445.3-106.7,829.7-47.3,970.7-20.5"/>
<path class="st4" d="M2899.7,1910.8c-33.3-96.9-109.9-277.9-280.8-446.4c-180.2-177.8-373.9-251.6-472.7-281.8"/>
<path class="st5" d="M2027.8,3036.6c110.1-153,277.3-251.1,426.8-245.9c46.7,1.5,92.5,13.7,133.8,35.5"/>
<linearGradient id="SVGID_00000036214472001523477160000017986053944803981231_" gradientUnits="userSpaceOnUse" x1="2190.9099" y1="2373.73" x2="2190.9099" y2="2373.73" gradientTransform="matrix(1 0 0 -1 0.5 5128.5)">
	<stop  offset="0" style="stop-color:#83CEE6"/>
	<stop  offset="0.29" style="stop-color:#94BFDE"/>
	<stop  offset="0.71" style="stop-color:#A6AFD6"/>
	<stop  offset="1" style="stop-color:#ADA9D3"/>
</linearGradient>
<path style="fill:url(#SVGID_00000036214472001523477160000017986053944803981231_);stroke:#231815;stroke-miterlimit:10;" d="
	M2191.4,2754.8"/>
<path class="st5" d="M3531.5,2857.1c42.6-22.9,89.7-36.4,138-39.7c226.3-15,399.6,199.3,409.1,211.5"/>
</svg>
