<svg id="Layer_1" data-name="Layer 1" xmlns="http://www.w3.org/2000/svg" xmlns:xlink="http://www.w3.org/1999/xlink" viewBox="0 0 6401 5128.63"><defs><style>.cls-1,.cls-2,.cls-3,.cls-4,.cls-5,.cls-6,.cls-8,.cls-9{stroke:#231815;stroke-miterlimit:10;}.cls-1{fill:url(#linear-gradient);}.cls-2{fill:#7dc273;}.cls-3{fill:#fff;}.cls-4{fill:#231815;}.cls-5,.cls-6,.cls-9{fill:none;}.cls-5{stroke-width:14px;}.cls-6{stroke-width:10px;}.cls-7{fill:#3e3a39;}.cls-8{fill:#e4007f;}</style><linearGradient id="linear-gradient" x1="1569.88" y1="3396.26" x2="4663.91" y2="3396.26" gradientUnits="userSpaceOnUse"><stop offset="0" stop-color="#9090c6"/><stop offset="0.19" stop-color="#9492c6"/><stop offset="0.39" stop-color="#a199c7"/><stop offset="0.6" stop-color="#b7a3c9"/><stop offset="0.81" stop-color="#d4b2cb"/><stop offset="1" stop-color="#f5c2cd"/></linearGradient></defs><path class="cls-1" d="M4645,3432c15,91.94,101.26,681.5-277.27,1086.36-334.86,358.17-827.38,351.36-1254.54,345.46-423.68-5.86-929.86-12.85-1263.64-390.91C1518.49,4098,1566,3594.75,1581.33,3432c51.88-549.83,401.67-1269.67,1068.18-1459.09C3556.38,1715.17,4508.37,2593.21,4645,3432Z" transform="translate(7.78 9.46)"/><path class="cls-2" d="M2827.55,1027.45c261,303.41,298.79,798,145.91,899.76-195.33,130-589.44-456.24-1555-781.57-540.78-182.21-835.5-139.29-836.36-200C580.07,802,2226.85,329.2,2827.55,1027.45Z" transform="translate(7.78 9.46)"/><path class="cls-3" d="M3536.64,1600.18" transform="translate(7.78 9.46)"/><path class="cls-2" d="M4782.09,1909.27c702.21,206.65,858.25,363.45,1000,272.73,207.47-132.78,199.42-677.42-36.36-1036.36C5388.08,601.18,4508.64,487.28,3891.18,754.73c-671.3,290.77-1036.4,1033.78-917.72,1172.48,93.65,109.44,438.75-215.54,1081.36-181.57C4263.53,1756.67,4436.39,1807.54,4782.09,1909.27Z" transform="translate(7.78 9.46)"/><path class="cls-3" d="M3445.73,1654.73" transform="translate(7.78 9.46)"/><path class="cls-3" d="M5009.36,2818.36" transform="translate(7.78 9.46)"/><ellipse class="cls-4" cx="2493.47" cy="3263.82" rx="266.5" ry="218.18" transform="translate(-1265.77 4910.17) rotate(-76.11)"/><circle class="cls-3" cx="2605.25" cy="3273.28" r="75"/><path class="cls-5" d="M3002.18,1900.25c61.58-104.81,296.53-475.65,779.91-645.52,404.49-142.16,753.73-63,881.82-27.28" transform="translate(7.78 9.46)"/><path class="cls-5" d="M2899.21,1910.27c-33.3-96.87-109.88-277.87-280.76-446.45C2438.21,1286,2244.51,1212.25,2145.73,1182" transform="translate(7.78 9.46)"/><ellipse class="cls-4" cx="3568.18" cy="3263.82" rx="218.18" ry="266.5" transform="translate(-526.18 712.65) rotate(-10.48)"/><circle class="cls-3" cx="3453.51" cy="3273.28" r="75"/><path class="cls-6" d="M3736.63,2641.34c-44.51-12.47-213.1-106.54-231.12,2.21-41,247.66-219,327.66-253.3,315.84" transform="translate(7.78 9.46)"/><path class="cls-6" d="M2340.8,2776.1c.29-35.95,5.6-105.33,46.11-157.92,84.48-109.69,244-45,259.22-38.49" transform="translate(7.78 9.46)"/><path class="cls-7" d="M3127.27,3881.55c-40.95,85.7-38.41,114-63.87,123.68-50.66,19.35-153.88-57-150.39-122.72,5.26-99.16,252.95-165.54,277.9-128.24C3200.35,3768.39,3171.84,3788.27,3127.27,3881.55Z" transform="translate(7.78 9.46)"/><ellipse class="cls-8" cx="2207.78" cy="3668.28" rx="236.36" ry="122.73"/><ellipse class="cls-8" cx="3980.77" cy="3668.28" rx="236.36" ry="122.73"/><rect class="cls-9" x="0.5" y="0.5" width="6400" height="5127.63"/></svg>