<svg xmlns="http://www.w3.org/2000/svg" xmlns:xlink="http://www.w3.org/1999/xlink" viewBox="20 20 6365 5100"><defs><style>.cls-1{fill:url(#linear-gradient);}.cls-2{fill:#7dc273;}.cls-3{fill:#231815;}.cls-3,.cls-4,.cls-5,.cls-6,.cls-8,.cls-9{stroke:#231815;stroke-miterlimit:10;}.cls-4{fill:#fff;}.cls-5,.cls-6,.cls-9{fill:none;}.cls-5{stroke-width:14px;}.cls-6{stroke-width:10px;}.cls-7{fill:#3e3a39;}.cls-8{fill:#e4007f;}</style><linearGradient id="linear-gradient" x1="1577.66" y1="3499.97" x2="4671.69" y2="3499.97" gradientUnits="userSpaceOnUse"><stop offset="0" stop-color="#9090c6"/><stop offset="0.19" stop-color="#9492c6"/><stop offset="0.39" stop-color="#a199c7"/><stop offset="0.6" stop-color="#b7a3c9"/><stop offset="0.81" stop-color="#d4b2cb"/><stop offset="1" stop-color="#f5c2cd"/></linearGradient></defs><g id="Layer_2" data-name="Layer 2"><g id="Layer_1-2" data-name="Layer 1"><path class="cls-1" d="M4652.75,3538c15,97.84,101.25,725.22-277.27,1156.06-334.86,381.14-827.39,373.9-1254.55,367.61-423.68-6.23-929.86-13.67-1263.64-416-331-399-283.53-934.5-268.18-1107.69,51.88-585.11,401.68-1351.12,1068.18-1552.69C3564.17,1711,4516.16,2645.4,4652.75,3538Z"/><path class="cls-2" d="M2835.33,845.51c261,366.65,298.8,964.37,145.92,1087.3-195.33,157.08-589.44-551.33-1555-944.48C885.46,768.13,590.73,820,589.88,746.64,587.85,573,2234.64,1.7,2835.33,845.51Z"/><path class="cls-2" d="M4789.88,1875.65c702.21,236.43,858.24,415.81,1000,312,207.47-151.91,199.42-775-36.37-1185.67C5395.87,379.11,4516.43,248.8,3899,554.78c-671.31,332.65-1036.41,1182.71-917.72,1341.39,93.65,125.21,438.74-246.59,1081.35-207.73C4271.32,1701.07,4444.17,1759.26,4789.88,1875.65Z"/><ellipse class="cls-3" cx="2501.25" cy="3273.28" rx="266.5" ry="218.18" transform="translate(-1276.83 4915.46) rotate(-76.11)"/><circle class="cls-4" cx="2605.25" cy="3273.28" r="75"/><path class="cls-5" d="M3010,1909.71c70.72-103.51,340.54-469.79,895.68-637.57,464.54-140.4,865.61-62.26,1012.72-26.94"/><path class="cls-5" d="M2907,1919.73c-33.29-137.93-109.87-395.67-280.75-635.72C2446,1030.81,2252.3,925.79,2153.51,882.72"/><ellipse class="cls-3" cx="3575.97" cy="3273.28" rx="218.18" ry="266.5" transform="translate(-535.55 704.76) rotate(-10.48)"/><circle class="cls-4" cx="3453.51" cy="3273.28" r="75"/><path class="cls-6" d="M3744.41,2650.8c-44.5-12.46-213.09-106.53-231.11,2.22-41.05,247.65-219.05,327.66-253.31,315.83"/><path class="cls-6" d="M2348.58,2785.56c.3-35.94,5.6-105.32,46.11-157.92,84.49-109.69,244-45,259.23-38.49"/><path class="cls-7" d="M3135.06,3891c-41,85.71-38.41,114-63.87,123.69-50.67,19.34-153.89-57-150.4-122.73,5.27-99.16,252.95-165.54,277.9-128.23C3208.13,3777.85,3179.63,3797.73,3135.06,3891Z"/><ellipse class="cls-8" cx="2207.78" cy="3668.28" rx="236.36" ry="122.73"/><ellipse class="cls-8" cx="3980.77" cy="3668.28" rx="236.36" ry="122.73"/><rect class="cls-9" x="0.5" y="0.5" width="6400" height="5127.63"/></g></g></svg>