<svg id="Layer_1" data-name="Layer 1" xmlns="http://www.w3.org/2000/svg" xmlns:xlink="http://www.w3.org/1999/xlink" viewBox="0 0 6401 5128.63"><defs><style>.cls-1,.cls-2,.cls-3,.cls-4,.cls-5,.cls-6,.cls-7,.cls-8{stroke:#231815;stroke-miterlimit:10;}.cls-1{fill:url(#linear-gradient);}.cls-2{fill:#7dc273;}.cls-3{fill:#fff;}.cls-4{fill:#231815;}.cls-5,.cls-6,.cls-8{fill:none;}.cls-5{stroke-width:14px;}.cls-6{stroke-width:10px;}.cls-7{fill:url(#linear-gradient-2);}</style><linearGradient id="linear-gradient" x1="1569.88" y1="3249.81" x2="4730.84" y2="3249.81" gradientUnits="userSpaceOnUse"><stop offset="0" stop-color="#83cee6"/><stop offset="0.29" stop-color="#94bfde"/><stop offset="0.71" stop-color="#a6afd6"/><stop offset="1" stop-color="#ada9d3"/></linearGradient><linearGradient id="linear-gradient-2" x1="2190.91" y1="2754.27" x2="2190.91" y2="2754.27" xlink:href="#linear-gradient"/></defs><path class="cls-1" d="M4711.48,3282c15.3,82.78,103.45,613.56-283.27,978.07-342.1,322.46-845.28,316.33-1281.68,311-432.84-5.27-950-11.56-1291-351.94-338.18-337.55-289.67-790.62-274-937.14,53-495,410.36-1143.09,1091.28-1313.63C3599.35,1736.3,4571.94,2526.81,4711.48,3282Z" transform="translate(0.5 0.5)"/><path class="cls-2" d="M2815.84,1168.73c274,256.73,313.63,675.25,153.16,761.32-205,110-618.71-386-1632.22-661.32-567.63-154.17-963.15-33.63-964-85C370.61,1062.19,2185.32,577.91,2815.84,1168.73Z" transform="translate(0.5 0.5)"/><path class="cls-3" d="M3536.64,1600.18" transform="translate(0.5 0.5)"/><path class="cls-2" d="M4782.09,1959.13c702.21,172.2,858.25,302.85,1000,227.26,207.47-110.65,199.42-564.49-36.36-863.59C5388.08,869.11,4508.64,774.2,3891.18,997.06c-671.3,242.29-1036.4,861.43-917.72,977,93.65,91.2,438.75-179.61,1081.36-151.3C4263.53,1832,4436.39,1874.35,4782.09,1959.13Z" transform="translate(0.5 0.5)"/><path class="cls-3" d="M3445.73,1654.73" transform="translate(0.5 0.5)"/><path class="cls-3" d="M5009.36,2818.36" transform="translate(0.5 0.5)"/><ellipse class="cls-4" cx="2473.5" cy="3264.32" rx="254.55" ry="218.18"/><ellipse class="cls-4" cx="3700.77" cy="3264.32" rx="254.55" ry="218.18"/><circle class="cls-3" cx="2571.23" cy="3339.32" r="75"/><circle class="cls-3" cx="3775.77" cy="3339.32" r="75"/><path class="cls-5" d="M2800.61,3761.51c72.9-94.85,208.24-140.65,338.69-115.81,160.57,30.57,232,152.6,238.62,164.47" transform="translate(0.5 0.5)"/><path class="cls-5" d="M3002.18,1900.25c67.79-78.69,326.42-357.11,858.53-484.65,445.27-106.73,829.7-47.32,970.71-20.48" transform="translate(0.5 0.5)"/><path class="cls-5" d="M2899.21,1910.27c-33.3-96.87-109.88-277.87-280.76-446.45C2438.21,1286,2244.51,1212.25,2145.73,1182" transform="translate(0.5 0.5)"/><path class="cls-6" d="M2027.27,3036.09c110.1-153,277.28-251.09,426.84-245.91a307.81,307.81,0,0,1,133.79,35.5" transform="translate(0.5 0.5)"/><path class="cls-7" d="M2190.91,2754.27" transform="translate(0.5 0.5)"/><path class="cls-6" d="M3531,2856.58a339.12,339.12,0,0,1,138-39.66c226.26-15,399.55,199.3,409.13,211.5" transform="translate(0.5 0.5)"/><rect class="cls-8" x="0.5" y="0.5" width="6400" height="5127.63"/></svg>