<?xml version="1.0" encoding="utf-8"?>
<!-- Generator: Adobe Illustrator 25.4.1, SVG Export Plug-In . SVG Version: 6.00 Build 0)  -->
<svg version="1.1" id="Layer_1" xmlns="http://www.w3.org/2000/svg" xmlns:xlink="http://www.w3.org/1999/xlink" x="0px" y="0px"
	 viewBox="0 0 6401 5128.6" style="enable-background:new 0 0 6401 5128.6;" xml:space="preserve">
<style type="text/css">
	.st0{fill:url(#SVGID_1_);stroke:#231815;stroke-miterlimit:10;}
	.st1{fill:#7DC273;stroke:#231815;stroke-miterlimit:10;}
	.st2{fill:#FFFFFF;stroke:#231815;stroke-miterlimit:10;}
	.st3{fill:#231815;stroke:#231815;stroke-miterlimit:10;}
	.st4{fill:none;stroke:#231815;stroke-width:14;stroke-miterlimit:10;}
	.st5{fill:none;stroke:#231815;stroke-width:10;stroke-miterlimit:10;}
	.st6{fill:#3E3A39;}
	.st7{fill:#E4007F;stroke:#231815;stroke-miterlimit:10;}
</style>
<linearGradient id="SVGID_1_" gradientUnits="userSpaceOnUse" x1="1569.8873" y1="1837.0903" x2="4764.562" y2="1837.0903" gradientTransform="matrix(1 0 0 -1 0.5 5137.46)">
	<stop  offset="0" style="stop-color:#9090C6"/>
	<stop  offset="0.19" style="stop-color:#9492C6"/>
	<stop  offset="0.39" style="stop-color:#A199C7"/>
	<stop  offset="0.6" style="stop-color:#B7A3C9"/>
	<stop  offset="0.81" style="stop-color:#D4B2CB"/>
	<stop  offset="1" style="stop-color:#F5C2CD"/>
</linearGradient>
<path class="st0" d="M4745.5,3333.1c15.5,84.2,104.5,624-286.3,994.7c-345.8,328-854.3,321.7-1295.4,316.3
	c-437.5-5.4-960.1-11.8-1304.7-357.9c-341.8-343.3-292.8-804.1-276.9-953.1c53.6-503.5,414.7-1162.6,1102.9-1336
	C3621.5,1761.1,4604.5,2565,4745.5,3333.1z"/>
<path class="st1" d="M2815.1,1217.1c275.4,243.9,315.2,641.4,154,723.2c-206.1,104.5-621.9-366.7-1640.6-628.2
	c-570.5-146.5-881.5-112-882.4-160.8C443.8,1035.9,2181.3,655.9,2815.1,1217.1z"/>
<path class="st2" d="M3537.1,1609.6"/>
<path class="st1" d="M4750.8,1979.4c690,181.4,895.4,502.1,1034.7,422.5c203.9-116.5,143.9-777.6-87.8-1092.6
	c-351.4-477.8-1212.7-468.6-1819.4-233.9c-659.7,255.2-1021.4,798.1-904.8,919.8c92,96,431.1-189.2,1062.6-159.4
	C4241.3,1845.5,4411.1,1890.1,4750.8,1979.4z"/>
<path class="st2" d="M3446.2,1664.2"/>
<path class="st2" d="M5009.9,2827.8"/>
<ellipse transform="matrix(0.2401 -0.9708 0.9708 0.2401 -1282.1924 4908.354)" class="st3" cx="2493.9" cy="3273.1" rx="266.5" ry="218.2"/>
<circle class="st2" cx="2598" cy="3273.3" r="75"/>
<path class="st4" d="M3002.7,1909.7c61.6-104.8,382.6-348.4,879.6-473c400-100.3,962.8,27.6,1090.9,63.4"/>
<path class="st4" d="M2870.7,1919.7c-45.7-88.5-150.8-253.8-385.2-407.7c-247.3-162.4-513.1-229.8-648.6-257.4"/>
<ellipse transform="matrix(0.9833 -0.1819 0.1819 0.9833 -535.7994 703.7469)" class="st3" cx="3568.9" cy="3273" rx="218.2" ry="266.5"/>
<circle class="st2" cx="3446.2" cy="3273.3" r="75"/>
<path class="st5" d="M3737.1,2650.8c-44.5-12.5-213.1-106.5-231.1,2.2c-41,247.7-219,327.7-253.3,315.8"/>
<path class="st5" d="M2341.3,2785.6c0.3-35.9,5.6-105.3,46.1-157.9c84.5-109.7,244-45,259.2-38.5"/>
<path class="st6" d="M3127.8,3891c-40.9,85.7-38.4,114-63.9,123.7c-50.7,19.4-153.9-57-150.4-122.7
	c5.3-99.2,252.9-165.5,277.9-128.2C3200.9,3777.8,3172.3,3797.7,3127.8,3891z"/>
<ellipse class="st7" cx="2200.5" cy="3668.3" rx="236.4" ry="122.7"/>
<ellipse class="st7" cx="3973.5" cy="3668.3" rx="236.4" ry="122.7"/>
</svg>
