<svg xmlns="http://www.w3.org/2000/svg" xmlns:xlink="http://www.w3.org/1999/xlink" viewBox="20 20 6365 5100"><defs><style>.cls-1{fill:url(#linear-gradient);}.cls-2{fill:#7dc273;}.cls-3{fill:#231815;}.cls-3,.cls-4,.cls-5,.cls-6,.cls-7{stroke:#231815;stroke-miterlimit:10;}.cls-4{fill:#fff;}.cls-5,.cls-6,.cls-7{fill:none;}.cls-5{stroke-width:14px;}.cls-6{stroke-width:10px;}</style><linearGradient id="linear-gradient" x1="1570.38" y1="3437.83" x2="4553.71" y2="3437.83" gradientUnits="userSpaceOnUse"><stop offset="0" stop-color="#ec779a"/><stop offset="0.36" stop-color="#ec7998"/><stop offset="0.54" stop-color="#ed8192"/><stop offset="0.68" stop-color="#ed8e87"/><stop offset="0.8" stop-color="#efa177"/><stop offset="0.9" stop-color="#f0b963"/><stop offset="0.99" stop-color="#f2d64b"/><stop offset="1" stop-color="#f2d849"/></linearGradient></defs><g id="Layer_2" data-name="Layer 2"><g id="Layer_1-2" data-name="Layer 1"><path class="cls-1" d="M4535.44,3474.57c14.44,94.51,97.63,700.55-267.35,1116.73-322.88,368.18-797.78,361.18-1209.66,355.11-408.52-6-896.59-13.2-1218.42-401.83-319.18-385.42-273.4-902.72-258.59-1070,50-565.21,387.3-1305.16,1030-1499.88C3485.81,1709.75,4403.74,2612.33,4535.44,3474.57Z"/><path class="cls-2" d="M2828.05,908.72c261,342.8,298.79,901.65,145.91,1016.59-195.33,146.85-589.44-515.48-1555-883.07-540.78-205.87-835.5-157.37-836.36-226C580.57,654,2227.35,119.79,2828.05,908.72Z"/><path class="cls-2" d="M4782.59,1885.73c702.21,223.27,858.25,392.67,1000,294.65,207.47-143.45,199.42-731.87-36.36-1119.67C5388.58,472.49,4509.14,349.43,3891.68,638.38,3220.38,952.52,2855.28,1755.26,2974,1905.11c93.65,118.24,438.75-232.87,1081.36-196.17C4264,1720.86,4436.89,1775.82,4782.59,1885.73Z"/><ellipse class="cls-3" cx="2493.97" cy="3264.32" rx="218.18" ry="266.5"/><circle class="cls-4" cx="2597.97" cy="3264.32" r="75"/><path class="cls-5" d="M2869.21,3760.43a1108,1108,0,0,1,178.19-86.14c95.71-36,122.16-30.5,138.46-23.36,59.34,26,70.87,111.74,72.73,127.28"/><path class="cls-5" d="M3002.68,1900.75c64.84-115.48,312.2-524.08,821.13-711.26,425.88-156.63,793.57-69.45,928.43-30"/><path class="cls-5" d="M2899.71,1910.77c-33.3-116-109.88-332.86-280.76-534.79-180.24-213-373.94-301.35-472.72-337.58"/><path class="cls-6" d="M2236.86,2800.23c50.6-16.38,153.6-41.33,272.73-9.09,248.44,67.23,337.35,321,345.46,345.45"/><ellipse class="cls-3" cx="3568.68" cy="3264.32" rx="218.18" ry="266.5"/><circle class="cls-4" cx="3643.68" cy="3264.32" r="75"/><path class="cls-6" d="M3824.7,2734.66c-49.73-7.79-150.43-15.88-263.23,31.39-235.24,98.56-305.56,346.74-311.89,370.54"/><path class="cls-6" d="M2236.86,2800.23c50.6-16.38,153.6-41.33,272.73-9.09,248.44,67.23,337.35,321,345.46,345.45"/><path class="cls-6" d="M2236.86,2800.23c50.6-16.38,153.6-41.33,272.73-9.09,248.44,67.23,337.35,321,345.46,345.45"/><rect class="cls-7" x="0.5" y="0.5" width="6400" height="5127.63"/></g></g></svg>