<svg xmlns="http://www.w3.org/2000/svg" xmlns:xlink="http://www.w3.org/1999/xlink" viewBox="20 20 6365 5100"><defs><style>.cls-1{fill:url(#linear-gradient);}.cls-2{fill:#7dc273;}.cls-3{fill:#231815;}.cls-3,.cls-4,.cls-5,.cls-6,.cls-7{stroke:#231815;stroke-miterlimit:10;}.cls-4{fill:#fff;}.cls-5,.cls-6,.cls-7{fill:none;}.cls-5{stroke-width:14px;}.cls-6{stroke-width:10px;}</style><linearGradient id="linear-gradient" x1="1476.85" y1="3396.76" x2="4570.88" y2="3396.76" gradientUnits="userSpaceOnUse"><stop offset="0" stop-color="#83cee6"/><stop offset="0.29" stop-color="#94bfde"/><stop offset="0.71" stop-color="#a6afd6"/><stop offset="1" stop-color="#ada9d3"/></linearGradient></defs><g id="Layer_2" data-name="Layer 2"><g id="Layer_1-2" data-name="Layer 1"><path class="cls-1" d="M4551.93,3432.5c15,91.94,101.26,681.5-277.27,1086.36C3939.8,4877,3447.28,4870.22,3020.12,4864.32c-423.68-5.86-929.86-12.85-1263.64-390.91-331-374.93-283.54-878.16-268.18-1040.91,51.88-549.83,401.68-1269.67,1068.18-1459.09C3463.35,1715.67,4415.34,2593.71,4551.93,3432.5Z"/><path class="cls-2" d="M2734.52,1028c261,303.41,298.79,798,145.91,899.76-195.33,130-589.44-456.24-1555-781.57-540.79-182.21-835.51-139.29-836.37-200C487,802.49,2133.82,329.7,2734.52,1028Z"/><path class="cls-2" d="M4689.06,1909.77c702.21,206.65,858.25,363.45,1000,272.73,207.47-132.78,199.42-677.42-36.36-1036.36C5295.05,601.68,4415.61,487.78,3798.15,755.23,3126.85,1046,2761.75,1789,2880.43,1927.71c93.65,109.44,438.75-215.54,1081.36-181.57C4170.5,1757.17,4343.36,1808,4689.06,1909.77Z"/><ellipse class="cls-3" cx="2379.97" cy="3264.32" rx="254.55" ry="218.18"/><ellipse class="cls-3" cx="3607.24" cy="3264.32" rx="254.55" ry="218.18"/><circle class="cls-4" cx="2477.7" cy="3339.32" r="75"/><circle class="cls-4" cx="3682.24" cy="3339.32" r="75"/><path class="cls-5" d="M2703.3,3791.14c84.28-112.12,240.2-166.67,390.18-137.95,184.62,35.36,266.24,178.9,273.85,192.86"/><path class="cls-5" d="M2909.15,1900.75c61.59-104.81,296.53-475.65,779.91-645.52,404.49-142.16,753.73-63,881.82-27.28"/><path class="cls-5" d="M2806.18,1910.77c-33.3-96.87-109.88-277.87-280.75-446.45-180.25-177.82-373.95-251.57-472.73-281.82"/><path class="cls-6" d="M1917.07,3065c110.1-153,277.28-251.09,426.83-245.91a308,308,0,0,1,133.8,35.5"/><path class="cls-6" d="M3408.67,2859.27a339.36,339.36,0,0,1,138-39.66c226.26-15,399.54,199.3,409.13,211.5"/><rect class="cls-7" x="0.5" y="0.5" width="6400" height="5127.63"/></g></g></svg>