<svg xmlns="http://www.w3.org/2000/svg" xmlns:xlink="http://www.w3.org/1999/xlink" viewBox="20 20 6365 5100"><defs><style>.cls-1{fill:url(#linear-gradient);}.cls-2{fill:#7dc273;}.cls-3{fill:#231815;}.cls-3,.cls-4,.cls-5,.cls-6,.cls-7{stroke:#231815;stroke-miterlimit:10;}.cls-4{fill:#fff;}.cls-5,.cls-6,.cls-7{fill:none;}.cls-5{stroke-width:14px;}.cls-6{stroke-width:10px;}</style><linearGradient id="linear-gradient" x1="1570.38" y1="3250.31" x2="4731.34" y2="3250.31" gradientUnits="userSpaceOnUse"><stop offset="0" stop-color="#83cee6"/><stop offset="0.29" stop-color="#94bfde"/><stop offset="0.71" stop-color="#a6afd6"/><stop offset="1" stop-color="#ada9d3"/></linearGradient></defs><g id="Layer_2" data-name="Layer 2"><g id="Layer_1-2" data-name="Layer 1"><path class="cls-1" d="M4712,3282.48c15.3,82.78,103.45,613.56-283.27,978.07-342.1,322.46-845.28,316.33-1281.68,311-432.84-5.27-950-11.56-1291-351.94-338.18-337.55-289.67-790.62-274-937.14,53-495,410.36-1143.09,1091.28-1313.63C3599.85,1736.8,4572.44,2527.31,4712,3282.48Z"/><path class="cls-2" d="M2816.34,1169.23c274,256.73,313.63,675.25,153.16,761.32-205,110-618.71-386-1632.22-661.32-567.63-154.17-963.15-33.63-964-85C371.11,1062.69,2185.82,578.41,2816.34,1169.23Z"/><path class="cls-2" d="M4782.59,1959.63c702.21,172.2,858.25,302.85,1000,227.26,207.47-110.65,199.42-564.49-36.36-863.59C5388.58,869.61,4509.14,774.7,3891.68,997.56c-671.3,242.29-1036.4,861.43-917.72,977,93.65,91.2,438.75-179.61,1081.36-151.3C4264,1832.46,4436.89,1874.85,4782.59,1959.63Z"/><ellipse class="cls-3" cx="2473.5" cy="3264.32" rx="254.55" ry="218.18"/><ellipse class="cls-3" cx="3700.77" cy="3264.32" rx="254.55" ry="218.18"/><circle class="cls-4" cx="2571.23" cy="3339.32" r="75"/><circle class="cls-4" cx="3775.77" cy="3339.32" r="75"/><path class="cls-5" d="M2801.11,3762c72.9-94.85,208.24-140.65,338.69-115.81,160.57,30.57,232,152.6,238.62,164.47"/><path class="cls-5" d="M3002.68,1900.75c67.79-78.69,326.42-357.11,858.53-484.65,445.27-106.73,829.7-47.32,970.71-20.48"/><path class="cls-5" d="M2899.71,1910.77c-33.3-96.87-109.88-277.87-280.76-446.45C2438.71,1286.5,2245,1212.75,2146.23,1182.5"/><path class="cls-6" d="M2027.77,3036.59c110.1-153,277.28-251.09,426.84-245.91a307.81,307.81,0,0,1,133.79,35.5"/><path class="cls-6" d="M3531.5,2857.08a339.12,339.12,0,0,1,138-39.66c226.26-15,399.55,199.3,409.13,211.5"/><rect class="cls-7" x="0.5" y="0.5" width="6400" height="5127.63"/></g></g></svg>