<svg xmlns="http://www.w3.org/2000/svg" xmlns:xlink="http://www.w3.org/1999/xlink" viewBox="20 20 6365 5100"><defs><style>.cls-1{fill:url(#linear-gradient);}.cls-2{fill:#7dc273;}.cls-3{fill:#231815;}.cls-3,.cls-4,.cls-5,.cls-6,.cls-7{stroke:#231815;stroke-miterlimit:10;}.cls-4{fill:#fff;}.cls-5,.cls-6,.cls-7{fill:none;}.cls-5{stroke-width:14px;}.cls-6{stroke-width:10px;}</style><linearGradient id="linear-gradient" x1="1570.38" y1="3346.12" x2="4731.34" y2="3346.12" gradientUnits="userSpaceOnUse"><stop offset="0" stop-color="#83cee6"/><stop offset="0.29" stop-color="#94bfde"/><stop offset="0.71" stop-color="#a6afd6"/><stop offset="1" stop-color="#ada9d3"/></linearGradient></defs><g id="Layer_2" data-name="Layer 2"><g id="Layer_1-2" data-name="Layer 1"><path class="cls-1" d="M4712,3376c15.3,76.79,103.45,569.12-283.27,907.22-342.1,299.1-845.28,293.41-1281.68,288.49-432.84-4.89-950-10.73-1291-326.45-338.18-313.1-289.67-733.35-274-869.26,53-459.16,410.36-1060.28,1091.28-1218.47C3599.85,1942.25,4572.44,2675.5,4712,3376Z"/><path class="cls-2" d="M2816.34,1276.05c274,274.13,313.63,721,153.16,812.93-205,117.44-618.71-412.21-1632.22-706.15-567.63-164.63-963.15-35.91-964-90.77C371.11,1162.28,2185.82,645.16,2816.34,1276.05Z"/><path class="cls-2" d="M4782.59,2093.67c702.21,193.62,858.25,340.54,1000,255.53,207.47-124.4,199.42-634.7-36.36-971-357.65-510.13-1237.09-616.85-1854.55-366.26-671.3,272.43-1036.4,968.59-917.72,1098.55,93.65,102.54,438.75-202,1081.36-170.12C4264,1950.69,4436.89,1998.35,4782.59,2093.67Z"/><ellipse class="cls-3" cx="2473.5" cy="3264.32" rx="254.55" ry="218.18"/><ellipse class="cls-3" cx="3700.77" cy="3264.32" rx="254.55" ry="218.18"/><circle class="cls-4" cx="2571.23" cy="3339.32" r="75"/><circle class="cls-4" cx="3775.77" cy="3339.32" r="75"/><path class="cls-5" d="M2801.11,3762c72.9-94.85,208.24-140.65,338.69-115.81,160.57,30.57,232,152.6,238.62,164.47"/><path class="cls-5" d="M3002.68,1900.75c74.39-64.94,358.18-294.69,942.05-399.94,488.58-88.08,910.41-39,1065.13-16.9"/><path class="cls-5" d="M2899.71,1910.77c-47.55-91.39-156.92-262.17-401-421.21-257.42-167.77-534-237.35-675.14-265.89"/><path class="cls-6" d="M2027.77,3036.59c110.1-153,277.28-251.09,426.84-245.91a307.81,307.81,0,0,1,133.79,35.5"/><path class="cls-6" d="M3531.5,2857.08a339.12,339.12,0,0,1,138-39.66c226.26-15,399.55,199.3,409.13,211.5"/><rect class="cls-7" x="0.5" y="0.5" width="6400" height="5127.63"/></g></g></svg>