<svg id="Layer_1" data-name="Layer 1" xmlns="http://www.w3.org/2000/svg" xmlns:xlink="http://www.w3.org/1999/xlink" viewBox="0 0 6401 5128.63"><defs><style>.cls-1,.cls-2,.cls-3,.cls-4,.cls-5,.cls-6,.cls-8,.cls-9{stroke:#231815;stroke-miterlimit:10;}.cls-1{fill:url(#linear-gradient);}.cls-2{fill:#7dc273;}.cls-3{fill:#fff;}.cls-4{fill:#231815;}.cls-5,.cls-6,.cls-9{fill:none;}.cls-5{stroke-width:14px;}.cls-6{stroke-width:10px;}.cls-7{fill:#3e3a39;}.cls-8{fill:#e4007f;}</style><linearGradient id="linear-gradient" x1="1569.88" y1="3290.9" x2="4764.55" y2="3290.9" gradientUnits="userSpaceOnUse"><stop offset="0" stop-color="#9090c6"/><stop offset="0.19" stop-color="#9492c6"/><stop offset="0.39" stop-color="#a199c7"/><stop offset="0.6" stop-color="#b7a3c9"/><stop offset="0.81" stop-color="#d4b2cb"/><stop offset="1" stop-color="#f5c2cd"/></linearGradient></defs><path class="cls-1" d="M4745,3323.63c15.46,84.18,104.55,624-286.29,994.73-345.75,328-854.3,321.72-1295.35,316.32-437.46-5.36-960.11-11.77-1304.74-357.94-341.79-343.31-292.76-804.1-276.91-953.11,53.57-503.46,414.74-1162.58,1102.93-1336C3621,1751.6,4604,2555.58,4745,3323.63Z" transform="translate(0.5 9.46)"/><path class="cls-2" d="M2814.56,1207.67c275.39,243.86,315.25,641.4,154,723.17-206.09,104.47-621.9-366.7-1640.64-628.18-570.55-146.46-881.51-112-882.41-160.75C443.32,1026.45,2180.79,646.45,2814.56,1207.67Z" transform="translate(0.5 9.46)"/><path class="cls-3" d="M3536.64,1600.18" transform="translate(0.5 9.46)"/><path class="cls-2" d="M4750.33,1969.92c690,181.36,895.36,502.08,1034.66,422.45,203.87-116.53,143.94-777.62-87.75-1092.64C5345.8,821.9,4484.59,831.15,3877.85,1065.86c-659.66,255.19-1021.39,798.07-904.76,919.8,92,96,431.13-189.17,1062.59-159.36C4240.77,1836,4410.62,1880.63,4750.33,1969.92Z" transform="translate(0.5 9.46)"/><path class="cls-3" d="M3445.73,1654.73" transform="translate(0.5 9.46)"/><path class="cls-3" d="M5009.36,2818.36" transform="translate(0.5 9.46)"/><ellipse class="cls-4" cx="2493.47" cy="3263.82" rx="266.5" ry="218.18" transform="translate(-1273.06 4910.17) rotate(-76.11)"/><circle class="cls-3" cx="2597.97" cy="3273.28" r="75"/><path class="cls-5" d="M3002.18,1900.25c61.58-104.81,382.65-348.41,879.64-473,400-100.26,962.81,27.62,1090.91,63.38" transform="translate(0.5 9.46)"/><path class="cls-5" d="M2870.21,1910.27c-45.69-88.47-150.76-253.77-385.22-407.72-247.31-162.39-513.08-229.75-648.63-257.37" transform="translate(0.5 9.46)"/><ellipse class="cls-4" cx="3568.18" cy="3263.82" rx="218.18" ry="266.5" transform="translate(-533.46 712.65) rotate(-10.48)"/><circle class="cls-3" cx="3446.23" cy="3273.28" r="75"/><path class="cls-6" d="M3736.63,2641.34c-44.51-12.47-213.1-106.54-231.12,2.21-41,247.66-219,327.66-253.3,315.84" transform="translate(0.5 9.46)"/><path class="cls-6" d="M2340.8,2776.1c.29-35.95,5.6-105.33,46.11-157.92,84.48-109.69,244-45,259.22-38.49" transform="translate(0.5 9.46)"/><path class="cls-7" d="M3127.27,3881.55c-40.95,85.7-38.41,114-63.87,123.68-50.66,19.35-153.88-57-150.39-122.72,5.26-99.16,252.95-165.54,277.9-128.24C3200.35,3768.39,3171.84,3788.27,3127.27,3881.55Z" transform="translate(0.5 9.46)"/><ellipse class="cls-8" cx="2200.5" cy="3668.28" rx="236.36" ry="122.73"/><ellipse class="cls-8" cx="3973.49" cy="3668.28" rx="236.36" ry="122.73"/><rect class="cls-9" x="0.5" y="0.5" width="6400" height="5127.63"/></svg>