<?xml version="1.0" encoding="utf-8"?>
<!-- Generator: Adobe Illustrator 25.4.1, SVG Export Plug-In . SVG Version: 6.00 Build 0)  -->
<svg version="1.1" id="Layer_1" xmlns="http://www.w3.org/2000/svg" xmlns:xlink="http://www.w3.org/1999/xlink" x="0px" y="0px"
	 viewBox="0 0 6401 5128.6" style="enable-background:new 0 0 6401 5128.6;" xml:space="preserve">
<style type="text/css">
	.st0{fill:url(#SVGID_1_);stroke:#231815;stroke-miterlimit:10;}
	.st1{fill:#7DC273;stroke:#231815;stroke-miterlimit:10;}
	.st2{fill:#FFFFFF;stroke:#231815;stroke-miterlimit:10;}
	.st3{fill:#231815;stroke:#231815;stroke-miterlimit:10;}
	.st4{fill:none;stroke:#231815;stroke-width:14;stroke-miterlimit:10;}
	.st5{fill:none;stroke:#231815;stroke-width:10;stroke-miterlimit:10;}
</style>
<linearGradient id="SVGID_1_" gradientUnits="userSpaceOnUse" x1="1569.8762" y1="1900.9102" x2="4827.2739" y2="1900.9102" gradientTransform="matrix(1 0 0 -1 0.5 5128.5)">
	<stop  offset="0" style="stop-color:#EC779A"/>
	<stop  offset="0.36" style="stop-color:#EC7998"/>
	<stop  offset="0.54" style="stop-color:#ED8192"/>
	<stop  offset="0.68" style="stop-color:#ED8E87"/>
	<stop  offset="0.8" style="stop-color:#EFA177"/>
	<stop  offset="0.9" style="stop-color:#F0B963"/>
	<stop  offset="0.99" style="stop-color:#F2D64B"/>
	<stop  offset="1" style="stop-color:#F2D849"/>
</linearGradient>
<path class="st0" d="M4807.8,3259.2c15.8,81.4,106.6,603-291.9,961.3c-352.5,316.9-871.1,310.9-1320.8,305.7
	c-446.1-5.2-979-11.4-1330.4-345.9c-348.5-331.8-298.5-777-282.3-921c54.6-486.5,422.9-1123.4,1124.6-1291.1
	C3661.8,1740.1,4664,2517,4807.8,3259.2z"/>
<path class="st1" d="M2809,1169.3c282.1,256.7,322.9,675.2,157.7,761.2c-211.1,110-637-386-1680.5-661.2
	c-584.4-154.2-902.9-117.8-903.9-169.2C380.1,978.6,2159.8,578.6,2809,1169.3z"/>
<path class="st2" d="M3537.1,1600.7"/>
<path class="st1" d="M4853.2,1954.5c729.3,175.7,891.4,309.1,1038.6,231.9c215.5-112.9,207.1-576.1-37.8-881.3
	c-371.4-463-1284.8-559.9-1926.1-332.4c-697.2,247.3-1076.4,879.1-953.1,997.1c97.3,93.1,455.7-183.3,1123.1-154.4
	C4314.6,1824.7,4494.2,1868,4853.2,1954.5z"/>
<path class="st2" d="M3446.2,1655.2"/>
<path class="st2" d="M5009.9,2818.9"/>
<ellipse class="st3" cx="2494" cy="3264.3" rx="218.2" ry="266.5"/>
<circle class="st2" cx="2598" cy="3264.3" r="75"/>
<path class="st4" d="M2869.2,3760.4c56.7-34,116.3-62.8,178.2-86.1c95.7-36,122.2-30.5,138.5-23.4c59.3,26,70.9,111.7,72.7,127.3"/>
<path class="st4" d="M3002.7,1900.8c67.6-69.5,325.7-315.5,856.6-428.2c444.3-94.3,827.8-41.8,968.5-18.1"/>
<path class="st4" d="M2899.7,1910.8c-44.6-96.9-147-277.9-375.7-446.4c-241.2-177.8-500.4-251.6-632.6-281.8"/>
<path class="st5" d="M2236.9,2800.2c50.6-16.4,153.6-41.3,272.7-9.1c248.4,67.2,337.4,321,345.5,345.4"/>
<ellipse class="st3" cx="3568.7" cy="3264.3" rx="218.2" ry="266.5"/>
<circle class="st2" cx="3643.7" cy="3264.3" r="75"/>
<path class="st5" d="M3824.7,2734.7c-49.7-7.8-150.4-15.9-263.2,31.4c-235.2,98.6-305.6,346.7-311.9,370.5"/>
<path class="st5" d="M2236.9,2800.2c50.6-16.4,153.6-41.3,272.7-9.1c248.4,67.2,337.4,321,345.5,345.4"/>
<path class="st5" d="M2236.9,2800.2c50.6-16.4,153.6-41.3,272.7-9.1c248.4,67.2,337.4,321,345.5,345.4"/>
</svg>
