<?xml version="1.0" encoding="utf-8"?>
<!-- Generator: Adobe Illustrator 25.4.1, SVG Export Plug-In . SVG Version: 6.00 Build 0)  -->
<svg version="1.1" id="Layer_1" xmlns="http://www.w3.org/2000/svg" xmlns:xlink="http://www.w3.org/1999/xlink" x="0px" y="0px"
	 viewBox="0 0 6401 5128.6" style="enable-background:new 0 0 6401 5128.6;" xml:space="preserve">
<style type="text/css">
	.st0{fill:url(#SVGID_1_);stroke:#231815;stroke-miterlimit:10;}
	.st1{fill:#7DC273;stroke:#231815;stroke-miterlimit:10;}
	.st2{fill:#FFFFFF;stroke:#231815;stroke-miterlimit:10;}
	.st3{fill:#231815;stroke:#231815;stroke-miterlimit:10;}
	.st4{fill:none;stroke:#231815;stroke-width:14;stroke-miterlimit:10;}
	.st5{fill:none;stroke:#231815;stroke-width:10;stroke-miterlimit:10;}
	.st6{fill:#3E3A39;}
	.st7{fill:#E4007F;stroke:#231815;stroke-miterlimit:10;}
</style>
<linearGradient id="SVGID_1_" gradientUnits="userSpaceOnUse" x1="1569.889" y1="1731.7406" x2="4663.959" y2="1731.7406" gradientTransform="matrix(1 0 0 -1 7.78 5137.46)">
	<stop  offset="0" style="stop-color:#9090C6"/>
	<stop  offset="0.19" style="stop-color:#9492C6"/>
	<stop  offset="0.39" style="stop-color:#A199C7"/>
	<stop  offset="0.6" style="stop-color:#B7A3C9"/>
	<stop  offset="0.81" style="stop-color:#D4B2CB"/>
	<stop  offset="1" style="stop-color:#F5C2CD"/>
</linearGradient>
<path class="st0" d="M4652.8,3441.5c15,91.9,101.3,681.5-277.3,1086.4c-334.9,358.2-827.4,351.4-1254.5,345.5
	c-423.7-5.9-929.9-12.9-1263.6-390.9c-331.1-374.9-283.5-878.2-268.2-1040.9c51.9-549.8,401.7-1269.7,1068.2-1459.1
	C3564.2,1724.6,4516.1,2602.7,4652.8,3441.5z"/>
<path class="st1" d="M2835.3,1036.9c261,303.4,298.8,798,145.9,899.8c-195.3,130-589.4-456.2-1555-781.6
	c-540.8-182.2-835.5-139.3-836.4-200C587.9,811.5,2234.6,338.7,2835.3,1036.9z"/>
<path class="st2" d="M3544.4,1609.6"/>
<path class="st1" d="M4789.9,1918.7c702.2,206.6,858.2,363.4,1000,272.7c207.5-132.8,199.4-677.4-36.4-1036.4
	C5395.9,610.6,4516.4,496.7,3899,764.2C3227.7,1055,2862.6,1798,2981.2,1936.7c93.6,109.4,438.8-215.5,1081.4-181.6
	C4271.3,1766.1,4444.2,1817,4789.9,1918.7z"/>
<path class="st2" d="M3453.5,1664.2"/>
<path class="st2" d="M5017.1,2827.8"/>
<ellipse transform="matrix(0.2401 -0.9708 0.9708 0.2401 -1276.6523 4915.4312)" class="st3" cx="2501.2" cy="3273.1" rx="266.5" ry="218.2"/>
<circle class="st2" cx="2605.2" cy="3273.3" r="75"/>
<path class="st4" d="M3010,1909.7c61.6-104.8,296.5-475.7,779.9-645.5c404.5-142.2,753.7-63,881.8-27.3"/>
<path class="st4" d="M2907,1919.7c-33.3-96.9-109.9-277.9-280.8-446.4c-180.2-177.8-373.9-251.6-472.7-281.8"/>
<ellipse transform="matrix(0.9833 -0.1819 0.1819 0.9833 -535.678 705.0712)" class="st3" cx="3576.1" cy="3273" rx="218.2" ry="266.5"/>
<circle class="st2" cx="3453.5" cy="3273.3" r="75"/>
<path class="st5" d="M3744.4,2650.8c-44.5-12.5-213.1-106.5-231.1,2.2c-41,247.7-219,327.7-253.3,315.8"/>
<path class="st5" d="M2348.6,2785.6c0.3-35.9,5.6-105.3,46.1-157.9c84.5-109.7,244-45,259.2-38.5"/>
<path class="st6" d="M3135.1,3891c-40.9,85.7-38.4,114-63.9,123.7c-50.7,19.4-153.9-57-150.4-122.7
	c5.3-99.2,252.9-165.5,277.9-128.2C3208.1,3777.8,3179.6,3797.7,3135.1,3891z"/>
<ellipse class="st7" cx="2207.8" cy="3668.3" rx="236.4" ry="122.7"/>
<ellipse class="st7" cx="3980.8" cy="3668.3" rx="236.4" ry="122.7"/>
</svg>
