<svg xmlns="http://www.w3.org/2000/svg" xmlns:xlink="http://www.w3.org/1999/xlink" viewBox="20 20 6365 5100"><defs><style>.cls-1{fill:url(#linear-gradient);}.cls-2{fill:#7dc273;}.cls-3{fill:#231815;}.cls-3,.cls-4,.cls-5,.cls-6,.cls-7{stroke:#231815;stroke-miterlimit:10;}.cls-4{fill:#fff;}.cls-5,.cls-6,.cls-7{fill:none;}.cls-5{stroke-width:14px;}.cls-6{stroke-width:10px;}</style><linearGradient id="linear-gradient" x1="1570.38" y1="3436.36" x2="4664.41" y2="3436.36" gradientUnits="userSpaceOnUse"><stop offset="0" stop-color="#83cee6"/><stop offset="0.29" stop-color="#94bfde"/><stop offset="0.71" stop-color="#a6afd6"/><stop offset="1" stop-color="#ada9d3"/></linearGradient></defs><g id="Layer_2" data-name="Layer 2"><g id="Layer_1-2" data-name="Layer 1"><path class="cls-1" d="M4645.46,3473.06c15,94.42,101.26,699.87-277.27,1115.64-334.86,367.82-827.38,360.83-1254.54,354.77-423.68-6-929.86-13.19-1263.64-401.44-331-385-283.54-901.84-268.18-1069C1633.71,2908.41,1983.5,2169.17,2650,1974.64,3556.88,1710,4508.87,2611.66,4645.46,3473.06Z"/><path class="cls-2" d="M2814.07,954.27c276.48,338.85,316.5,891.25,154.56,1004.86-206.91,145.17-624.38-509.53-1647.17-872.88-572.84-203.49-885-155.56-885.94-223.36C433.38,702.46,2177.77,174.43,2814.07,954.27Z"/><path class="cls-2" d="M4720.91,1895.2c678.56,216.72,829.34,381.16,966.31,286,200.49-139.25,192.71-710.44-35.13-1086.87-345.6-571-1195.41-690.44-1792.07-410C3211.33,989.32,2858.53,1768.55,2973.21,1914c90.5,114.78,424-226,1044.93-190.42C4219.83,1735.16,4386.86,1788.5,4720.91,1895.2Z"/><ellipse class="cls-3" cx="2473.5" cy="3264.32" rx="254.55" ry="218.18"/><ellipse class="cls-3" cx="3700.77" cy="3264.32" rx="254.55" ry="218.18"/><circle class="cls-4" cx="2571.23" cy="3339.32" r="75"/><circle class="cls-4" cx="3775.77" cy="3339.32" r="75"/><path class="cls-5" d="M2796.83,3791.14C2881.1,3679,3037,3624.47,3187,3653.19c184.62,35.36,266.24,178.9,273.85,192.86"/><path class="cls-5" d="M3002.68,1900.75c66.82-81.57,321.73-370.2,846.18-502.42,438.86-110.64,817.76-49.06,956.74-21.23"/><path class="cls-5" d="M2899.71,1910.77c-26.9-109.27-88.78-313.44-226.84-503.59-145.64-200.58-302.14-283.77-382-317.89"/><path class="cls-6" d="M2010.6,3065c110.1-153,277.28-251.09,426.83-245.91a308,308,0,0,1,133.8,35.5"/><path class="cls-6" d="M3502.2,2859.27a339.36,339.36,0,0,1,138-39.66c226.26-15,399.54,199.3,409.13,211.5"/><rect class="cls-7" x="0.5" y="0.5" width="6400" height="5127.63"/></g></g></svg>