<svg xmlns="http://www.w3.org/2000/svg" xmlns:xlink="http://www.w3.org/1999/xlink" viewBox="20 20 6365 5100"><defs><style>.cls-1{fill:url(#linear-gradient);}.cls-2{fill:#7dc273;}.cls-3{fill:#231815;}.cls-3,.cls-4,.cls-5,.cls-6,.cls-7{stroke:#231815;stroke-miterlimit:10;}.cls-4{fill:#fff;}.cls-5,.cls-6,.cls-7{fill:none;}.cls-5{stroke-width:14px;}.cls-6{stroke-width:10px;}</style><linearGradient id="linear-gradient" x1="1504.26" y1="3136.59" x2="4761.65" y2="3136.59" gradientUnits="userSpaceOnUse"><stop offset="0" stop-color="#ec779a"/><stop offset="0.36" stop-color="#ec7998"/><stop offset="0.54" stop-color="#ed8192"/><stop offset="0.68" stop-color="#ed8e87"/><stop offset="0.8" stop-color="#efa177"/><stop offset="0.9" stop-color="#f0b963"/><stop offset="0.99" stop-color="#f2d64b"/><stop offset="1" stop-color="#f2d849"/></linearGradient></defs><g id="Layer_2" data-name="Layer 2"><g id="Layer_1-2" data-name="Layer 1"><path class="cls-1" d="M4741.71,3166.43c15.76,76.75,106.6,568.91-291.91,906.89-352.54,299-871.07,293.31-1320.79,288.38-446.05-4.89-979-10.73-1330.35-326.33-348.5-313-298.51-733.08-282.35-868.94,54.62-459,422.89-1059.91,1124.59-1218C3595.65,1733.23,4597.91,2466.21,4741.71,3166.43Z"/><path class="cls-2" d="M2809,1285.6c282.08,218.28,322.91,574.11,157.69,647.3-211.09,93.51-637-328.22-1680.51-562.28-584.43-131.08-902.95-100.2-903.87-143.88C380.13,1123.4,2159.83,783.26,2809,1285.6Z"/><path class="cls-2" d="M4819.88,1985.18c716.52,154.54,875.73,271.8,1020.37,204,211.7-99.3,203.48-506.6-37.1-775-364.94-407.17-1262.29-492.34-1892.32-292.34-685,217.45-1057.52,773.1-936.42,876.82,95.56,81.85,447.68-161.18,1103.39-135.78C4290.76,1871.06,4467.14,1909.1,4819.88,1985.18Z"/><ellipse class="cls-3" cx="2493.97" cy="3264.32" rx="218.18" ry="266.5"/><circle class="cls-4" cx="2597.97" cy="3264.32" r="75"/><path class="cls-5" d="M2869.21,3760.43a1108,1108,0,0,1,178.19-86.14c95.71-36,122.16-30.5,138.46-23.36,59.34,26,70.87,111.74,72.73,127.28"/><path class="cls-5" d="M3002.68,1900.75c71-76.87,341.66-348.85,898.6-473.44,466-104.26,868.43-46.23,1016-20"/><path class="cls-5" d="M2899.71,1910.77c-52-87.36-171.58-250.59-438.41-402.61-281.46-160.35-583.93-226.87-738.19-254.14"/><path class="cls-6" d="M2236.86,2800.23c50.6-16.38,153.6-41.33,272.73-9.09,248.44,67.23,337.35,321,345.46,345.45"/><ellipse class="cls-3" cx="3568.68" cy="3264.32" rx="218.18" ry="266.5"/><circle class="cls-4" cx="3643.68" cy="3264.32" r="75"/><path class="cls-6" d="M3824.7,2734.66c-49.73-7.79-150.43-15.88-263.23,31.39-235.24,98.56-305.56,346.74-311.89,370.54"/><path class="cls-6" d="M2236.86,2800.23c50.6-16.38,153.6-41.33,272.73-9.09,248.44,67.23,337.35,321,345.46,345.45"/><path class="cls-6" d="M2236.86,2800.23c50.6-16.38,153.6-41.33,272.73-9.09,248.44,67.23,337.35,321,345.46,345.45"/><rect class="cls-7" x="0.5" y="0.5" width="6400" height="5127.63"/></g></g></svg>