<?xml version="1.0" encoding="UTF-8" standalone="no"?>
<!DOCTYPE svg PUBLIC "-//W3C//DTD SVG 1.1//EN" "http://www.w3.org/Graphics/SVG/1.1/DTD/svg11.dtd">
<svg width="100%" height="100%" viewBox="0 0 6401 5129" version="1.1" xmlns="http://www.w3.org/2000/svg" xmlns:xlink="http://www.w3.org/1999/xlink" xml:space="preserve" xmlns:serif="http://www.serif.com/" style="fill-rule:evenodd;clip-rule:evenodd;stroke-miterlimit:10;">
    <path d="M4645.5,3432.5C4660.5,3524.4 4746.8,4114 4368.2,4518.9C4033.3,4877.1 3540.8,4870.3 3113.7,4864.4C2690,4858.5 2183.8,4851.5 1850.1,4473.5C1519,4098.6 1566.6,3595.3 1581.9,3432.6C1633.8,2882.8 1983.6,2162.9 2650.1,1973.5C3556.9,1715.7 4508.9,2593.7 4645.5,3432.5Z" style="fill:url(#_Linear1);fill-rule:nonzero;stroke:rgb(35,24,21);stroke-width:1px;"/>
    <path d="M2828.1,1027.9C3089.1,1331.3 3126.9,1825.9 2974,1927.7C2778.7,2057.7 2384.6,1471.5 1419,1146.1C878.2,963.9 583.5,1006.8 582.6,946.1C580.6,802.5 2227.4,329.7 2828.1,1027.9Z" style="fill:rgb(125,194,115);fill-rule:nonzero;stroke:rgb(35,24,21);stroke-width:1px;"/>
    <path d="M4782.6,1909.8C5484.8,2116.4 5640.8,2273.2 5782.6,2182.5C5990.1,2049.7 5982,1505.1 5746.2,1146.1C5388.6,601.6 4509.1,487.7 3891.6,755.2C3220.4,1046 2855.3,1789 2974,1927.7C3067.6,2037.1 3412.8,1712.2 4055.4,1746.1C4264,1757.2 4436.9,1808 4782.6,1909.8Z" style="fill:rgb(125,194,115);fill-rule:nonzero;stroke:rgb(35,24,21);stroke-width:1px;"/>
    <g transform="matrix(0.2401,-0.9708,0.9708,0.2401,-1273.49,4901.54)">
        <ellipse cx="2493.9" cy="3264.2" rx="266.5" ry="218.2" style="fill:rgb(35,24,21);stroke:rgb(35,24,21);stroke-width:1px;"/>
    </g>
    <circle cx="2598" cy="3264.3" r="75" style="fill:white;stroke:rgb(35,24,21);stroke-width:1px;"/>
    <path d="M3002.7,1900.8C3064.3,1796 3299.2,1425.1 3782.6,1255.3C4187.1,1113.1 4536.3,1192.3 4664.4,1228" style="fill:none;fill-rule:nonzero;stroke:rgb(35,24,21);stroke-width:14px;"/>
    <path d="M2899.7,1910.8C2866.4,1813.9 2789.8,1632.9 2618.9,1464.4C2438.7,1286.6 2245,1212.8 2146.2,1182.6" style="fill:none;fill-rule:nonzero;stroke:rgb(35,24,21);stroke-width:14px;"/>
    <g transform="matrix(0.9833,-0.1819,0.1819,0.9833,-534.168,703.597)">
        <ellipse cx="3568.9" cy="3264" rx="218.2" ry="266.5" style="fill:rgb(35,24,21);stroke:rgb(35,24,21);stroke-width:1px;"/>
    </g>
    <circle cx="3446.2" cy="3264.3" r="75" style="fill:white;stroke:rgb(35,24,21);stroke-width:1px;"/>
    <ellipse cx="2200.5" cy="3659.3" rx="236.4" ry="122.7" style="fill:rgb(228,0,127);stroke:rgb(35,24,21);stroke-width:1px;"/>
    <ellipse cx="3973.5" cy="3659.3" rx="236.4" ry="122.7" style="fill:rgb(228,0,127);stroke:rgb(35,24,21);stroke-width:1px;"/>
    <path d="M2836.6,3736.1C2846.3,3867.6 2960.8,3964.3 3082.3,3954.7C3191.4,3946.1 3283.3,3853.5 3291.2,3736.1L2836.6,3736.1Z" style="fill:rgb(137,137,137);fill-rule:nonzero;stroke:rgb(35,24,21);stroke-width:10px;"/>
    <path d="M3402.6,2826C3498.8,2708.7 3643.7,2667.9 3749.8,2717.5C3825.5,2752.9 3859.8,2824.1 3871.7,2852.8" style="fill:none;fill-rule:nonzero;stroke:rgb(35,24,21);stroke-width:10px;"/>
    <path d="M2146.2,2852.8C2148.8,2839.1 2174.2,2714.7 2285.1,2663.3C2390.4,2614.4 2528.6,2651.9 2610.6,2760.9" style="fill:none;fill-rule:nonzero;stroke:rgb(35,24,21);stroke-width:10px;"/>
    <defs>
        <linearGradient id="_Linear1" x1="0" y1="0" x2="1" y2="0" gradientUnits="userSpaceOnUse" gradientTransform="matrix(3094.07,0,0,3094.07,1570.39,3396.76)"><stop offset="0" style="stop-color:rgb(176,215,159);stop-opacity:1"/><stop offset="0.25" style="stop-color:rgb(172,214,162);stop-opacity:1"/><stop offset="0.49" style="stop-color:rgb(160,211,170);stop-opacity:1"/><stop offset="0.73" style="stop-color:rgb(141,206,183);stop-opacity:1"/><stop offset="0.97" style="stop-color:rgb(114,198,202);stop-opacity:1"/><stop offset="1" style="stop-color:rgb(109,197,205);stop-opacity:1"/></linearGradient>
    </defs>
</svg>
