<?xml version="1.0" encoding="utf-8"?>
<!-- Generator: Adobe Illustrator 25.4.1, SVG Export Plug-In . SVG Version: 6.00 Build 0)  -->
<svg version="1.1" id="Layer_1" xmlns="http://www.w3.org/2000/svg" xmlns:xlink="http://www.w3.org/1999/xlink" x="0px" y="0px"
	 viewBox="0 0 6401 5128.6" style="enable-background:new 0 0 6401 5128.6;" xml:space="preserve">
<style type="text/css">
	.st0{fill:url(#SVGID_1_);stroke:#231815;stroke-miterlimit:10;}
	.st1{fill:#7DC273;stroke:#231815;stroke-miterlimit:10;}
	.st2{fill:#FFFFFF;stroke:#231815;stroke-miterlimit:10;}
	.st3{fill:#231815;stroke:#231815;stroke-miterlimit:10;}
	.st4{fill:none;stroke:#231815;stroke-width:14;stroke-miterlimit:10;}
	.st5{fill:#E4007F;stroke:#231815;stroke-miterlimit:10;}
	.st6{fill:#898989;stroke:#231815;stroke-width:10;stroke-miterlimit:10;}
	.st7{fill:none;stroke:#231815;stroke-width:10;stroke-miterlimit:10;}
</style>
<linearGradient id="SVGID_1_" gradientUnits="userSpaceOnUse" x1="1569.8795" y1="1904.9293" x2="4832.7393" y2="1904.9293" gradientTransform="matrix(1 0 0 -1 -0.81 5128.5)">
	<stop  offset="0" style="stop-color:#B0D79F"/>
	<stop  offset="0.25" style="stop-color:#ACD6A2"/>
	<stop  offset="0.49" style="stop-color:#A0D3AA"/>
	<stop  offset="0.73" style="stop-color:#8DCEB7"/>
	<stop  offset="0.97" style="stop-color:#72C6CA"/>
	<stop  offset="1" style="stop-color:#6DC5CD"/>
</linearGradient>
<path class="st0" d="M4811.9,3255.1c15.8,81.1,106.8,601.1-292.4,958.3c-353.1,315.9-872.5,309.9-1323,304.7
	c-446.8-5.2-980.6-11.3-1332.6-344.8c-349.1-330.7-299-774.6-282.8-918.2c54.7-485,423.6-1120,1126.5-1287.1
	C3664,1740.7,4667.9,2515.2,4811.9,3255.1z"/>
<path class="st1" d="M2806.6,1172.7c283.3,255.6,324.3,672.2,158.4,757.9c-212,109.5-639.7-384.3-1687.6-658.4
	c-586.9-153.5-906.8-117.3-907.7-168.5C367.5,982.8,2154.7,584.5,2806.6,1172.7z"/>
<path class="st2" d="M3535.8,1600.7"/>
<path class="st1" d="M4875.2,1947.4c738.2,180.7,902.3,317.7,1051.3,238.4c218.1-116.1,209.6-592.2-38.2-906
	c-376-476-1300.5-575.5-1949.7-341.7c-705.7,254.2-1089.6,903.7-964.8,1025c98.4,95.7,461.2-188.4,1136.8-158.7
	C4330,1814,4511.8,1858.5,4875.2,1947.4z"/>
<path class="st2" d="M3444.9,1655.2"/>
<path class="st2" d="M5008.5,2818.9"/>
<ellipse transform="matrix(0.2401 -0.9708 0.9708 0.2401 -1274.4899 4900.2734)" class="st3" cx="2492.6" cy="3264.2" rx="266.5" ry="218.2"/>
<circle class="st2" cx="2596.7" cy="3264.3" r="75"/>
<path class="st4" d="M3001.4,1900.8c65-86.4,312.8-392.2,822.8-532.2c426.7-117.2,795.1-52,930.3-22.5"/>
<path class="st4" d="M2898.4,1910.8c-41.3-90-136.4-258.2-348.6-414.8c-223.8-165.2-464.3-233.8-587-261.9"/>
<ellipse transform="matrix(0.9833 -0.1819 0.1819 0.9833 -534.1897 703.3591)" class="st3" cx="3567.6" cy="3264" rx="218.2" ry="266.5"/>
<circle class="st2" cx="3444.9" cy="3264.3" r="75"/>
<ellipse class="st5" cx="2199.2" cy="3659.3" rx="236.4" ry="122.7"/>
<ellipse class="st5" cx="3972.2" cy="3659.3" rx="236.4" ry="122.7"/>
<path class="st6" d="M2835.3,3736.1c9.7,131.5,124.2,228.2,245.7,218.6c109.1-8.6,201-101.2,208.9-218.6H2835.3z"/>
<path class="st7" d="M2132.3,2865.1c2.6-13.7,28-138.1,138.9-189.5c105.3-48.9,243.5-11.4,325.5,97.6"/>
<path class="st7" d="M3535.8,2811c96.2-117.3,241.1-158.1,347.2-108.5c75.7,35.4,110,106.6,121.9,135.3"/>
</svg>
