<svg xmlns="http://www.w3.org/2000/svg" xmlns:xlink="http://www.w3.org/1999/xlink" viewBox="20 20 6365 5100"><defs><style>.cls-1,.cls-2,.cls-3,.cls-4,.cls-5,.cls-6,.cls-8,.cls-9{stroke:#231815;stroke-miterlimit:10;}.cls-1{fill:url(#linear-gradient);}.cls-2{fill:#7dc273;}.cls-3{fill:#231815;}.cls-4{fill:#fff;}.cls-5,.cls-6,.cls-9{fill:none;}.cls-5{stroke-width:14px;}.cls-6{stroke-width:10px;}.cls-7{fill:#3e3a39;}.cls-8{fill:#e4007f;}</style><linearGradient id="linear-gradient" x1="1482.01" y1="3414.71" x2="4676.68" y2="3414.71" gradientUnits="userSpaceOnUse"><stop offset="0" stop-color="#9090c6"/><stop offset="0.19" stop-color="#9492c6"/><stop offset="0.39" stop-color="#a199c7"/><stop offset="0.6" stop-color="#b7a3c9"/><stop offset="0.81" stop-color="#d4b2cb"/><stop offset="1" stop-color="#f5c2cd"/></linearGradient></defs><g id="Layer_2" data-name="Layer 2"><g id="Layer_1-2" data-name="Layer 1"><path class="cls-1" d="M4657.12,3443.1c15.46,73,104.55,541.32-286.29,862.91-345.75,284.49-854.3,279.09-1295.35,274.4-437.46-4.65-960.11-10.21-1304.74-310.51C1429,3972.09,1478,3572.37,1493.83,3443.1c53.57-436.74,414.74-1008.51,1102.93-1159C3533.13,2079.41,4516.09,2776.84,4657.12,3443.1Z"/><path class="cls-2" d="M2782.69,1426.61c296.5,271.34,339.41,713.66,165.75,804.63-221.87,116.24-669.55-408-1766.36-698.94-614.28-163-949.07-124.56-950-178.85C229.74,1225,2100.35,802.18,2782.69,1426.61Z"/><path class="cls-2" d="M4776.73,2255.47c694,172.54,900.57,477.65,1040.68,401.91,205.06-110.86,144.78-739.8-88.26-1039.5-353.48-454.58-1219.7-445.78-1830-222.48-663.49,242.77-1027.33,759.24-910,875,92.57,91.37,433.64-180,1068.77-151.61C4264.21,2128.06,4435.05,2170.53,4776.73,2255.47Z"/><ellipse class="cls-3" cx="2493.97" cy="3273.28" rx="266.5" ry="218.18" transform="translate(-1282.36 4908.39) rotate(-76.11)"/><circle class="cls-4" cx="2597.97" cy="3273.28" r="75"/><path class="cls-5" d="M3018.12,2176.53c58-71.9,360.47-239,828.64-324.48,376.8-68.79,907,18.94,1027.65,43.47"/><path class="cls-5" d="M2912,2197.12c-64.19-98.66-211.82-283-541.24-454.73-347.48-181.11-720.89-256.23-911.33-287"/><ellipse class="cls-3" cx="3568.68" cy="3273.28" rx="218.18" ry="266.5" transform="translate(-535.67 703.43) rotate(-10.48)"/><circle class="cls-4" cx="3446.23" cy="3273.28" r="75"/><path class="cls-6" d="M3737.13,2650.8c-44.51-12.46-213.1-106.53-231.12,2.22-41,247.65-219,327.66-253.3,315.83"/><path class="cls-6" d="M2341.3,2785.56c.29-35.94,5.6-105.32,46.11-157.92,84.48-109.69,244-45,259.22-38.49"/><path class="cls-7" d="M3127.77,3891c-40.95,85.71-38.41,114-63.87,123.69-50.66,19.34-153.88-57-150.39-122.73,5.26-99.16,252.95-165.54,277.9-128.23C3200.85,3777.85,3172.34,3797.73,3127.77,3891Z"/><ellipse class="cls-8" cx="2200.5" cy="3668.28" rx="236.36" ry="122.73"/><ellipse class="cls-8" cx="3973.49" cy="3668.28" rx="236.36" ry="122.73"/><rect class="cls-9" x="0.5" y="0.5" width="6400" height="5127.63"/></g></g></svg>