<svg id="Layer_1" data-name="Layer 1" xmlns="http://www.w3.org/2000/svg" xmlns:xlink="http://www.w3.org/1999/xlink" viewBox="0 0 6401 5128.63"><defs><style>.cls-1,.cls-2,.cls-3,.cls-4,.cls-5,.cls-6,.cls-7{stroke:#231815;stroke-miterlimit:10;}.cls-1{fill:url(#linear-gradient);}.cls-2{fill:#7dc273;}.cls-3{fill:#fff;}.cls-4{fill:#231815;}.cls-5,.cls-6,.cls-7{fill:none;}.cls-5{stroke-width:14px;}.cls-6{stroke-width:10px;}</style><linearGradient id="linear-gradient" x1="1569.88" y1="3227.08" x2="4827.27" y2="3227.08" gradientUnits="userSpaceOnUse"><stop offset="0" stop-color="#ec779a"/><stop offset="0.36" stop-color="#ec7998"/><stop offset="0.54" stop-color="#ed8192"/><stop offset="0.68" stop-color="#ed8e87"/><stop offset="0.8" stop-color="#efa177"/><stop offset="0.9" stop-color="#f0b963"/><stop offset="0.99" stop-color="#f2d64b"/><stop offset="1" stop-color="#f2d849"/></linearGradient></defs><path class="cls-1" d="M4807.33,3258.7c15.76,81.36,106.6,603-291.91,961.26-352.55,316.92-871.07,310.9-1320.79,305.67-446.05-5.18-979-11.36-1330.36-345.89-348.49-331.76-298.5-777-282.34-921,54.62-486.51,422.89-1123.45,1124.58-1291.06C3661.27,1739.58,4663.53,2516.51,4807.33,3258.7Z" transform="translate(0.5 0.5)"/><path class="cls-2" d="M2808.51,1168.84c282.08,256.69,322.91,675.15,157.69,761.22-211.09,110-637-386-1680.51-661.23C701.26,1114.67,382.74,1151,381.82,1099.62,379.63,978.09,2159.33,578.1,2808.51,1168.84Z" transform="translate(0.5 0.5)"/><path class="cls-3" d="M3536.64,1600.18" transform="translate(0.5 0.5)"/><path class="cls-2" d="M4852.7,1954c729.3,175.74,891.35,309.09,1038.57,231.94,215.48-112.92,207.11-576.09-37.76-881.35-371.44-463-1284.8-559.87-1926.08-332.43-697.19,247.27-1076.38,879.14-953.11,997.1,97.26,93.07,455.66-183.3,1123.06-154.42C4314.15,1824.23,4493.67,1867.49,4852.7,1954Z" transform="translate(0.5 0.5)"/><path class="cls-3" d="M3445.73,1654.73" transform="translate(0.5 0.5)"/><path class="cls-3" d="M5009.36,2818.36" transform="translate(0.5 0.5)"/><ellipse class="cls-4" cx="2493.97" cy="3264.32" rx="218.18" ry="266.5"/><circle class="cls-3" cx="2597.97" cy="3264.32" r="75"/><path class="cls-5" d="M2868.71,3759.93a1108,1108,0,0,1,178.19-86.14c95.71-36,122.16-30.5,138.46-23.36,59.34,26,70.87,111.74,72.73,127.28" transform="translate(0.5 0.5)"/><path class="cls-5" d="M3002.18,1900.25c67.64-69.52,325.68-315.49,856.58-428.16,444.26-94.29,827.83-41.81,968.51-18.09" transform="translate(0.5 0.5)"/><path class="cls-5" d="M2899.21,1910.27c-44.56-96.87-147-277.87-375.7-446.45C2282.31,1286,2023.1,1212.25,1890.91,1182" transform="translate(0.5 0.5)"/><path class="cls-6" d="M2236.36,2799.73c50.6-16.38,153.6-41.33,272.73-9.09,248.44,67.23,337.35,321,345.46,345.45" transform="translate(0.5 0.5)"/><ellipse class="cls-4" cx="3568.68" cy="3264.32" rx="218.18" ry="266.5"/><circle class="cls-3" cx="3643.68" cy="3264.32" r="75"/><path class="cls-6" d="M3824.2,2734.16c-49.73-7.79-150.43-15.88-263.23,31.39-235.24,98.56-305.56,346.74-311.89,370.54" transform="translate(0.5 0.5)"/><path class="cls-6" d="M2236.36,2799.73c50.6-16.38,153.6-41.33,272.73-9.09,248.44,67.23,337.35,321,345.46,345.45" transform="translate(0.5 0.5)"/><path class="cls-6" d="M2236.36,2799.73c50.6-16.38,153.6-41.33,272.73-9.09,248.44,67.23,337.35,321,345.46,345.45" transform="translate(0.5 0.5)"/><rect class="cls-7" x="0.5" y="0.5" width="6400" height="5127.63"/></svg>