<svg xmlns="http://www.w3.org/2000/svg" xmlns:xlink="http://www.w3.org/1999/xlink" viewBox="20 20 6365 5100"><defs><style>.cls-1{fill:url(#linear-gradient);}.cls-2{fill:#7dc273;}.cls-3{fill:#231815;}.cls-3,.cls-4,.cls-5,.cls-6,.cls-7{stroke:#231815;stroke-miterlimit:10;}.cls-4{fill:#fff;}.cls-5,.cls-6,.cls-7{fill:none;}.cls-5{stroke-width:14px;}.cls-6{stroke-width:10px;}</style><linearGradient id="linear-gradient" x1="1570.38" y1="3396.76" x2="4664.41" y2="3396.76" gradientUnits="userSpaceOnUse"><stop offset="0" stop-color="#ec779a"/><stop offset="0.36" stop-color="#ec7998"/><stop offset="0.54" stop-color="#ed8192"/><stop offset="0.68" stop-color="#ed8e87"/><stop offset="0.8" stop-color="#efa177"/><stop offset="0.9" stop-color="#f0b963"/><stop offset="0.99" stop-color="#f2d64b"/><stop offset="1" stop-color="#f2d849"/></linearGradient></defs><g id="Layer_2" data-name="Layer 2"><g id="Layer_1-2" data-name="Layer 1"><path class="cls-1" d="M4645.46,3432.5c15,91.94,101.26,681.5-277.27,1086.36-334.86,358.17-827.38,351.36-1254.54,345.46-423.68-5.86-929.86-12.85-1263.64-390.91-331-374.93-283.54-878.16-268.18-1040.91C1633.71,2882.67,1983.5,2162.83,2650,1973.41,3556.88,1715.67,4508.87,2593.71,4645.46,3432.5Z"/><path class="cls-2" d="M2828.05,1028c261,303.41,298.79,798,145.91,899.76-195.33,130-589.44-456.24-1555-781.57-540.78-182.21-835.5-139.29-836.36-200C580.57,802.49,2227.35,329.7,2828.05,1028Z"/><path class="cls-2" d="M4782.59,1909.77c702.21,206.65,858.25,363.45,1000,272.73,207.47-132.78,199.42-677.42-36.36-1036.36C5388.58,601.68,4509.14,487.78,3891.68,755.23,3220.38,1046,2855.28,1789,2974,1927.71c93.65,109.44,438.75-215.54,1081.36-181.57C4264,1757.17,4436.89,1808,4782.59,1909.77Z"/><ellipse class="cls-3" cx="2493.97" cy="3264.32" rx="218.18" ry="266.5"/><circle class="cls-4" cx="2597.97" cy="3264.32" r="75"/><path class="cls-5" d="M2869.21,3760.43a1108,1108,0,0,1,178.19-86.14c95.71-36,122.16-30.5,138.46-23.36,59.34,26,70.87,111.74,72.73,127.28"/><path class="cls-5" d="M3002.68,1900.75c61.58-104.81,296.53-475.65,779.91-645.52,404.49-142.16,753.73-63,881.82-27.28"/><path class="cls-5" d="M2899.71,1910.77c-33.3-96.87-109.88-277.87-280.76-446.45C2438.71,1286.5,2245,1212.75,2146.23,1182.5"/><path class="cls-6" d="M2236.86,2800.23c50.6-16.38,153.6-41.33,272.73-9.09,248.44,67.23,337.35,321,345.46,345.45"/><ellipse class="cls-3" cx="3568.68" cy="3264.32" rx="218.18" ry="266.5"/><circle class="cls-4" cx="3643.68" cy="3264.32" r="75"/><path class="cls-6" d="M3824.7,2734.66c-49.73-7.79-150.43-15.88-263.23,31.39-235.24,98.56-305.56,346.74-311.89,370.54"/><path class="cls-6" d="M2236.86,2800.23c50.6-16.38,153.6-41.33,272.73-9.09,248.44,67.23,337.35,321,345.46,345.45"/><path class="cls-6" d="M2236.86,2800.23c50.6-16.38,153.6-41.33,272.73-9.09,248.44,67.23,337.35,321,345.46,345.45"/><rect class="cls-7" x="0.5" y="0.5" width="6400" height="5127.63"/></g></g></svg>