<svg id="Layer_1" data-name="Layer 1" xmlns="http://www.w3.org/2000/svg" xmlns:xlink="http://www.w3.org/1999/xlink" viewBox="0 0 6401 5128.63"><defs><style>.cls-1,.cls-2,.cls-3,.cls-4,.cls-5,.cls-6,.cls-7,.cls-8,.cls-9{stroke:#231815;stroke-miterlimit:10;}.cls-1{fill:url(#linear-gradient);}.cls-2{fill:#7dc273;}.cls-3{fill:#fff;}.cls-4{fill:#231815;}.cls-5,.cls-8,.cls-9{fill:none;}.cls-5{stroke-width:14px;}.cls-6{fill:#e4007f;}.cls-7{fill:#898989;}.cls-7,.cls-8{stroke-width:10px;}</style><linearGradient id="linear-gradient" x1="1569.88" y1="3223.07" x2="4832.74" y2="3223.07" gradientUnits="userSpaceOnUse"><stop offset="0" stop-color="#b0d79f"/><stop offset="0.25" stop-color="#acd6a2"/><stop offset="0.49" stop-color="#a0d3aa"/><stop offset="0.73" stop-color="#8dceb7"/><stop offset="0.97" stop-color="#72c6ca"/><stop offset="1" stop-color="#6dc5cd"/></linearGradient></defs><path class="cls-1" d="M4812.76,3254.6c15.79,81.1,106.78,601.15-292.4,958.29-353.13,315.94-872.53,309.94-1323,304.73-446.8-5.16-980.6-11.33-1332.59-344.82-349.08-330.74-299-774.64-282.82-918.2,54.71-485,423.6-1120,1126.47-1287.08C3664.78,1740.16,4668.72,2514.69,4812.76,3254.6Z" transform="translate(-0.81 0.5)"/><path class="cls-2" d="M2807.43,1172.18c283.28,255.59,324.28,672.25,158.36,757.94-212,109.5-639.7-384.32-1687.61-658.38-586.9-153.5-906.76-117.34-907.69-168.48C368.3,982.25,2155.51,584,2807.43,1172.18Z" transform="translate(-0.81 0.5)"/><path class="cls-3" d="M3536.64,1600.18" transform="translate(-0.81 0.5)"/><path class="cls-2" d="M4876,1946.89c738.23,180.66,902.27,317.73,1051.29,238.42,218.12-116.08,209.65-592.21-38.22-906-376-476-1300.54-575.54-1949.68-341.73-705.74,254.19-1089.56,903.74-964.79,1025,98.45,95.67,461.25-188.43,1136.82-158.73C4330.84,1813.48,4512.56,1858,4876,1946.89Z" transform="translate(-0.81 0.5)"/><path class="cls-3" d="M3445.73,1654.73" transform="translate(-0.81 0.5)"/><path class="cls-3" d="M5009.36,2818.36" transform="translate(-0.81 0.5)"/><ellipse class="cls-4" cx="2493.47" cy="3263.82" rx="266.5" ry="218.18" transform="translate(-1274.37 4901.21) rotate(-76.11)"/><circle class="cls-3" cx="2596.66" cy="3264.32" r="75"/><path class="cls-5" d="M3002.18,1900.25c65-86.41,312.82-392.17,822.75-532.23,426.71-117.21,795.13-52,930.26-22.49" transform="translate(-0.81 0.5)"/><path class="cls-5" d="M2899.21,1910.27c-41.34-90-136.43-258.2-348.6-414.83-223.81-165.23-464.31-233.76-587-261.86" transform="translate(-0.81 0.5)"/><ellipse class="cls-4" cx="3568.18" cy="3263.82" rx="218.18" ry="266.5" transform="translate(-534.77 703.68) rotate(-10.48)"/><circle class="cls-3" cx="3444.92" cy="3264.32" r="75"/><ellipse class="cls-6" cx="2199.19" cy="3659.32" rx="236.36" ry="122.73"/><ellipse class="cls-6" cx="3972.18" cy="3659.32" rx="236.36" ry="122.73"/><path class="cls-7" d="M2836.13,3735.63c9.68,131.53,124.16,228.25,245.69,218.64,109.15-8.63,201-101.24,208.86-218.64Z" transform="translate(-0.81 0.5)"/><path class="cls-8" d="M2133.12,2864.57c2.58-13.69,28-138.06,138.88-189.52,105.33-48.9,243.51-11.42,325.47,97.64" transform="translate(-0.81 0.5)"/><path class="cls-8" d="M3536.64,2810.46c96.16-117.3,241.07-158.07,347.16-108.49,75.67,35.36,110,106.59,121.86,135.27" transform="translate(-0.81 0.5)"/><rect class="cls-9" x="0.5" y="0.5" width="6400" height="5127.63"/></svg>