<svg xmlns="http://www.w3.org/2000/svg" xmlns:xlink="http://www.w3.org/1999/xlink" viewBox="20 20 6365 5100"><defs><style>.cls-1{fill:url(#linear-gradient);}.cls-2{fill:#7dc273;}.cls-3{fill:#231815;}.cls-3,.cls-4,.cls-5,.cls-6,.cls-8,.cls-9{stroke:#231815;stroke-miterlimit:10;}.cls-4{fill:#fff;}.cls-5,.cls-6,.cls-9{fill:none;}.cls-5{stroke-width:14px;}.cls-6{stroke-width:10px;}.cls-7{fill:#3e3a39;}.cls-8{fill:#e4007f;}</style><linearGradient id="linear-gradient" x1="1570.38" y1="3300.36" x2="4765.05" y2="3300.36" gradientUnits="userSpaceOnUse"><stop offset="0" stop-color="#9090c6"/><stop offset="0.19" stop-color="#9492c6"/><stop offset="0.39" stop-color="#a199c7"/><stop offset="0.6" stop-color="#b7a3c9"/><stop offset="0.81" stop-color="#d4b2cb"/><stop offset="1" stop-color="#f5c2cd"/></linearGradient></defs><g id="Layer_2" data-name="Layer 2"><g id="Layer_1-2" data-name="Layer 1"><path class="cls-1" d="M4745.49,3333.09c15.46,84.19,104.55,624-286.29,994.73-345.75,328-854.3,321.72-1295.35,316.32-437.46-5.36-960.11-11.76-1304.74-357.94-341.79-343.31-292.76-804.09-276.91-953.11,53.57-503.46,414.74-1162.58,1102.93-1336C3621.5,1761.07,4604.46,2565,4745.49,3333.09Z"/><path class="cls-2" d="M2815.06,1217.13c275.39,243.86,315.25,641.41,154,723.17-206.09,104.47-621.9-366.69-1640.64-628.18C757.82,1165.67,446.86,1200.17,446,1151.37,443.82,1035.91,2181.29,655.91,2815.06,1217.13Z"/><path class="cls-2" d="M4750.83,1979.38c690,181.36,895.36,502.08,1034.66,422.46,203.87-116.53,143.94-777.63-87.75-1092.65C5346.3,831.36,4485.09,840.61,3878.35,1075.33c-659.66,255.18-1021.39,798.06-904.76,919.79,92,96.05,431.13-189.16,1062.59-159.35C4241.27,1845.45,4411.12,1890.09,4750.83,1979.38Z"/><ellipse class="cls-3" cx="2493.97" cy="3273.28" rx="266.5" ry="218.18" transform="translate(-1282.36 4908.39) rotate(-76.11)"/><circle class="cls-4" cx="2597.97" cy="3273.28" r="75"/><path class="cls-5" d="M3002.68,1909.71c61.58-104.8,382.65-348.41,879.64-473,400-100.27,962.81,27.61,1090.91,63.37"/><path class="cls-5" d="M2870.71,1919.73C2825,1831.27,2720,1666,2485.49,1512c-247.31-162.39-513.08-229.74-648.63-257.37"/><ellipse class="cls-3" cx="3568.68" cy="3273.28" rx="218.18" ry="266.5" transform="translate(-535.67 703.43) rotate(-10.48)"/><circle class="cls-4" cx="3446.23" cy="3273.28" r="75"/><path class="cls-6" d="M3737.13,2650.8c-44.51-12.46-213.1-106.53-231.12,2.22-41,247.65-219,327.66-253.3,315.83"/><path class="cls-6" d="M2341.3,2785.56c.29-35.94,5.6-105.32,46.11-157.92,84.48-109.69,244-45,259.22-38.49"/><path class="cls-7" d="M3127.77,3891c-40.95,85.71-38.41,114-63.87,123.69-50.66,19.34-153.88-57-150.39-122.73,5.26-99.16,252.95-165.54,277.9-128.23C3200.85,3777.85,3172.34,3797.73,3127.77,3891Z"/><ellipse class="cls-8" cx="2200.5" cy="3668.28" rx="236.36" ry="122.73"/><ellipse class="cls-8" cx="3973.49" cy="3668.28" rx="236.36" ry="122.73"/><rect class="cls-9" x="0.5" y="0.5" width="6400" height="5127.63"/></g></g></svg>