<svg id="Layer_1" data-name="Layer 1" xmlns="http://www.w3.org/2000/svg" xmlns:xlink="http://www.w3.org/1999/xlink" viewBox="0 0 6401 5128.63"><defs><style>.cls-1,.cls-2,.cls-3,.cls-4,.cls-5,.cls-6,.cls-7{stroke:#231815;stroke-miterlimit:10;}.cls-1{fill:url(#linear-gradient);}.cls-2{fill:#7dc273;}.cls-3{fill:#fff;}.cls-4{fill:#231815;}.cls-5,.cls-6,.cls-7{fill:none;}.cls-5{stroke-width:14px;}.cls-6{stroke-width:10px;}</style><linearGradient id="linear-gradient" x1="1569.88" y1="3396.26" x2="4663.91" y2="3396.26" gradientUnits="userSpaceOnUse"><stop offset="0" stop-color="#ec779a"/><stop offset="0.36" stop-color="#ec7998"/><stop offset="0.54" stop-color="#ed8192"/><stop offset="0.68" stop-color="#ed8e87"/><stop offset="0.8" stop-color="#efa177"/><stop offset="0.9" stop-color="#f0b963"/><stop offset="0.99" stop-color="#f2d64b"/><stop offset="1" stop-color="#f2d849"/></linearGradient></defs><path class="cls-1" d="M4645,3432c15,91.94,101.26,681.5-277.27,1086.36-334.86,358.17-827.38,351.36-1254.54,345.46-423.68-5.86-929.86-12.85-1263.64-390.91C1518.49,4098,1566,3594.75,1581.33,3432c51.88-549.83,401.67-1269.67,1068.18-1459.09C3556.38,1715.17,4508.37,2593.21,4645,3432Z" transform="translate(0.5 0.5)"/><path class="cls-2" d="M2827.55,1027.45c261,303.41,298.79,798,145.91,899.76-195.33,130-589.44-456.24-1555-781.57-540.78-182.21-835.5-139.29-836.36-200C580.07,802,2226.85,329.2,2827.55,1027.45Z" transform="translate(0.5 0.5)"/><path class="cls-3" d="M3536.64,1600.18" transform="translate(0.5 0.5)"/><path class="cls-2" d="M4782.09,1909.27c702.21,206.65,858.25,363.45,1000,272.73,207.47-132.78,199.42-677.42-36.36-1036.36C5388.08,601.18,4508.64,487.28,3891.18,754.73c-671.3,290.77-1036.4,1033.78-917.72,1172.48,93.65,109.44,438.75-215.54,1081.36-181.57C4263.53,1756.67,4436.39,1807.54,4782.09,1909.27Z" transform="translate(0.5 0.5)"/><path class="cls-3" d="M3445.73,1654.73" transform="translate(0.5 0.5)"/><path class="cls-3" d="M5009.36,2818.36" transform="translate(0.5 0.5)"/><ellipse class="cls-4" cx="2493.97" cy="3264.32" rx="218.18" ry="266.5"/><circle class="cls-3" cx="2597.97" cy="3264.32" r="75"/><path class="cls-5" d="M2868.71,3759.93a1108,1108,0,0,1,178.19-86.14c95.71-36,122.16-30.5,138.46-23.36,59.34,26,70.87,111.74,72.73,127.28" transform="translate(0.5 0.5)"/><path class="cls-5" d="M3002.18,1900.25c61.58-104.81,296.53-475.65,779.91-645.52,404.49-142.16,753.73-63,881.82-27.28" transform="translate(0.5 0.5)"/><path class="cls-5" d="M2899.21,1910.27c-33.3-96.87-109.88-277.87-280.76-446.45C2438.21,1286,2244.51,1212.25,2145.73,1182" transform="translate(0.5 0.5)"/><path class="cls-6" d="M2236.36,2799.73c50.6-16.38,153.6-41.33,272.73-9.09,248.44,67.23,337.35,321,345.46,345.45" transform="translate(0.5 0.5)"/><ellipse class="cls-4" cx="3568.68" cy="3264.32" rx="218.18" ry="266.5"/><circle class="cls-3" cx="3643.68" cy="3264.32" r="75"/><path class="cls-6" d="M3824.2,2734.16c-49.73-7.79-150.43-15.88-263.23,31.39-235.24,98.56-305.56,346.74-311.89,370.54" transform="translate(0.5 0.5)"/><path class="cls-6" d="M2236.36,2799.73c50.6-16.38,153.6-41.33,272.73-9.09,248.44,67.23,337.35,321,345.46,345.45" transform="translate(0.5 0.5)"/><path class="cls-6" d="M2236.36,2799.73c50.6-16.38,153.6-41.33,272.73-9.09,248.44,67.23,337.35,321,345.46,345.45" transform="translate(0.5 0.5)"/><rect class="cls-7" x="0.5" y="0.5" width="6400" height="5127.63"/></svg>