<?xml version="1.0" encoding="UTF-8" standalone="no"?>
<svg
   xmlns:dc="http://purl.org/dc/elements/1.1/"
   xmlns:cc="http://creativecommons.org/ns#"
   xmlns:rdf="http://www.w3.org/1999/02/22-rdf-syntax-ns#"
   xmlns:svg="http://www.w3.org/2000/svg"
   xmlns="http://www.w3.org/2000/svg"
   xmlns:sodipodi="http://sodipodi.sourceforge.net/DTD/sodipodi-0.dtd"
   xmlns:inkscape="http://www.inkscape.org/namespaces/inkscape"
   width="1920px"
   height="1080px"
   viewBox="0 0 1920 1080"
   version="1.1"
   id="SVGRoot"
   sodipodi:docname="backdrop4.svg"
   inkscape:version="1.0.2-2 (e86c870879, 2021-01-15)">
  <sodipodi:namedview
     pagecolor="#ffffff"
     bordercolor="#666666"
     borderopacity="1"
     objecttolerance="10"
     gridtolerance="10"
     guidetolerance="10"
     inkscape:pageopacity="0"
     inkscape:pageshadow="2"
     inkscape:window-width="1920"
     inkscape:window-height="1017"
     id="namedview108"
     showgrid="false"
     inkscape:zoom="0.38375274"
     inkscape:cx="1453.2837"
     inkscape:cy="833.83785"
     inkscape:window-x="-8"
     inkscape:window-y="-8"
     inkscape:window-maximized="1"
     inkscape:current-layer="layer1" />
  <defs
     id="defs4250" />
  <metadata
     id="metadata4253">
    <rdf:RDF>
      <cc:Work
         rdf:about="">
        <dc:format>image/svg+xml</dc:format>
        <dc:type
           rdf:resource="http://purl.org/dc/dcmitype/StillImage" />
        <dc:title></dc:title>
      </cc:Work>
    </rdf:RDF>
  </metadata>
  <g
     id="layer1"
     style="display:inline">
    <rect
       style="fill:#aaccff;stroke:#aaccff;stroke-width:4;stroke-opacity:1"
       id="rect4263"
       width="2002.8571"
       height="1097.1428"
       x="-17.142857"
       y="-8.5714283" />
    <path
       style="fill:none;stroke:#000000;stroke-width:1px;stroke-linecap:butt;stroke-linejoin:miter;stroke-opacity:1"
       d="m 735.39105,1090.9647 c 150.999,-180.29753 348.17625,-321.59581 567.44075,-406.63105 219.2644,-85.03525 460.1515,-113.62728 693.2296,-82.28273 17.5583,2.36126 35.0719,5.05565 52.528,8.08122"
       id="path4881" />
    <path
       style="fill:#aade87;fill-opacity:1;stroke:#000000;stroke-width:1px;stroke-linecap:butt;stroke-linejoin:miter;stroke-opacity:1"
       d="m 735.39105,1090.9647 1250.32315,-2.3933 62.8752,-478.43926"
       id="path4885" />
    <path
       style="fill:#aade87;fill-opacity:1;stroke:#aade87;stroke-width:16.1624;stroke-opacity:1"
       d="M 763.20059,1063.6648 C 787.60437,1034.7374 878.59421,946.65068 917.46718,914.32024 1133.2031,734.89383 1404.4678,623.5621 1688.7396,597.77675 c 53.0016,-4.80759 241.5152,-2.98817 276.2558,2.66625 14.4155,2.3463 15.1523,3.21208 15.1523,17.80676 0,14.4144 -1.0368,15.70216 -17.1726,21.33028 -9.445,3.29435 -285.7447,104.37951 -613.9994,224.63369 -328.2547,120.25418 -597.98317,218.64397 -599.39667,218.64397 -1.41349,0 4.71621,-8.6368 13.62156,-19.1929 z"
       id="path4887" />
    <ellipse
       style="fill:#f2f2f2;fill-opacity:1;stroke:#f2f2f2;stroke-width:28.4327;stroke-miterlimit:4;stroke-dasharray:none;stroke-opacity:1"
       id="path4939"
       ry="29.900871"
       rx="27.616735"
       cy="232.57536"
       cx="1576.313" />
    <ellipse
       style="fill:#f2f2f2;fill-opacity:1;stroke:#f2f2f2;stroke-width:28.4327;stroke-miterlimit:4;stroke-dasharray:none;stroke-opacity:1"
       id="path4939-0"
       ry="29.900871"
       rx="27.616735"
       cy="186.07404"
       cx="1634.062" />
    <ellipse
       style="fill:#f2f2f2;fill-opacity:1;stroke:#f2f2f2;stroke-width:21.9427;stroke-miterlimit:4;stroke-dasharray:none;stroke-opacity:1"
       id="path4939-8"
       ry="22.757673"
       rx="21.610807"
       cy="197.65613"
       cx="1694.8153" />
    <ellipse
       style="fill:#f2f2f2;fill-opacity:1;stroke:#f2f2f2;stroke-width:20.0472;stroke-miterlimit:4;stroke-dasharray:none;stroke-opacity:1"
       id="path4939-3"
       ry="19.414909"
       rx="21.144325"
       cy="213.93137"
       cx="1740.5845" />
    <rect
       style="fill:#f2f2f2;fill-opacity:1;stroke:#f2f2f2;stroke-width:42.381;stroke-miterlimit:4;stroke-dasharray:none;stroke-opacity:1"
       id="rect4988"
       width="179.12418"
       height="18.721464"
       x="1591.4852"
       y="236.19897" />
    <ellipse
       style="fill:#f2f2f2;fill-opacity:1;stroke:#f2f2f2;stroke-width:42.381;stroke-miterlimit:4;stroke-dasharray:none;stroke-opacity:1"
       id="path5068"
       cx="1790.3085"
       cy="245.48463"
       rx="19.699081"
       ry="9.2856655" />
    <ellipse
       style="fill:#ffeeaa;fill-opacity:1;stroke:#ffeeaa;stroke-width:42.381;stroke-miterlimit:4;stroke-dasharray:none;stroke-opacity:1"
       id="path5113"
       cx="1784.9192"
       cy="170.15129"
       rx="47.632671"
       ry="46.307602" />
    <ellipse
       style="display:inline;fill:#f2f2f2;fill-opacity:1;stroke:#f2f2f2;stroke-width:28.4327;stroke-miterlimit:4;stroke-dasharray:none;stroke-opacity:1"
       id="path4939-36"
       ry="29.900871"
       rx="27.616735"
       cy="232.57536"
       cx="1576.313" />
    <ellipse
       style="display:inline;fill:#f2f2f2;fill-opacity:1;stroke:#f2f2f2;stroke-width:28.4327;stroke-miterlimit:4;stroke-dasharray:none;stroke-opacity:1"
       id="path4939-0-1"
       ry="29.900871"
       rx="27.616735"
       cy="186.07404"
       cx="1634.062" />
    <ellipse
       style="display:inline;fill:#f2f2f2;fill-opacity:1;stroke:#f2f2f2;stroke-width:21.9427;stroke-miterlimit:4;stroke-dasharray:none;stroke-opacity:1"
       id="path4939-8-5"
       ry="22.757673"
       rx="21.610807"
       cy="197.65613"
       cx="1694.8153" />
    <ellipse
       style="display:inline;fill:#f2f2f2;fill-opacity:1;stroke:#f2f2f2;stroke-width:20.0472;stroke-miterlimit:4;stroke-dasharray:none;stroke-opacity:1"
       id="path4939-3-1"
       ry="19.414909"
       rx="21.144325"
       cy="213.93137"
       cx="1740.5845" />
    <rect
       style="display:inline;fill:#f2f2f2;fill-opacity:1;stroke:#f2f2f2;stroke-width:42.381;stroke-miterlimit:4;stroke-dasharray:none;stroke-opacity:1"
       id="rect4988-3"
       width="179.12418"
       height="18.721464"
       x="1591.4852"
       y="236.19897" />
    <ellipse
       style="display:inline;fill:#f2f2f2;fill-opacity:1;stroke:#f2f2f2;stroke-width:42.381;stroke-miterlimit:4;stroke-dasharray:none;stroke-opacity:1"
       id="path5068-7"
       cx="1790.3085"
       cy="245.48463"
       rx="19.699081"
       ry="9.2856655" />
    <ellipse
       style="display:inline;fill:#f2f2f2;fill-opacity:1;stroke:#f2f2f2;stroke-width:41.9827;stroke-miterlimit:4;stroke-dasharray:none;stroke-opacity:1"
       id="path4939-1"
       ry="49.874489"
       rx="36.098045"
       cy="246.86133"
       cx="-476.09091"
       transform="scale(-1,1)" />
    <ellipse
       style="display:inline;fill:#f2f2f2;fill-opacity:1;stroke:#f2f2f2;stroke-width:41.9827;stroke-miterlimit:4;stroke-dasharray:none;stroke-opacity:1"
       id="path4939-0-9"
       ry="49.874489"
       rx="36.098045"
       cy="169.29741"
       cx="-400.60678"
       transform="scale(-1,1)" />
    <ellipse
       style="display:inline;fill:#f2f2f2;fill-opacity:1;stroke:#f2f2f2;stroke-width:32.3999;stroke-miterlimit:4;stroke-dasharray:none;stroke-opacity:1"
       id="path4939-8-7"
       ry="37.959671"
       rx="28.247652"
       cy="188.61627"
       cx="-321.19577"
       transform="scale(-1,1)" />
    <ellipse
       style="display:inline;fill:#f2f2f2;fill-opacity:1;stroke:#f2f2f2;stroke-width:29.601;stroke-miterlimit:4;stroke-dasharray:none;stroke-opacity:1"
       id="path4939-3-4"
       ry="32.383961"
       rx="27.637909"
       cy="215.76321"
       cx="-261.37039"
       transform="scale(-1,1)" />
    <rect
       style="display:inline;fill:#f2f2f2;fill-opacity:1;stroke:#f2f2f2;stroke-width:62.5783;stroke-miterlimit:4;stroke-dasharray:none;stroke-opacity:1"
       id="rect4988-82"
       width="234.13455"
       height="31.227297"
       x="-456.25925"
       y="252.90544"
       transform="scale(-1,1)" />
    <ellipse
       style="display:inline;fill:#f2f2f2;fill-opacity:1;stroke:#f2f2f2;stroke-width:62.5783;stroke-miterlimit:4;stroke-dasharray:none;stroke-opacity:1"
       id="path5068-6"
       cx="-196.37576"
       cy="268.39395"
       rx="25.748817"
       ry="15.488439"
       transform="scale(-1,1)" />
    <ellipse
       style="display:inline;fill:#f2f2f2;fill-opacity:1;stroke:#f2f2f2;stroke-width:41.9827;stroke-miterlimit:4;stroke-dasharray:none;stroke-opacity:1"
       id="path4939-36-8"
       ry="49.874489"
       rx="36.098045"
       cy="246.86133"
       cx="-476.09091"
       transform="scale(-1,1)" />
    <ellipse
       style="display:inline;fill:#f2f2f2;fill-opacity:1;stroke:#f2f2f2;stroke-width:43.2298;stroke-miterlimit:4;stroke-dasharray:none;stroke-opacity:1"
       id="path4939-0-1-4"
       ry="53.811153"
       rx="35.474483"
       cy="173.85764"
       cx="-400.60678"
       transform="scale(-1,1)" />
    <ellipse
       style="display:inline;fill:#f2f2f2;fill-opacity:1;stroke:#f2f2f2;stroke-width:32.3999;stroke-miterlimit:4;stroke-dasharray:none;stroke-opacity:1"
       id="path4939-8-5-5"
       ry="37.959671"
       rx="28.247652"
       cy="188.61627"
       cx="-321.19577"
       transform="scale(-1,1)" />
    <ellipse
       style="display:inline;fill:#f2f2f2;fill-opacity:1;stroke:#f2f2f2;stroke-width:29.601;stroke-miterlimit:4;stroke-dasharray:none;stroke-opacity:1"
       id="path4939-3-1-2"
       ry="32.383961"
       rx="27.637909"
       cy="215.76321"
       cx="-261.37039"
       transform="scale(-1,1)" />
    <rect
       style="display:inline;fill:#f2f2f2;fill-opacity:1;stroke:#f2f2f2;stroke-width:62.4699;stroke-miterlimit:4;stroke-dasharray:none;stroke-opacity:1"
       id="rect4988-3-5"
       width="234.26265"
       height="31.101873"
       x="-456.32327"
       y="252.86115"
       transform="scale(-1,1)" />
    <ellipse
       style="display:inline;fill:#f2f2f2;fill-opacity:1;stroke:#f2f2f2;stroke-width:62.5783;stroke-miterlimit:4;stroke-dasharray:none;stroke-opacity:1"
       id="path5068-7-1"
       cx="-196.37576"
       cy="268.39395"
       rx="25.748817"
       ry="15.488439"
       transform="scale(-1,1)" />
  </g>
  <g
     id="layer2"
     style="display:inline">
    <path
       style="fill:#d38d5f;stroke:#d38d5f;stroke-width:1.72639;stroke-linecap:butt;stroke-linejoin:miter;stroke-miterlimit:4;stroke-dasharray:none;stroke-opacity:1"
       d="m 1670.9811,587.80284 c -75.5684,4.83414 -149.8804,28.24697 -214.5721,67.60335 -7.3389,4.46473 -14.5555,9.13044 -21.639,13.99012"
       id="path1235" />
    <path
       style="fill:#d38d5f;stroke:#d38d5f;stroke-width:1.83335;stroke-linecap:butt;stroke-linejoin:miter;stroke-miterlimit:4;stroke-dasharray:none;stroke-opacity:1"
       d="m 1766.1593,587.88289 c -82.0232,4.669 -162.873,28.81964 -234.0186,69.90371 -7.9913,4.6147 -15.8616,9.43897 -23.6001,14.46616"
       id="path1235-0" />
    <path
       style="fill:#d38d5f;stroke:#d38d5f;stroke-width:1.69341;stroke-linecap:butt;stroke-linejoin:miter;stroke-miterlimit:4;stroke-dasharray:none;stroke-opacity:1"
       d="m 1867.5692,587.83968 c -71.9702,5.40197 -142.4748,29.30659 -202.8898,68.78988 -6.9561,4.54602 -13.7802,9.29391 -20.4609,14.23566"
       id="path1235-0-9" />
    <rect
       style="fill:#d38d5f;stroke:#d38d5f;stroke-width:0.704;stroke-miterlimit:4;stroke-dasharray:none;stroke-opacity:1"
       id="rect1395"
       width="196.5881"
       height="0.036839999"
       x="1670.9811"
       y="587.80286" />
    <rect
       style="fill:#d38d5f;stroke:#d38d5f;stroke-width:0.704;stroke-miterlimit:4;stroke-dasharray:none;stroke-opacity:1"
       id="rect1397"
       width="209.4485"
       height="1.46891"
       x="1434.77"
       y="669.3963" />
    <path
       style="fill:#d38d5f;stroke:#d38d5f;stroke-width:1.00571;stroke-miterlimit:4;stroke-dasharray:none;stroke-opacity:1"
       d=""
       id="path1399" />
    <path
       style="fill:#d38d5f;stroke:#d38d5f;stroke-width:1.00571;stroke-miterlimit:4;stroke-dasharray:none;stroke-opacity:1"
       d="m 1444.5636,666.8159 c 1.1785,-0.45147 49.3345,-17.1135 107.0133,-37.02674 l 104.8704,-36.20587 21.4011,-2.1462 c 11.7707,-1.1804 27.9004,-2.09732 35.8439,-2.0376 l 14.4427,0.10859 -20,3.46776 c -41.0387,7.11561 -82.9685,19.40822 -119.7696,35.11301 -24.354,10.39304 -34.0896,15.27015 -57.9097,29.01022 l -18.6593,10.76326 -34.6879,-0.11278 c -19.0783,-0.062 -33.7235,-0.48217 -32.5449,-0.93365 z"
       id="path1401" />
    <path
       style="fill:#d38d5f;stroke:#d38d5f;stroke-width:1.00571;stroke-miterlimit:4;stroke-dasharray:none;stroke-opacity:1"
       d="m 1526.7064,667.07694 c 0.7857,-0.30791 54.5293,-17.93573 119.4302,-39.17294 l 118.0017,-38.6131 36.284,0.1282 c 36.0417,0.12734 36.2078,0.14186 24.8556,2.17443 -56.4184,10.10146 -114.1749,33.0065 -161.4286,64.0192 l -18.5714,12.18847 -60,-0.0822 c -33,-0.0452 -59.3572,-0.33414 -58.5715,-0.64204 z"
       id="path1403" />
    <path
       style="fill:#d38d5f;stroke:#d38d5f;stroke-width:1.00571;stroke-miterlimit:4;stroke-dasharray:none;stroke-opacity:1"
       d="m 1513.135,668.77547 c 1.9643,-1.05952 8.7143,-5.01048 15,-8.77992 19.8833,-11.92372 69.2874,-35.71657 76.7601,-36.96743 0.9962,-0.16676 3.097,-0.98742 4.6685,-1.82368 3.5952,-1.91329 28.0038,-10.30454 31.6027,-10.86448 1.4756,-0.22958 3.3442,-0.83096 4.1524,-1.33638 5.0092,-3.1326 74.6791,-17.75417 86.3877,-18.13012 1.1786,-0.0379 7.2857,-0.69617 13.5715,-1.46294 11.3079,-1.37942 19.9052,-1.79109 17.1428,-0.82088 -0.7857,0.27597 -14.6071,4.7646 -30.7143,9.97475 -16.1071,5.21015 -62.7143,20.41498 -103.5714,33.78852 -40.8571,13.37354 -82.3214,26.92799 -92.1429,30.12101 -9.8214,3.19301 -18.0714,6.3545 -18.3333,7.02552 -0.2619,0.67102 -2.1905,1.21607 -4.2857,1.21123 l -3.8095,-0.009 z"
       id="path1405" />
    <path
       style="fill:#d38d5f;stroke:#d38d5f;stroke-width:1.00571;stroke-miterlimit:4;stroke-dasharray:none;stroke-opacity:1"
       d="m 1508.8493,670.47205 c 0,-0.64963 0.6738,-1.18115 1.4974,-1.18115 0.8236,0 8.0557,-3.89848 16.0714,-8.66329 18.9164,-11.24454 55.9072,-29.30299 76.7169,-37.45224 42.2634,-16.55068 86.9811,-27.59992 134.2857,-33.18049 27.6297,-3.2595 28.6592,-2.61324 7.1429,4.48384 -20.0132,6.60127 -30.8465,10.15285 -152.1429,49.87846 -40.0714,13.12374 -73.1786,24.33524 -73.5714,24.91446 -1.0345,1.52522 -10,2.60145 -10,1.20041 z"
       id="path1407" />
    <path
       style="fill:#d38d5f;stroke:#d38d5f;stroke-width:0.251429;stroke-miterlimit:4;stroke-dasharray:none;stroke-opacity:1"
       d="m 1508.6591,672.05558 c -0.1937,-0.36175 -0.2506,-0.75921 -0.1265,-0.88326 0.124,-0.12403 -16.4352,-0.22552 -36.7983,-0.22552 h -37.0238 v -1.21231 c 0,-1.17793 0.1848,-1.33347 6.5178,-5.48545 18.9174,-12.40233 35.9592,-22.05093 55.6021,-31.48033 51.4504,-24.69841 108.2665,-40.23971 163.9515,-44.84686 3.6339,-0.30065 7.3706,-0.61939 8.3036,-0.70831 0.95,-0.0905 1.6964,-0.0119 1.6964,0.17865 0,0.39902 83.8722,0.41822 90.5357,0.0207 2.3572,-0.14061 4.4726,-0.11817 4.701,0.0499 0.2285,0.16802 23.1302,0.28063 50.8929,0.25024 27.7627,-0.0304 50.5579,0.0821 50.6561,0.24996 0.098,0.16788 -0.7053,0.48161 -1.7857,0.69718 -1.0803,0.21557 -4.4553,1.31717 -7.5,2.448 -3.0446,1.13083 -36.7946,13.67598 -75,27.8781 -38.2053,14.20212 -84.2462,31.31609 -102.3129,38.03103 -30.8801,11.47732 -34.4222,12.83947 -35.396,13.61182 -0.2132,0.16904 -30.3471,0.34985 -66.9643,0.4018 l -66.5768,0.0944 -1.5104,0.79397 c -1.4493,0.7618 -1.5247,0.76732 -1.8624,0.13624 z m 142.8371,-7.25085 c 6.572,-4.64928 18.3002,-12.32306 25,-16.35758 5.0629,-3.04877 7.4861,-4.65296 5.4259,-3.59194 -3.3356,1.71781 -14.3852,8.68439 -28.6373,18.05516 l -8.0328,5.28162 -58.0386,-0.21801 c -37.3894,-0.14044 -58.657,-0.34817 -59.7766,-0.58386 -1.5389,-0.32395 -2.0504,-0.25369 -4.4643,0.61327 l -2.7263,0.97912 62.0536,0.0903 c 45.3727,0.066 62.0535,0.19742 62.0535,0.48882 0,0.21919 0.5224,0.006 1.1608,-0.47375 0.6384,-0.47975 3.3303,-2.40717 5.9821,-4.28314 z m -140.5357,3.83353 c 0.9222,-0.42228 -2.2604,-0.49645 -22.8572,-0.53269 -23.1342,-0.0407 -43.2304,-0.44878 -43.6684,-0.88675 -0.1169,-0.11687 -0.062,-0.36266 0.1212,-0.5462 0.2869,-0.28691 24.3022,-8.64683 97.4758,-33.93214 31.0983,-10.74609 76.0878,-26.2744 95.1786,-32.8513 l 19.4643,-6.70557 13.3928,-1.30496 c 7.3661,-0.71772 16.6072,-1.55224 20.5357,-1.85449 8.9056,-0.68515 37.3215,-1.12842 37.3215,-0.58219 0,0.46065 0.5112,0.35433 -13.2143,2.74836 -16.0492,2.79934 -18.0168,3.16752 -17.6253,3.29805 0.192,0.064 3.4941,-0.44223 7.338,-1.12495 10.7404,-1.90763 22.7092,-3.63766 33.323,-4.8167 5.3036,-0.58915 10.2054,-1.13398 10.8929,-1.21074 0.6875,-0.0768 -16.8304,-0.122 -38.9286,-0.10055 -36.4015,0.0353 -40.3632,0.095 -42.1429,0.63411 -1.0803,0.32731 -5.9821,1.98544 -10.8928,3.68475 -10.2429,3.54447 -24.057,8.32002 -38.2153,13.21106 -5.4018,1.86607 -14.2007,4.90631 -19.5531,6.75608 -5.3524,1.84977 -43.562,15.04597 -84.9102,29.3249 -41.3482,14.27893 -75.7411,26.25902 -76.4286,26.62243 -1.2234,0.64671 -0.4685,0.66074 35.5357,0.66042 30.4364,-2.7e-4 36.9707,-0.085 37.8572,-0.49093 z m 11.565,-6.1555 c 2.8714,-1.67435 5.3814,-3.21062 5.5778,-3.41394 0.4711,-0.48753 0.6968,-0.60972 -6.7857,3.67201 -6.3109,3.61128 -8.6717,5.12279 -5.5778,3.5711 0.8607,-0.43169 3.9143,-2.15481 6.7857,-3.82917 z m 28.2564,-3.67882 c 0.6529,-0.4219 0.089,-0.4219 -0.8928,0 -0.471,0.20238 -0.5318,0.31362 -0.1786,0.32657 0.2946,0.0108 0.7768,-0.13616 1.0714,-0.32657 z m -11.0714,-6.16751 c 14.4263,-7.97827 39.3755,-20.01666 54.0167,-26.06397 1.9237,-0.79455 3.4375,-1.5048 3.3639,-1.57834 -0.1722,-0.17223 -9.55,3.7473 -20.2378,8.45856 -9.5693,4.21826 -23.3005,11.00958 -31.4285,15.54426 -9.8542,5.49775 -16.7857,9.49873 -16.7857,9.689 0,0.10223 0.7634,-0.26162 1.6964,-0.80856 0.933,-0.54694 5.1518,-2.90537 9.375,-5.24095 z m 73.315,-14.21735 c 33.6321,-11.01524 68.1403,-22.31904 76.685,-25.11955 8.5446,-2.80051 28.762,-9.41499 44.9275,-14.69884 16.1655,-5.28385 29.2358,-9.65898 29.0452,-9.72251 -0.4174,-0.13915 -3.2764,0.77626 -34.687,11.10653 -13.4554,4.42517 -33.3036,10.93969 -44.1071,14.4767 -102.6708,33.61369 -133.8152,43.88273 -133.2922,43.94965 0.1536,0.0196 27.7965,-8.97674 61.4286,-19.99198 z m 72.0421,4.8308 c 0,-0.0982 -0.4821,0.0708 -1.0714,0.37549 -0.5893,0.30473 -1.0714,0.63441 -1.0714,0.73263 0,0.0982 0.4821,-0.0708 1.0714,-0.37549 0.5893,-0.30473 1.0714,-0.63441 1.0714,-0.73263 z m 2.5,-1.42857 c 0,-0.0982 -0.4821,0.0707 -1.0714,0.37549 -0.5893,0.30473 -1.0714,0.63441 -1.0714,0.73262 0,0.0982 0.4821,-0.0708 1.0714,-0.37548 0.5893,-0.30473 1.0714,-0.63442 1.0714,-0.73263 z m 3.2143,-1.78189 c 0,-0.0982 -0.6428,0.14939 -1.4286,0.55023 -0.7857,0.40085 -1.4285,0.80916 -1.4285,0.90738 0,0.0982 0.6428,-0.14939 1.4285,-0.55023 0.7858,-0.40085 1.4286,-0.80916 1.4286,-0.90738 z m 3.9286,-2.14037 c 0,-0.0982 -0.8036,0.22863 -1.7857,0.72632 -0.9822,0.49769 -1.7857,0.98524 -1.7857,1.08346 0,0.0982 0.8035,-0.22863 1.7857,-0.72632 0.9821,-0.49769 1.7857,-0.98525 1.7857,-1.08346 z m 4.6428,-2.49825 c 0,-0.0982 -0.9642,0.3082 -2.1428,0.90314 -1.1786,0.59494 -2.1429,1.16207 -2.1429,1.26028 0,0.0982 0.9643,-0.3082 2.1429,-0.90314 1.1786,-0.59494 2.1428,-1.16207 2.1428,-1.26028 z m 6.9738,-3.67074 c -0.11,-0.10996 -0.3982,-2.3e-4 -0.6404,0.24385 -0.3501,0.35272 -0.3091,0.39374 0.1999,0.19993 0.3522,-0.13412 0.5504,-0.33382 0.4405,-0.44378 z m 9.812,-4.53326 c 0.491,-0.28073 0.7321,-0.51041 0.5357,-0.51041 -0.1965,0 -0.759,0.22968 -1.25,0.51041 -0.4911,0.28072 -0.7322,0.5104 -0.5357,0.5104 0.1964,0 0.7589,-0.22968 1.25,-0.5104 z m -117.5,-2.67858 c 0.2946,-0.19041 0.375,-0.3462 0.1785,-0.3462 -0.1964,0 -0.5982,0.15579 -0.8928,0.3462 -0.2947,0.19042 -0.375,0.34621 -0.1786,0.34621 0.1964,0 0.5982,-0.15579 0.8929,-0.34621 z m 1.7857,-0.71428 c 0.2946,-0.19042 0.375,-0.3462 0.1785,-0.3462 -0.1964,0 -0.5982,0.15578 -0.8928,0.3462 -0.2947,0.19041 -0.375,0.3462 -0.1786,0.3462 0.1964,0 0.5982,-0.15579 0.8929,-0.3462 z m 3.7485,-1.48108 c 0.7865,-0.36461 1.0289,-0.55894 0.5387,-0.43185 -0.4903,0.1271 -1.5349,0.5294 -2.3215,0.89401 -0.7865,0.36461 -1.0289,0.55894 -0.5386,0.43184 0.4902,-0.12709 1.5349,-0.52939 2.3214,-0.894 z m 4.6428,-1.78572 c 0.7866,-0.36461 1.029,-0.55894 0.5387,-0.43184 -0.4902,0.12709 -1.5349,0.52939 -2.3214,0.894 -0.7865,0.36461 -1.0289,0.55895 -0.5387,0.43185 0.4903,-0.12709 1.5349,-0.5294 2.3214,-0.89401 z m 3.7515,-1.43631 c 0.3723,-0.23004 0.2634,-0.25815 -0.3571,-0.0922 -0.4911,0.13135 -1.1339,0.38777 -1.4286,0.56982 -0.3723,0.23004 -0.2634,0.25815 0.3572,0.0922 0.491,-0.13136 1.1339,-0.38778 1.4285,-0.56982 z m 3.9286,-1.42857 c 0.3723,-0.23004 0.2634,-0.25816 -0.3571,-0.0922 -0.4911,0.13135 -1.134,0.38777 -1.4286,0.56982 -0.3723,0.23004 -0.2634,0.25815 0.3571,0.0922 0.4911,-0.13136 1.134,-0.38778 1.4286,-0.56982 z m 6.0714,-2.08261 c 0.2947,-0.19041 0.375,-0.3462 0.1786,-0.3462 -0.1964,0 -0.5982,0.15579 -0.8929,0.3462 -0.2946,0.19042 -0.375,0.34621 -0.1785,0.34621 0.1964,0 0.5982,-0.15579 0.8928,-0.34621 z m 150.7143,-10.53571 c 0.6875,-0.26476 1.0089,-0.48137 0.7143,-0.48137 -0.2946,0 -1.0982,0.21661 -1.7857,0.48137 -0.6875,0.26475 -1.0089,0.48137 -0.7143,0.48137 0.2946,0 1.0982,-0.21662 1.7857,-0.48137 z m 4.6429,-1.42857 c 0.6875,-0.26476 1.0089,-0.48138 0.7143,-0.48138 -0.2947,0 -1.0983,0.21662 -1.7858,0.48138 -0.6875,0.26475 -1.0089,0.48137 -0.7142,0.48137 0.2946,0 1.0982,-0.21662 1.7857,-0.48137 z m 6.3656,-1.8114 c 20.2994,-5.71997 41.993,-10.0115 65.5987,-12.97701 l 5.3571,-0.673 -44.5536,-0.0371 c -24.5044,-0.0204 -44.5535,0.0989 -44.5535,0.2651 0,0.56913 8.7032,0.7692 35.1453,0.80793 26.2295,0.0384 30.7475,0.16393 30.7475,0.8541 0,0.53087 -1.8991,0.99323 -12.3329,3.00257 -5.2116,1.00366 -12.5241,2.54672 -16.25,3.42902 -7.0595,1.67174 -21.902,5.61096 -23.4064,6.21209 -1.7133,0.6846 -0.2018,0.37018 4.2478,-0.88365 z m -113.9624,-0.36866 c -0.1186,-0.11868 -0.4267,-0.13137 -0.6845,-0.0282 -0.2849,0.11401 -0.2003,0.19864 0.2158,0.21578 0.3765,0.0155 0.5874,-0.0689 0.4687,-0.18758 z m 6.0715,-1.42857 c -0.1187,-0.11868 -0.4267,-0.13137 -0.6845,-0.0282 -0.285,0.11401 -0.2003,0.19864 0.2157,0.21577 0.3765,0.0155 0.5875,-0.0689 0.4688,-0.18757 z m 1.4285,-0.35715 c -0.1186,-0.11867 -0.4267,-0.13136 -0.6845,-0.0282 -0.2849,0.11401 -0.2003,0.19863 0.2158,0.21577 0.3765,0.0155 0.5874,-0.0689 0.4687,-0.18758 z m 1.6146,-0.37789 c -0.2455,-0.0991 -0.6473,-0.0991 -0.8928,0 -0.2456,0.0991 -0.045,0.18013 0.4464,0.18013 0.4911,0 0.692,-0.0811 0.4464,-0.18013 z m 1.5997,-0.33639 c -0.1186,-0.11868 -0.4267,-0.13137 -0.6845,-0.0282 -0.2849,0.11401 -0.2003,0.19864 0.2158,0.21578 0.3765,0.0155 0.5874,-0.0689 0.4687,-0.18758 z m 1.4286,-0.35715 c -0.1187,-0.11867 -0.4267,-0.13136 -0.6845,-0.0282 -0.2849,0.11401 -0.2003,0.19864 0.2158,0.21577 0.3764,0.0155 0.5874,-0.0689 0.4687,-0.18758 z m 1.7857,-0.35714 c -0.1187,-0.11867 -0.4267,-0.13136 -0.6845,-0.0282 -0.2849,0.114 -0.2003,0.19863 0.2158,0.21577 0.3765,0.0155 0.5874,-0.0689 0.4687,-0.18758 z m 1.6146,-0.3779 c -0.2455,-0.0991 -0.6473,-0.0991 -0.8929,0 -0.2455,0.0991 -0.045,0.18014 0.4465,0.18014 0.491,0 0.6919,-0.0811 0.4464,-0.18014 z m 1.5997,-0.33638 c -0.1187,-0.11868 -0.4267,-0.13137 -0.6845,-0.0282 -0.2849,0.11401 -0.2003,0.19864 0.2158,0.21577 0.3764,0.0155 0.5874,-0.0689 0.4687,-0.18757 z m 1.7857,-0.35715 c -0.1187,-0.11867 -0.4267,-0.13136 -0.6845,-0.0282 -0.2849,0.11401 -0.2003,0.19863 0.2158,0.21577 0.3765,0.0155 0.5874,-0.0689 0.4687,-0.18758 z m 1.6146,-0.37789 c -0.2455,-0.0991 -0.6473,-0.0991 -0.8929,0 -0.2455,0.0991 -0.045,0.18013 0.4465,0.18013 0.491,0 0.6919,-0.0811 0.4464,-0.18013 z m 1.7857,-0.35715 c -0.2455,-0.0991 -0.6473,-0.0991 -0.8928,0 -0.2456,0.0991 -0.045,0.18014 0.4464,0.18014 0.4911,0 0.692,-0.0811 0.4464,-0.18014 z m 1.7857,-0.35714 c -0.2455,-0.0991 -0.6473,-0.0991 -0.8928,0 -0.2456,0.0991 -0.045,0.18014 0.4464,0.18014 0.4911,0 0.692,-0.0811 0.4464,-0.18014 z m 1.7857,-0.35714 c -0.2455,-0.0991 -0.6473,-0.0991 -0.8928,0 -0.2455,0.0991 -0.045,0.18013 0.4464,0.18013 0.4911,0 0.692,-0.0811 0.4464,-0.18013 z"
       id="path1409" />
    <path
       style="fill:#d38d5f;stroke:#d38d5f;stroke-width:0.251429;stroke-miterlimit:4;stroke-dasharray:none;stroke-opacity:1"
       d="m 1508.5782,671.84871 -0.4109,-0.90191 h -36.7284 -36.7284 v -1.20681 c 0,-1.16259 0.209,-1.34552 5.7021,-4.99114 60.2036,-39.95488 129.2537,-65.61568 201.4407,-74.86052 13.6434,-1.74727 28.5217,-2.99888 29.1776,-2.45451 0.294,0.24397 15.741,0.29474 47.1477,0.15498 25.6907,-0.11432 46.9515,-0.19079 47.2462,-0.16993 0.2946,0.0209 23.3973,0.0912 51.3393,0.15632 27.9419,0.0651 50.8437,0.24769 50.8928,0.40571 0.049,0.15803 -0.5536,0.42238 -1.3393,0.58745 -2.2804,0.4791 -10.4244,3.47422 -96.7857,35.59495 -19.6428,7.30585 -41.2589,15.34082 -48.0357,17.85547 -17.8578,6.62649 -60.1822,22.38567 -67.6414,25.18578 -3.5153,1.3196 -6.8903,2.68976 -7.5,3.0448 -1.0563,0.61509 -4.2494,0.65147 -67.7157,0.77159 l -66.6072,0.12607 -1.5214,0.80181 -1.5214,0.80181 z m 140.3819,-5.30852 c 2.2788,-1.63791 5.1477,-3.65283 6.3754,-4.47759 1.2277,-0.82476 2.2321,-1.57488 2.2321,-1.66693 0,-0.1764 -3.8847,2.28895 -8.9413,5.67434 l -3.0166,2.01964 -44.2889,-0.0373 c -34.8959,-0.0294 -68.64,-0.33096 -75.6997,-0.67651 -0.383,-0.0188 -1.6687,0.33508 -2.8571,0.78629 l -2.1607,0.82038 61.9643,0.18009 c 34.0804,0.099 62.0284,0.21958 62.1068,0.26785 0.078,0.0483 2.0069,-1.25234 4.2857,-2.89026 z m -138.8925,2.28101 c 0.8523,-0.25646 0.8361,-0.27858 -0.3571,-0.48628 -0.6875,-0.11967 -14.9107,-0.30846 -31.6072,-0.41952 -16.6964,-0.11106 -31.1205,-0.29418 -32.0535,-0.40694 -0.9331,-0.11276 -1.6951,-0.38973 -1.6934,-0.61548 0,-0.22576 5.2651,-2.23207 11.6964,-4.45848 59.0398,-20.43837 160.2781,-55.41971 188.3005,-65.06434 l 12.3215,-4.24073 13.0357,-1.25953 c 15.4629,-1.49404 20.0752,-1.86583 29.1071,-2.34628 8.626,-0.45885 29.1072,-0.47958 29.1072,-0.0295 0,0.45745 -0.4391,0.56173 -7.0501,1.67416 -3.19,0.53679 -5.736,1.04003 -5.6577,1.11831 0.078,0.0783 3.6526,-0.34707 7.9429,-0.94523 4.2903,-0.59815 10.6934,-1.41862 14.2292,-1.82325 3.5357,-0.40463 7.3928,-0.87109 8.5714,-1.03659 1.2549,-0.17621 -13.3958,-0.31709 -35.3572,-0.33999 -30.6592,-0.032 -38.0863,0.0528 -40.7142,0.46448 -2.3866,0.37389 -8.7788,2.43513 -24.8215,8.00396 -11.8839,4.12521 -32.616,11.30132 -46.0714,15.94691 -13.4554,4.64558 -28.8036,9.94752 -34.1071,11.78208 -5.3036,1.83455 -16.1518,5.58323 -24.1072,8.33039 -37.7704,13.04295 -46.6675,16.12016 -72.1428,24.95178 -15.0268,5.20939 -28.1157,9.74826 -29.0864,10.08637 -0.9708,0.33811 -1.8279,0.80347 -1.9048,1.03414 -0.1065,0.31941 8.4037,0.41091 35.6935,0.3838 19.7084,-0.0196 36.2352,-0.15651 36.7262,-0.30428 z m 8.9286,-4.50668 c 0,-0.0982 -0.3214,-0.007 -0.7143,0.2037 -0.3928,0.21025 -0.7143,0.46264 -0.7143,0.56085 0,0.0982 0.3215,0.007 0.7143,-0.2037 0.3929,-0.21025 0.7143,-0.46263 0.7143,-0.56085 z m 2.5,-1.42857 c 0,-0.0982 -0.3214,-0.007 -0.7143,0.2037 -0.3928,0.21025 -0.7143,0.46264 -0.7143,0.56085 0,0.0982 0.3215,0.007 0.7143,-0.2037 0.3929,-0.21025 0.7143,-0.46264 0.7143,-0.56085 z m 20.7143,-11.7751 c 0,-0.0982 -0.6429,0.14939 -1.4286,0.55023 -0.7857,0.40084 -1.4286,0.80916 -1.4286,0.90738 0,0.0982 0.6429,-0.14939 1.4286,-0.55024 0.7857,-0.40084 1.4286,-0.80916 1.4286,-0.90737 z m 17.6786,-8.99962 c 5.8928,-2.93451 13.4806,-6.59934 16.8618,-8.14406 3.3812,-1.54472 6.0981,-2.8581 6.0375,-2.91862 -0.1101,-0.11011 -4.0948,1.61708 -11.4708,4.97209 -8.6531,3.93595 -28.75,14.28388 -28.75,14.80349 0,0.10137 1.4866,-0.61708 3.3036,-1.59656 1.817,-0.97947 8.125,-4.18183 14.0179,-7.11634 z m 46.9642,-1.70015 c 0.6875,-0.26475 1.009,-0.48635 0.7143,-0.49243 -0.2946,-0.006 -1.0178,0.2097 -1.6071,0.47954 -1.3793,0.63157 -0.7378,0.64083 0.8928,0.0129 z m 18.4747,-6.10863 c -0.1186,-0.11868 -0.4267,-0.13136 -0.6845,-0.0282 -0.2849,0.11401 -0.2003,0.19864 0.2158,0.21577 0.3765,0.0155 0.5874,-0.0689 0.4687,-0.18758 z m 2.7753,-0.85565 c 0.4503,-0.19348 0.5163,-0.30694 0.1786,-0.30694 -0.2946,0 -0.8571,0.13812 -1.25,0.30694 -0.4502,0.19347 -0.5162,0.30694 -0.1786,0.30694 0.2947,0 0.8572,-0.13813 1.25,-0.30694 z m -43.3928,-3.03572 c 0.4911,-0.28072 0.7321,-0.5104 0.5357,-0.5104 -0.1964,0 -0.7589,0.22968 -1.25,0.5104 -0.4911,0.28072 -0.7321,0.51041 -0.5357,0.51041 0.1964,0 0.7589,-0.22969 1.25,-0.51041 z m 2.8571,-1.25 c 0.2947,-0.19041 0.375,-0.3462 0.1786,-0.3462 -0.1964,0 -0.5982,0.15579 -0.8929,0.3462 -0.2946,0.19042 -0.375,0.34621 -0.1785,0.34621 0.1964,0 0.5982,-0.15579 0.8928,-0.34621 z m 2.5,-1.07143 c 0.2947,-0.19041 0.375,-0.3462 0.1786,-0.3462 -0.1964,0 -0.5982,0.15579 -0.8929,0.3462 -0.2946,0.19042 -0.375,0.34621 -0.1785,0.34621 0.1964,0 0.5982,-0.15579 0.8928,-0.34621 z m 56.4286,-0.71428 c 0.6528,-0.4219 0.089,-0.4219 -0.8929,0 -0.4709,0.20238 -0.5318,0.31362 -0.1785,0.32657 0.2946,0.0108 0.7768,-0.13616 1.0714,-0.32657 z m 2.8571,-0.89286 c 0.6875,-0.26475 1.009,-0.48137 0.7143,-0.48137 -0.2946,0 -1.0982,0.21662 -1.7857,0.48137 -0.6875,0.26475 -1.0089,0.48137 -0.7143,0.48137 0.2947,0 1.0982,-0.21662 1.7857,-0.48137 z m 2.6786,-0.89286 c 0.471,-0.20238 0.5318,-0.31362 0.1786,-0.32657 -0.2947,-0.0108 -0.7768,0.13616 -1.0714,0.32657 -0.6529,0.4219 -0.089,0.4219 0.8928,0 z m 16.7994,-5.50862 c 1.9568,-0.6726 3.3909,-1.2351 3.1869,-1.25 -0.2039,-0.0149 -1.9718,0.52322 -3.9285,1.19582 -1.9568,0.67259 -3.3909,1.23509 -3.187,1.25 0.204,0.0149 1.9718,-0.52322 3.9286,-1.19582 z m 20.7111,-6.78545 c 2.5478,-0.86888 4.4669,-1.5921 4.2648,-1.60714 -0.2022,-0.015 -2.4522,0.68355 -5,1.55243 -2.5479,0.86888 -4.467,1.59209 -4.2648,1.60714 0.2022,0.015 2.4522,-0.68355 5,-1.55243 z m 20.7123,-6.78555 c 3.1382,-1.06522 5.5413,-1.94915 5.3402,-1.96429 -0.2011,-0.0151 -2.9333,0.84403 -6.0715,1.90925 -3.1382,1.06522 -5.5412,1.94915 -5.3401,1.96429 0.201,0.0151 2.9332,-0.84403 6.0714,-1.90925 z m 20.7129,-6.78561 c 3.7282,-1.26159 6.6147,-2.30623 6.4143,-2.32142 -0.2003,-0.0152 -3.4146,1.00458 -7.1428,2.26617 -3.7282,1.26159 -6.6147,2.30623 -6.4143,2.32143 0.2003,0.0152 3.4146,-1.00459 7.1428,-2.26618 z m 58.289,0.64946 c -0.1187,-0.11868 -0.4267,-0.13136 -0.6845,-0.0282 -0.2849,0.11401 -0.2003,0.19864 0.2158,0.21578 0.3765,0.0155 0.5874,-0.0689 0.4687,-0.18758 z m 3.9286,-1.07143 c -0.1187,-0.11867 -0.4267,-0.13136 -0.6845,-0.0282 -0.2849,0.11401 -0.2003,0.19864 0.2158,0.21578 0.3764,0.0155 0.5874,-0.0689 0.4687,-0.18758 z m 1.4286,-0.35714 c -0.1187,-0.11868 -0.4267,-0.13137 -0.6846,-0.0282 -0.2849,0.11401 -0.2002,0.19864 0.2158,0.21578 0.3765,0.0155 0.5875,-0.0689 0.4688,-0.18758 z m 1.4285,-0.35715 c -0.1186,-0.11867 -0.4267,-0.13136 -0.6845,-0.0282 -0.2849,0.11401 -0.2003,0.19864 0.2158,0.21577 0.3765,0.0155 0.5874,-0.0689 0.4687,-0.18758 z m 1.4286,-0.35714 c -0.1187,-0.11867 -0.4267,-0.13136 -0.6845,-0.0282 -0.2849,0.114 -0.2003,0.19863 0.2158,0.21577 0.3764,0.0155 0.5874,-0.0689 0.4687,-0.18758 z m 1.4286,-0.35714 c -0.1187,-0.11868 -0.4267,-0.13136 -0.6845,-0.0282 -0.2849,0.11401 -0.2003,0.19864 0.2157,0.21578 0.3765,0.0155 0.5875,-0.0689 0.4688,-0.18758 z m 1.4286,-0.35714 c -0.1187,-0.11868 -0.4268,-0.13137 -0.6846,-0.0282 -0.2849,0.11401 -0.2003,0.19864 0.2158,0.21577 0.3765,0.0155 0.5874,-0.0689 0.4688,-0.18757 z m 3.1324,-0.65204 c 0.9821,-0.27329 1.5446,-0.50816 1.25,-0.52194 -0.2947,-0.0138 -1.3393,0.19856 -2.3214,0.47185 -0.9822,0.27329 -1.5447,0.50816 -1.25,0.52193 0.2946,0.0138 1.3392,-0.19855 2.3214,-0.47184 z m 10.8928,-2.3064 c 8.7224,-1.77501 22.2349,-4.02945 30.1786,-5.03505 3.3393,-0.42271 6.6339,-0.90159 7.3214,-1.06417 0.6875,-0.16258 -18.3169,-0.31221 -42.2321,-0.33252 -28.7746,-0.0244 -43.4821,0.0839 -43.4821,0.32024 0,0.42389 -2.3766,0.37908 35.2502,0.66464 23.1123,0.1754 30.1735,0.33015 30.5119,0.66869 0.2421,0.24226 0.3453,0.5354 0.2293,0.65141 -0.116,0.11602 -5.7303,1.32213 -12.4762,2.68026 -6.7459,1.35812 -12.7474,2.63213 -13.3367,2.83112 l -1.0714,0.36181 1.0714,-0.1646 c 0.5893,-0.0905 4.2054,-0.80235 8.0357,-1.58183 z m -70.7142,1.03135 c 0.6528,-0.4219 0.089,-0.4219 -0.8929,0 -0.471,0.20239 -0.5318,0.31363 -0.1786,0.32658 0.2947,0.0108 0.7768,-0.13616 1.0715,-0.32658 z m 8.578,-2.82947 c 4.0231,-1.35978 7.1511,-2.48478 6.9511,-2.5 -0.2001,-0.0152 -3.6554,1.08488 -7.6786,2.44466 -4.0232,1.35978 -7.1511,2.48478 -6.9511,2.5 0.2001,0.0152 3.6554,-1.08488 7.6786,-2.44466 z m -48.3176,1.54227 c -0.1187,-0.11867 -0.4267,-0.13136 -0.6845,-0.0282 -0.285,0.11401 -0.2003,0.19864 0.2157,0.21578 0.3765,0.0155 0.5875,-0.0689 0.4688,-0.18758 z m 2.1428,-0.35714 c -0.1186,-0.11868 -0.4267,-0.13137 -0.6845,-0.0282 -0.2849,0.11401 -0.2003,0.19864 0.2158,0.21578 0.3765,0.0155 0.5874,-0.0689 0.4687,-0.18758 z m 1.9718,-0.3779 c -0.2456,-0.0991 -0.6474,-0.0991 -0.8929,0 -0.2455,0.0991 -0.045,0.18014 0.4464,0.18014 0.4911,0 0.692,-0.0811 0.4465,-0.18014 z m 2.1428,-0.35714 c -0.2455,-0.0991 -0.6473,-0.0991 -0.8928,0 -0.2456,0.0991 -0.045,0.18013 0.4464,0.18013 0.4911,0 0.692,-0.0811 0.4464,-0.18013 z m 2.1497,-0.35488 c -0.2418,-0.0978 -0.724,-0.10378 -1.0715,-0.0132 -0.3474,0.0906 -0.1496,0.17059 0.4397,0.17787 0.5893,0.007 0.8736,-0.0668 0.6318,-0.16464 z m 2.1428,-0.35714 c -0.2418,-0.0978 -0.7239,-0.10379 -1.0714,-0.0132 -0.3475,0.0906 -0.1497,0.1706 0.4396,0.17788 0.5893,0.007 0.8736,-0.0668 0.6318,-0.16464 z"
       id="path1411" />
    <path
       style="fill:#d38d5f;stroke:#d38d5f;stroke-width:0.251429;stroke-miterlimit:4;stroke-dasharray:none;stroke-opacity:1"
       d="m 1508.5094,671.97964 c -0.4261,-0.60836 -0.9474,-0.80468 -2.2655,-0.85322 -0.9416,-0.0347 -17.4218,-0.0893 -36.6227,-0.12133 l -34.9107,-0.0583 v -1.21891 c 0,-1.15719 0.2124,-1.36235 4.1964,-4.05229 25.3297,-17.10232 56.9064,-33.75951 86.2377,-45.49179 38.7856,-15.51387 80.302,-26.11978 120.6373,-30.81839 15.758,-1.83563 19.2209,-2.05258 31.7857,-1.99133 13.0501,0.0636 12.2756,0.0631 86.0715,0.0584 65.406,-0.004 103.7265,0.20062 103.8392,0.55502 0.049,0.15442 -0.3526,0.40824 -0.8928,0.56405 -4.5994,1.32663 -7.8125,2.50972 -112.0536,41.25828 -106.4739,39.57855 -105.9678,39.38913 -108.0503,40.43822 -1.1944,0.60176 -4.954,0.65096 -67.8571,0.88815 -69.275,0.26122 -66.9282,0.21021 -69.3271,1.50689 -0.129,0.0697 -0.4836,-0.22881 -0.788,-0.66341 z m 140.4753,-5.53264 c 2.3635,-1.68917 4.2972,-3.1297 4.2972,-3.20117 0,-0.0715 -1.7192,0.98914 -3.8204,2.35693 l -3.8205,2.48689 -46.2688,-0.0284 c -25.4479,-0.0156 -52.6171,-0.14752 -60.376,-0.29315 -12.8682,-0.24154 -14.264,-0.21056 -15.8929,0.35272 -1.7616,0.60919 -1.6025,0.61916 11.7858,0.73958 7.4642,0.0671 35.1011,0.16966 61.4152,0.22782 26.3142,0.0582 47.9168,0.1787 48.006,0.26786 0.2566,0.25659 0.1664,0.31269 4.6744,-2.90912 z m -144.6314,2.34623 c 3.4375,-0.10642 6.1697,-0.23988 6.0715,-0.29657 -0.098,-0.0567 -14.3215,-0.23982 -31.6072,-0.40695 -17.2857,-0.16713 -32.1116,-0.41677 -32.9464,-0.55475 -0.8348,-0.13799 -1.5175,-0.43124 -1.517,-0.65167 4e-4,-0.22043 2.2564,-1.18495 5.0133,-2.14337 2.7569,-0.95843 4.9511,-1.80407 4.8759,-1.87921 -0.1142,-0.11428 -9.5207,3.07901 -15.2472,5.17611 l -1.6071,0.58855 3.5714,0.2038 c 4.4626,0.25465 54.9307,0.22604 63.3928,-0.0359 z m -44.1736,-7.83088 c 1.3385,-0.4418 2.3701,-0.86675 2.2925,-0.94435 -0.1734,-0.17336 -5.2956,1.54734 -5.5875,1.877 -0.1155,0.13036 0.031,0.15459 0.3258,0.0538 0.2946,-0.10076 1.6308,-0.54467 2.9692,-0.98646 z m 4.1736,-1.44413 c 0.6529,-0.4219 0.089,-0.4219 -0.8928,0 -0.471,0.20239 -0.5318,0.31363 -0.1786,0.32658 0.2947,0.0108 0.7768,-0.13616 1.0714,-0.32658 z m 4.0407,-1.41302 c 1.3385,-0.44179 2.3701,-0.86674 2.2925,-0.94434 -0.1734,-0.17336 -5.2956,1.54733 -5.5875,1.87699 -0.1155,0.13037 0.031,0.15459 0.3258,0.0538 0.2946,-0.10077 1.6308,-0.54468 2.9692,-0.98647 z m 9.8213,-3.3929 c 1.633,-0.54016 2.9061,-1.04502 2.8292,-1.12192 -0.1734,-0.17345 -6.3655,1.90148 -6.6576,2.23093 -0.1167,0.13161 0.029,0.1569 0.3236,0.0562 0.2946,-0.10071 1.8718,-0.62505 3.5048,-1.16521 z m 9.2855,-3.21433 c 2.2222,-0.73673 3.9782,-1.40173 3.9021,-1.47778 -0.1735,-0.17357 -8.5065,2.61187 -8.7989,2.9412 -0.1182,0.13314 0.026,0.15972 0.3208,0.0591 0.2946,-0.10064 2.3538,-0.78577 4.576,-1.5225 z m 9.8215,-3.39284 c 1.9276,-0.63846 3.4422,-1.22335 3.3658,-1.29976 -0.1735,-0.17352 -7.4359,2.25641 -7.7282,2.58578 -0.1175,0.13249 0.027,0.15852 0.322,0.0578 0.2947,-0.10066 2.1128,-0.70541 4.0404,-1.34387 z m 75.0501,-12.46874 c -0.162,-0.1669 -23.6629,11.51724 -24.6262,12.24363 -0.3929,0.29624 5.0161,-2.30773 12.0199,-5.7866 7.0038,-3.47886 12.6767,-6.38452 12.6063,-6.45703 z m -65.7644,9.25446 c 1.9276,-0.63846 3.4422,-1.22336 3.3658,-1.29976 -0.1735,-0.17353 -7.4359,2.25641 -7.7281,2.58577 -0.1176,0.13249 0.027,0.15852 0.3219,0.0578 0.2947,-0.10066 2.1129,-0.7054 4.0404,-1.34386 z m 9.2858,-3.21429 c 1.9275,-0.63846 3.4421,-1.22335 3.3657,-1.29976 -0.1735,-0.17353 -7.4359,2.25641 -7.7281,2.58578 -0.1176,0.13248 0.027,0.15852 0.3219,0.0579 0.2947,-0.10067 2.1129,-0.70541 4.0405,-1.34387 z m 14.9874,-5.18421 c 4.4743,-1.53305 8.0744,-2.84801 8.0003,-2.92214 -0.1641,-0.16411 -16.7327,5.5224 -17.0101,5.83801 -0.1081,0.1231 0.044,0.14454 0.3391,0.0477 0.2946,-0.0969 4.1965,-1.43047 8.6707,-2.96353 z m 43.8293,-1.61698 c 0.6875,-0.37639 1.0893,-0.68435 0.8928,-0.68435 -0.1964,0 -0.9196,0.30796 -1.6071,0.68435 -0.6875,0.37639 -1.0893,0.68434 -0.8929,0.68434 0.1965,0 0.9197,-0.30795 1.6072,-0.68434 z m -29.8882,-3.19881 c 1.9276,-0.63846 3.4422,-1.22335 3.3658,-1.29976 -0.1735,-0.17353 -7.4359,2.25641 -7.7282,2.58578 -0.1175,0.13248 0.027,0.15852 0.322,0.0579 0.2947,-0.10067 2.1128,-0.70541 4.0404,-1.34387 z m 9.8214,-3.39287 c 2.2222,-0.73674 3.9781,-1.40174 3.9021,-1.47778 -0.1736,-0.17357 -8.5065,2.61186 -8.799,2.9412 -0.1182,0.13313 0.026,0.15972 0.3208,0.0591 0.2947,-0.10065 2.3539,-0.78577 4.5761,-1.5225 z m 9.8215,-3.39284 c 1.9276,-0.63846 3.4422,-1.22336 3.3658,-1.29976 -0.1736,-0.17353 -7.4359,2.25641 -7.7282,2.58577 -0.1176,0.13249 0.027,0.15852 0.322,0.0578 0.2946,-0.10066 2.1128,-0.7054 4.0404,-1.34386 z m 10.3571,-3.57143 c 1.9276,-0.63846 3.4422,-1.22336 3.3658,-1.29976 -0.1735,-0.17353 -7.4359,2.25641 -7.7282,2.58578 -0.1175,0.13248 0.027,0.15851 0.322,0.0578 0.2947,-0.10067 2.1128,-0.70541 4.0404,-1.34387 z m 9.8214,-3.39288 c 2.2222,-0.73673 3.9781,-1.40173 3.9021,-1.47778 -0.1736,-0.17357 -8.5065,2.61187 -8.799,2.9412 -0.1182,0.13314 0.026,0.15973 0.3208,0.0591 0.2947,-0.10064 2.3539,-0.78577 4.5761,-1.5225 z m 9.2857,-3.21428 c 2.2222,-0.73673 3.9781,-1.40174 3.9021,-1.47778 -0.1736,-0.17357 -8.5065,2.61186 -8.7989,2.9412 -0.1183,0.13313 0.026,0.15972 0.3207,0.0591 0.2947,-0.10065 2.3539,-0.78577 4.5761,-1.5225 z m 10.3572,-3.57143 c 2.2222,-0.73673 3.9781,-1.40173 3.902,-1.47778 -0.1735,-0.17357 -8.5065,2.61187 -8.7989,2.9412 -0.1182,0.13314 0.026,0.15972 0.3208,0.0591 0.2946,-0.10065 2.3539,-0.78577 4.5761,-1.5225 z m 10.3571,-3.57143 c 2.2222,-0.73673 3.9781,-1.40173 3.9021,-1.47778 -0.1736,-0.17357 -8.5065,2.61187 -8.799,2.9412 -0.1182,0.13314 0.026,0.15972 0.3208,0.0591 0.2947,-0.10064 2.3539,-0.78577 4.5761,-1.5225 z m 9.2857,-3.21429 c 2.2222,-0.73673 3.9781,-1.40173 3.9021,-1.47778 -0.1736,-0.17357 -8.5065,2.61187 -8.7989,2.9412 -0.1183,0.13314 0.026,0.15973 0.3207,0.0591 0.2947,-0.10064 2.3539,-0.78577 4.5761,-1.5225 z m 9.2857,-3.21428 c 2.2222,-0.73673 3.9782,-1.40173 3.9021,-1.47778 -0.1736,-0.17357 -8.5065,2.61187 -8.7989,2.9412 -0.1182,0.13314 0.026,0.15972 0.3208,0.0591 0.2946,-0.10065 2.3538,-0.78577 4.576,-1.5225 z m 9.8214,-3.39287 c 2.5168,-0.83498 4.5141,-1.58015 4.4383,-1.65592 -0.1736,-0.17361 -9.5774,2.96768 -9.8699,3.297 -0.1187,0.13365 0.025,0.16066 0.3199,0.06 0.2946,-0.10063 2.5949,-0.86613 5.1117,-1.70111 z m 9.3492,-3.22861 c 4.1277,-1.38672 4.6113,-1.46255 16.9476,-2.65768 24.1868,-2.34318 30.1465,-2.68835 46.5379,-2.6954 14.1942,-0.006 15.114,0.22976 6.875,1.76294 -5.2084,0.96922 -3.5571,0.8711 5.5346,-0.32886 4.4203,-0.5834 9.885,-1.28567 12.144,-1.56061 l 4.1071,-0.49987 -5.5357,-0.0477 c -3.0446,-0.0263 -15.7411,-0.14328 -28.2143,-0.26006 -12.9941,-0.12166 -26.9488,-0.0588 -32.6786,0.14728 l -10,0.35962 -9.9721,3.42724 c -8.7423,3.00457 -10.8277,3.78058 -10.1599,3.78058 0.091,0 2.0775,-0.64236 4.4144,-1.42745 z m 160.7995,0.14024 c -0.1187,-0.11867 -0.4267,-0.13136 -0.6845,-0.0282 -0.2849,0.11401 -0.2003,0.19863 0.2158,0.21577 0.3764,0.0155 0.5874,-0.0689 0.4687,-0.18758 z m 1.7857,-0.35714 c -0.1187,-0.11867 -0.4267,-0.13136 -0.6845,-0.0282 -0.2849,0.11401 -0.2003,0.19864 0.2158,0.21578 0.3764,0.0155 0.5874,-0.0689 0.4687,-0.18758 z m 1.7857,-0.35714 c -0.1186,-0.11868 -0.4267,-0.13137 -0.6845,-0.0282 -0.2849,0.11401 -0.2003,0.19864 0.2158,0.21578 0.3764,0.0155 0.5874,-0.0689 0.4687,-0.18758 z m 1.7857,-0.35715 c -0.1186,-0.11867 -0.4267,-0.13136 -0.6845,-0.0282 -0.2849,0.11401 -0.2003,0.19864 0.2158,0.21577 0.3765,0.0155 0.5874,-0.0689 0.4687,-0.18758 z m 1.6146,-0.37789 c -0.2455,-0.0991 -0.6473,-0.0991 -0.8928,0 -0.2456,0.0991 -0.045,0.18013 0.4464,0.18013 0.4911,0 0.692,-0.0811 0.4464,-0.18013 z m 3.3036,-0.47776 c 0.9557,-0.24319 0.975,-0.27263 0.1786,-0.27263 -0.4911,0 -1.375,0.12268 -1.9643,0.27263 -0.9557,0.24319 -0.975,0.27263 -0.1786,0.27263 0.4911,0 1.375,-0.12268 1.9643,-0.27263 z m 9.4898,-1.5728 c 4.2092,-0.66861 9.903,-1.51236 12.653,-1.875 l 5,-0.65934 -3.2142,-0.19147 c -4.9354,-0.29399 -68.152,-0.30439 -74.8215,-0.0123 l -5.8928,0.25807 9.6428,0.0967 c 52.908,0.53076 55.1511,0.57126 55.5835,1.00373 0.2422,0.24226 0.3574,0.52338 0.2561,0.62471 -0.1013,0.10133 -1.8585,0.5729 -3.9047,1.04794 -2.0463,0.47504 -3.5484,0.87695 -3.3379,0.89315 0.2104,0.0162 3.8265,-0.51761 8.0357,-1.18622 z m -114.222,0.62199 c -0.2455,-0.0991 -0.6473,-0.0991 -0.8928,0 -0.2455,0.0991 -0.045,0.18013 0.4464,0.18013 0.4911,0 0.692,-0.0811 0.4464,-0.18013 z"
       id="path1413" />
    <path
       style="fill:#d38d5f;stroke:#d38d5f;stroke-width:0.251429;stroke-miterlimit:4;stroke-dasharray:none;stroke-opacity:1"
       d="m 1508.4791,672.07688 c -0.1984,-0.62518 -1.4049,-0.66665 -25.9759,-0.89286 -14.1723,-0.13047 -30.7331,-0.23722 -36.8018,-0.23722 h -11.034 l 0.1108,-1.29251 c 0.1018,-1.18708 0.373,-1.47174 3.3251,-3.48994 24.4955,-16.74628 56.6849,-33.79378 86.4286,-45.77254 42.9395,-17.2931 88.8301,-28.37892 134.4407,-32.47692 6.3479,-0.57033 6.4256,-0.57048 198.4165,-0.37132 10.169,0.0105 11.9623,0.25536 8.75,1.19452 -4.0154,1.17393 -26.8768,9.62158 -156.25,57.73668 -55.1374,20.5061 -62.2346,23.17338 -63.8516,23.99674 -0.8431,0.42929 -10.355,0.53158 -62.5,0.67208 -68.336,0.18414 -71.5196,0.22938 -73.0845,1.03858 -1.3766,0.7119 -1.7204,0.69356 -1.9739,-0.10529 z m -1.6669,-3.43314 c -0.082,-0.082 -13.8072,-0.31916 -30.5004,-0.52692 -16.6932,-0.20776 -30.7129,-0.47832 -31.1549,-0.60125 -1.252,-0.34823 -0.9485,-1.05514 0.6598,-1.537 0.8048,-0.24113 1.3921,-0.50967 1.305,-0.59674 -0.1419,-0.14189 -5.5615,1.69021 -8.3041,2.80717 -0.8828,0.35954 1.2237,0.46781 11.9643,0.61494 14.3547,0.19664 56.2673,0.0768 56.0303,-0.1602 z m 140.8502,-1.32915 c 4.1103,-2.9374 4.2295,-3.30315 0.1927,-0.59131 l -2.034,1.36637 -49.3946,-0.0411 c -27.167,-0.0226 -54.216,-0.14732 -60.1089,-0.27717 -9.0669,-0.1998 -10.9888,-0.1523 -12.5,0.30894 -1.64,0.50057 0.8506,0.55982 30.5357,0.72645 17.7768,0.0998 45.4623,0.22032 61.5234,0.26786 l 29.2019,0.0864 z m -138.2198,1.25282 c -0.2455,-0.0991 -0.6473,-0.0991 -0.8928,0 -0.2456,0.0991 -0.045,0.18014 0.4464,0.18014 0.4911,0 0.692,-0.0811 0.4464,-0.18014 z m 157.5893,-76.53021 c 23.5486,-2.37836 31.824,-2.87234 48.1548,-2.87446 10.0464,-10e-4 12.7658,0.0938 12.6495,0.44259 -0.081,0.24433 -1.0189,0.62808 -2.0833,0.85278 -1.0644,0.22469 -1.6845,0.42656 -1.378,0.44861 0.7188,0.0517 17.5424,-2.06446 18.0142,-2.26592 0.1964,-0.0839 -16.3572,-0.11741 -36.7858,-0.0745 l -37.1428,0.078 -6.7857,2.40581 c -3.7322,1.3232 -6.384,2.32197 -5.8929,2.21949 0.4911,-0.10248 5.5536,-0.65705 11.25,-1.23238 z m 170.6285,-1.62899 c 4.7614,-0.69815 9.3804,-1.40457 10.2644,-1.56983 2.1575,-0.40339 -29.0717,-0.62048 -55.7143,-0.3873 -20.8732,0.18269 -20.8796,0.18297 -6.7857,0.30099 32.2497,0.27005 46.0229,0.57472 46.4762,1.02806 0.6275,0.62751 0.3006,0.82239 -2.625,1.56496 -1.4307,0.36313 -2.0774,0.58649 -1.437,0.49635 0.6402,-0.0901 5.0599,-0.73509 9.8214,-1.43323 z m -114.2892,0.6592 c -0.2455,-0.0991 -0.6473,-0.0991 -0.8929,0 -0.2455,0.0991 -0.045,0.18014 0.4465,0.18014 0.491,0 0.6919,-0.0811 0.4464,-0.18014 z"
       id="path1415" />
    <path
       style="fill:#d38d5f;stroke:#d38d5f;stroke-width:0.251429;stroke-miterlimit:4;stroke-dasharray:none;stroke-opacity:1"
       d="m 1508.42,672.10751 c -0.3693,-0.58568 -2.5599,-0.63879 -34.8196,-0.84426 -18.9341,-0.12059 -35.4782,-0.24113 -36.7646,-0.26785 l -2.339,-0.0486 0.1472,-1.26074 c 0.1736,-1.48747 0.9057,-2.05516 11.1379,-8.63732 27.5743,-17.73788 58.3319,-33.18318 89.1072,-44.74622 40.0197,-15.03644 84.0548,-25.05702 125.5357,-28.56676 4.6729,-0.39538 206.5544,-0.5455 207.1878,-0.15406 0.5724,0.35379 -0.036,0.83512 -1.5779,1.24883 -3.0038,0.80584 -24.7031,8.82063 -140.6099,51.93531 -66.7799,24.84058 -76.1765,28.3603 -78.6949,29.47716 l -1.7306,0.76747 -47.3766,0.14712 c -75.3504,0.234 -84.951,0.345 -86.8408,1.00404 -1.9924,0.69486 -1.8883,0.69724 -2.3619,-0.0541 z m 137.8147,-3.85216 c 0.7331,-0.49815 1.3329,-0.984 1.3329,-1.07966 0,-0.0957 -0.3993,0.0877 -0.8874,0.40754 -0.8123,0.53223 -6.0215,0.57471 -61.5179,0.50164 -33.3467,-0.0439 -60.9384,-0.0608 -61.3149,-0.0375 -0.3765,0.0232 -0.564,0.16284 -0.4168,0.31016 0.1473,0.14732 19.4196,0.35135 42.8274,0.45339 23.4078,0.10205 50.6786,0.22258 60.6017,0.26786 l 18.0421,0.0823 z m -146.7028,0.30985 c -1.1786,-0.0556 -13.8138,-0.26269 -28.0783,-0.46017 -14.2644,-0.19749 -26.1975,-0.45965 -26.5178,-0.58258 -0.3204,-0.12293 -0.5825,-0.44738 -0.5825,-0.72101 0,-0.63852 0.1096,-0.65536 -2.833,0.43538 -1.3842,0.51308 -2.4286,1.07558 -2.3208,1.25 0.1123,0.18166 13.4972,0.28773 31.3356,0.2483 17.1268,-0.0378 30.1754,-0.11431 28.9968,-0.16992 z m 166.7857,-76.53401 c 25.3283,-2.49601 31.5688,-2.86636 48.3334,-2.86845 10.348,-10e-4 13.3007,0.0961 13.1878,0.43492 -0.08,0.24012 -0.5354,0.54553 -1.0119,0.67868 -1.6323,0.45613 0.3284,0.32946 6.5837,-0.42532 3.3667,-0.40625 6.4427,-0.88317 6.8356,-1.05982 0.427,-0.19201 -13.8637,-0.28528 -35.5357,-0.23192 l -36.25,0.0893 -5.8929,2.07895 c -3.241,1.14342 -5.9732,2.16103 -6.0714,2.26136 -0.098,0.10033 0.4643,0.0843 1.25,-0.0357 0.7857,-0.11995 4.6429,-0.53484 8.5714,-0.92198 z m 173.1645,-1.96536 c 4.4904,-0.67197 8.2538,-1.31114 8.3631,-1.4204 0.1092,-0.10925 -13.4487,-0.17178 -30.1287,-0.13896 l -30.3274,0.0597 20.3571,0.29933 c 11.1964,0.16463 21.2283,0.41903 22.2929,0.56533 2.1862,0.30042 2.6931,0.91018 1.2071,1.45209 -1.6318,0.59506 -0.3527,0.46816 8.2359,-0.81706 z"
       id="path1417" />
    <path
       style="fill:#d38d5f;stroke:#d38d5f;stroke-width:0.251429;stroke-miterlimit:4;stroke-dasharray:none;stroke-opacity:1"
       d="m 1508.18,672.12259 c -0.6031,-0.60543 -2.6041,-0.64632 -36.9643,-0.75526 -20.3946,-0.0647 -36.4687,-0.25372 -36.6506,-0.43107 -0.1937,-0.18897 -0.1905,-0.78087 0.01,-1.47315 0.375,-1.30759 1.6177,-2.25752 10.4945,-8.0224 23.957,-15.5583 52.7706,-30.4648 79.8215,-41.29495 38.9451,-15.5922 80.0953,-26.1126 121.1878,-30.98276 15.7931,-1.87175 10.6107,-1.7943 119.6537,-1.78837 55.8557,0.003 101.7021,0.0959 101.8808,0.20638 0.6118,0.3781 -0.053,0.81057 -2.4584,1.5995 -4.9295,1.61673 -37.9046,13.77966 -102.7639,37.90471 -8.4465,3.14173 -20.9018,7.77007 -27.6786,10.2852 -44.113,16.37204 -80.5112,29.98495 -84.6429,31.65644 l -4.8214,1.95051 -26.6071,0.16011 c -14.634,0.0881 -44.2054,0.24341 -65.7143,0.34521 -21.509,0.10181 -39.8304,0.32177 -40.7143,0.48881 -0.8839,0.16703 -2.0089,0.41338 -2.5,0.54743 -0.627,0.17115 -1.0828,0.0531 -1.5305,-0.39634 z m 137.5801,-3.58651 c 0.7355,-0.59575 -2.041,-0.62169 -59.3354,-0.55433 -33.0589,0.0389 -60.6696,0.11384 -61.3571,0.16661 -3.5963,0.27608 16.8389,0.49161 54.8013,0.57801 23.3638,0.0532 42.5558,0.17273 42.6488,0.26569 0.093,0.093 5.1869,0.16902 11.3199,0.16902 10.0879,0 11.2245,-0.0596 11.9225,-0.625 z m -154.7996,0.0516 c -0.3929,-0.0681 -10.7714,-0.2828 -23.0634,-0.47708 -12.2921,-0.19429 -22.6179,-0.45639 -22.9465,-0.58245 -0.3285,-0.12606 -0.5973,-0.47028 -0.5973,-0.76492 0,-0.36641 -0.1975,-0.45748 -0.625,-0.28817 -0.3437,0.13615 -1.5089,0.59531 -2.5892,1.02035 l -1.9643,0.77281 2.5,0.19992 c 2.6633,0.21296 50.4937,0.32898 49.2857,0.11954 z m 175.0019,-76.55522 c 9.4723,-0.97749 22.1657,-2.07833 28.9206,-2.50816 7.3255,-0.46613 33.0418,-0.48468 33.0418,-0.0238 0,0.18667 -0.2813,0.51733 -0.625,0.7348 -0.5054,0.31973 -0.3858,0.36048 0.625,0.2129 0.6875,-0.10039 3.5803,-0.47123 6.4285,-0.82409 l 5.1786,-0.64158 -6.0714,-0.21194 c -3.3393,-0.11657 -19.3304,-0.17476 -35.5357,-0.12932 l -29.4643,0.0826 -5.5357,1.98179 c -3.0447,1.08999 -5.1331,1.99194 -4.641,2.00433 0.4921,0.0124 3.9474,-0.2925 7.6786,-0.67753 z m 173.3909,-2.03458 c 5.9944,-0.86621 6.7405,-1.04061 5.3572,-1.25225 -0.8839,-0.13524 -10.6072,-0.23241 -21.6072,-0.21593 l -20,0.03 14.1787,0.38999 c 14.8652,0.40888 16.098,0.56986 14.3928,1.87955 l -0.7143,0.54861 0.7143,-0.18679 c 0.3928,-0.10273 3.8482,-0.63965 7.6785,-1.19315 z"
       id="path1419" />
    <path
       style="fill:#d38d5f;stroke:#d38d5f;stroke-width:0.251429;stroke-miterlimit:4;stroke-dasharray:none;stroke-opacity:1"
       d="m 1660.4248,592.05996 c 0.2946,-0.18156 2.1573,-0.89373 4.1394,-1.58261 l 3.6037,-1.25251 13.8963,-0.18742 c 9.6667,-0.13037 12.7549,-0.0879 10.1463,0.13952 -6.4326,0.56081 -29.7576,2.83416 -31.0714,3.02835 -0.851,0.12578 -1.079,0.0794 -0.7143,-0.14533 z"
       id="path1421" />
    <path
       style="fill:#d38d5f;stroke:#d38d5f;stroke-width:0.251429;stroke-miterlimit:4;stroke-dasharray:none;stroke-opacity:1"
       d=""
       id="path1423" />
    <path
       style="fill:#d38d5f;stroke:#d38d5f;stroke-width:0.251429;stroke-miterlimit:4;stroke-dasharray:none;stroke-opacity:1"
       d="m 1661.5665,591.82891 c 0.07,-0.0697 1.4886,-0.63905 3.1532,-1.26518 l 3.0265,-1.13843 10.7143,-0.11484 c 5.8928,-0.0632 10.4732,-0.0489 10.1786,0.0318 -0.2947,0.0807 -4.3929,0.48853 -9.1072,0.90641 -4.7143,0.41788 -9.639,0.98116 -10.9439,1.25173 -2.0699,0.42919 -7.3702,0.67719 -7.0215,0.32853 z"
       id="path1425" />
    <path
       style="fill:#d38d5f;stroke:#d38d5f;stroke-width:0.251429;stroke-miterlimit:4;stroke-dasharray:none;stroke-opacity:1"
       d="m 1507.8172,672.14326 c -0.8652,-0.46588 -5.8746,-0.56659 -37.0864,-0.74556 -38.9404,-0.22329 -36.7232,-0.0962 -36.2264,-2.07548 0.2702,-1.07683 2.48,-2.73456 10.8346,-8.1278 59.1591,-38.19005 128.0553,-63.09972 198.6572,-71.82515 17.1348,-2.11763 11.1085,-2.0186 121.9363,-2.00385 55.9668,0.007 101.8411,0.0969 101.9431,0.19882 0.3897,0.38979 -0.9392,1.16088 -3.3437,1.94005 -4.7019,1.52367 -38.7015,14.06774 -112.1428,41.37486 -75.2553,27.98157 -95.0244,35.36309 -102.5,38.272 l -5.3572,2.08457 -63.75,0.23072 c -56.5297,0.20459 -67.5669,0.36658 -71.0714,1.0431 -0.4911,0.0948 -1.343,-0.07 -1.8933,-0.36628 z m 136.7147,-3.30911 c 2.0056,-0.45378 -26.3311,-0.74354 -70,-0.71579 -23.9643,0.0152 -43.3853,0.10383 -43.1577,0.1969 0.2275,0.0931 22.9685,0.29474 50.5357,0.44816 64.1998,0.35728 61.3697,0.35409 62.622,0.0707 z m -165.5915,-0.2051 c -0.1117,-0.11163 -7.803,-0.35609 -17.0919,-0.54325 -14.7016,-0.29623 -16.971,-0.41469 -17.5235,-0.9147 -0.6738,-0.60977 -1.2125,-0.53083 -3.512,0.51466 -1.2268,0.55778 -0.8195,0.59003 9.6118,0.76104 20.2456,0.33189 28.7194,0.38605 28.5156,0.18225 z m 181.2579,-76.14625 c 0.1373,-0.13735 1.0079,-0.23154 1.9345,-0.20933 1.5411,0.0369 1.5782,0.0194 0.4348,-0.20583 l -1.25,-0.2462 1.7044,-0.66746 c 2.6726,-1.0466 1.7267,-1.04747 -1.2086,-0.001 -2.8465,1.01475 -3.7731,1.57963 -2.591,1.57963 0.3994,0 0.8386,-0.11237 0.9759,-0.24971 z m 10.3226,-1.05598 c -0.2418,-0.0978 -0.724,-0.10379 -1.0715,-0.0132 -0.3475,0.0906 -0.1496,0.17059 0.4397,0.17787 0.5892,0.007 0.8736,-0.0668 0.6318,-0.16464 z m 3.5646,-0.37493 c -0.442,-0.0851 -1.1652,-0.0851 -1.6072,0 -0.4419,0.0851 -0.08,0.15478 0.8036,0.15478 0.8839,0 1.2456,-0.0697 0.8036,-0.15478 z m 3.5763,-0.3565 c -0.4392,-0.0848 -1.2428,-0.087 -1.7857,-0.005 -0.5429,0.0821 -0.1835,0.15145 0.7987,0.15413 0.9821,0.003 1.4263,-0.0645 0.987,-0.14926 z m 161.0726,-0.66595 c 3.3793,-0.50454 6.1877,-0.96087 6.2408,-1.01406 0.181,-0.18093 -18.6321,-0.56737 -24.729,-0.50796 -5.9328,0.0578 -5.9858,0.065 -2.3214,0.31265 2.0625,0.13942 5.5178,0.27495 7.6785,0.30118 5.3473,0.0649 6.7133,0.3096 6.4903,1.16257 -0.2148,0.82135 -0.6846,0.83934 6.6408,-0.25438 z m -157.3275,0.30441 c -0.5402,-0.0818 -1.4241,-0.0818 -1.9643,0 -0.5401,0.0818 -0.098,0.14878 0.9822,0.14878 1.0803,0 1.5223,-0.067 0.9821,-0.14878 z m 7.5893,-0.48806 c 2.2589,-0.20934 8.4464,-0.50317 13.75,-0.65295 7.8187,-0.22081 5.4541,-0.268 -12.5,-0.24946 -15.2842,0.0158 -18.8795,0.0807 -11.6071,0.20957 8.33,0.14762 9.9375,0.24719 7.6785,0.47564 -1.5714,0.15891 -3.0982,0.34116 -3.3928,0.405 -1.2594,0.27285 2.2829,0.16328 6.0714,-0.1878 z m 44.4729,-0.17257 c 2.3456,-0.30761 4.3345,-0.62904 4.4197,-0.71429 0.085,-0.0852 -4.2512,-0.1199 -9.6366,-0.077 -5.3855,0.0429 -7.6469,0.12802 -5.0254,0.18917 4.0177,0.0937 4.7346,0.19366 4.5648,0.6363 -0.259,0.67473 0.2975,0.67138 5.6775,-0.0342 z"
       id="path1427" />
    <path
       style="fill:#d38d5f;stroke:#d38d5f;stroke-width:0.251429;stroke-miterlimit:4;stroke-dasharray:none;stroke-opacity:1"
       d="m 1508.5737,672.54811 c -0.7123,-0.71231 -6.0053,-0.86096 -38.124,-1.07065 -19.3619,-0.12641 -35.4044,-0.29247 -35.6499,-0.36904 -0.8841,-0.27569 -0.4779,-2.01194 0.7394,-3.15996 2.2167,-2.09067 15.5132,-10.63164 27.0284,-17.36172 54.0467,-31.58755 114.4492,-52.30014 176.9643,-60.68273 7.6551,-1.02646 14.2223,-1.73271 20.1786,-2.17003 5.2864,-0.38814 207.7808,-0.55402 208.1643,-0.17053 0.416,0.41603 -1.0226,1.19549 -4.2357,2.2951 -4.1947,1.43548 -23.8056,8.61201 -42.3215,15.48737 -7.6607,2.8446 -26.1428,9.70398 -41.0714,15.24308 -69.5433,25.80336 -127.4849,47.42506 -132.3214,49.37755 l -3.0357,1.2255 -59.8215,0.26222 c -54.823,0.24031 -72.9412,0.50634 -75.3615,1.10654 -0.4934,0.12238 -1.003,0.11666 -1.1324,-0.0127 z m 114.5296,-4.12013 c -11.9821,-0.12938 -34.8839,-0.22088 -50.8928,-0.20333 -22.5229,0.0247 -25.6736,0.075 -13.9286,0.22215 8.3482,0.10462 31.25,0.19612 50.8929,0.20332 32.793,0.012 33.9323,-0.006 13.9285,-0.22214 z m -166.0122,-0.36786 c -10.242,-0.22997 -12.1785,-0.35717 -12.706,-0.83457 -0.5668,-0.51296 -0.7714,-0.51247 -2.2916,0.006 -0.9181,0.31283 -1.5793,0.71434 -1.4694,0.89225 0.115,0.18601 6.2243,0.29897 14.3753,0.26581 l 14.1754,-0.0577 z m 204.2265,-75.75097 c 0.9092,0.0246 0.9633,-0.0185 0.3572,-0.28442 -0.4255,-0.18671 -0.5097,-0.32359 -0.2084,-0.33855 0.2783,-0.0138 0.4162,-0.11487 0.3065,-0.22459 -0.2396,-0.2396 -2.7767,0.77675 -2.7767,1.11234 0,0.12925 0.2813,0.11602 0.625,-0.0294 0.3438,-0.14543 1.1071,-0.25135 1.6964,-0.23538 z m 1.9643,-1.36235 c 0.2947,-0.19042 0.375,-0.34621 0.1786,-0.34621 -0.1964,0 -0.5982,0.15579 -0.8929,0.34621 -0.2946,0.19041 -0.375,0.3462 -0.1785,0.3462 0.1964,0 0.5982,-0.15579 0.8928,-0.3462 z m 174.9405,-0.87329 c 3.0119,-0.46911 5.5699,-0.94667 5.6845,-1.06125 0.1146,-0.11458 -4.218,-0.20832 -9.6279,-0.20832 -5.41,0 -10.3636,-0.10545 -11.008,-0.23432 -0.8416,-0.16833 -1.0997,-0.11804 -0.9164,0.17857 0.1664,0.26925 1.5369,0.41289 3.9395,0.41289 4.778,0 6.0298,0.24212 5.7997,1.12177 -0.213,0.81475 -0.5121,0.82496 6.1286,-0.20934 z m -152.7083,-0.0775 c -0.2456,-0.0991 -0.6474,-0.0991 -0.8929,0 -0.2455,0.0991 -0.045,0.18014 0.4464,0.18014 0.4911,0 0.692,-0.0811 0.4465,-0.18014 z m 47.3502,-0.27977 c 2.0292,-0.27152 3.7837,-0.58785 3.8988,-0.70297 0.1151,-0.11512 -2.188,-0.18741 -5.1181,-0.16066 -2.93,0.0267 -4.9658,0.11828 -4.5238,0.20341 0.442,0.0851 0.8036,0.38466 0.8036,0.66565 0,0.61955 0.2708,0.61925 4.9395,-0.005 z m -32.9752,-0.54724 c 3.5404,-0.19047 2.1411,-0.24589 -5.8929,-0.23338 -5.7946,0.009 -9.3304,0.1082 -7.8571,0.22039 2.1825,0.1662 2.447,0.24525 1.4285,0.42686 -1.2418,0.22142 3.4296,0.0645 12.3215,-0.41387 z m -20.9822,-0.26369 c -0.5402,-0.0818 -1.4241,-0.0818 -1.9643,0 -0.5401,0.0818 -0.098,0.14878 0.9822,0.14878 1.0803,0 1.5223,-0.067 0.9821,-0.14878 z m 142.5,-0.34753 c -0.3437,-0.0898 -0.9062,-0.0898 -1.25,0 -0.3437,0.0898 -0.062,0.16333 0.625,0.16333 0.6875,0 0.9688,-0.0735 0.625,-0.16333 z"
       id="path1429" />
    <path
       style="fill:#d38d5f;stroke:#d38d5f;stroke-width:0.251429;stroke-miterlimit:4;stroke-dasharray:none;stroke-opacity:1"
       d="m 1507.9248,672.31081 c -0.6065,-0.26688 -10.3424,-0.49026 -30.3572,-0.69651 -16.2053,-0.167 -32.5178,-0.34533 -36.25,-0.39628 l -6.7857,-0.0927 -0.1063,-0.91238 c -0.1725,-1.48128 1.0486,-2.59702 7.5406,-6.88975 59.1706,-39.12579 129.8436,-65.04267 201.6729,-73.95652 5.5982,-0.69473 12.5089,-1.43198 15.3571,-1.63833 5.2991,-0.38393 208.4985,-0.54501 208.8779,-0.16558 0.5001,0.50011 -1.7199,1.45316 -12.2708,5.26766 -25.7856,9.32246 -193.9556,71.83236 -206.6071,76.79725 l -4.1071,1.61178 -48.5715,0.21241 c -66.5422,0.291 -81.0095,0.47591 -86.25,1.10234 -0.6875,0.0822 -1.6518,-0.0274 -2.1428,-0.24344 z m 112.079,-3.77447 c -5.6333,-0.0552 -14.9547,-0.0553 -20.7142,-9e-5 -5.7596,0.0552 -1.1505,0.10037 10.2423,0.10042 11.3929,5e-5 16.1052,-0.0451 10.4719,-0.10033 z m -167.7689,-0.49444 c -4.0522,-0.1645 -7.4587,-0.45795 -7.6607,-0.65994 -0.4932,-0.49326 -1.7644,-0.45779 -2.963,0.0827 -0.9804,0.44209 -0.9727,0.44849 0.7868,0.65818 0.9772,0.11646 5.2321,0.21254 9.4553,0.21351 l 7.6786,0.002 -7.297,-0.29621 z m 208.9042,-76.10157 c 0,-0.34272 -0.3198,-0.32236 -1.25,0.0796 -0.6164,0.26633 -0.5797,0.30117 0.2678,0.25415 0.5402,-0.03 0.9822,-0.18016 0.9822,-0.33374 z m 176.7857,-1.90796 c 2.4553,-0.34021 4.6169,-0.75578 4.8035,-0.9235 0.1883,-0.16916 -3.946,-0.27744 -9.2857,-0.24318 -7.783,0.0499 -8.839,0.10929 -5.5178,0.31015 2.2589,0.13663 4.1473,0.26956 4.1964,0.2954 0.049,0.0258 0.089,0.37924 0.089,0.78534 0,0.53062 0.1758,0.68996 0.625,0.56635 0.3437,-0.0946 2.6339,-0.45035 5.0893,-0.79056 z m -105.1786,-0.36868 c 3.8096,-0.41345 3.4082,-0.83751 -0.8036,-0.84889 -3.8396,-0.0104 -4.0178,0.0222 -4.0178,0.73482 0,0.65904 0.1556,0.72249 1.3393,0.54615 0.7366,-0.10973 2.3035,-0.30417 3.4821,-0.43208 z m -36.6071,-0.51911 c 0.7985,-0.19826 -0.2979,-0.23753 -3.0358,-0.10873 -2.3571,0.11089 -4.3984,0.30497 -4.5361,0.43128 -0.3544,0.32507 6.0648,0.0516 7.5719,-0.32255 z"
       id="path1431" />
    <path
       style="fill:#d38d5f;stroke:#d38d5f;stroke-width:0.251429;stroke-miterlimit:4;stroke-dasharray:none;stroke-opacity:1"
       d="m 1507.4922,672.39377 c -1.1732,-0.37118 -15.8889,-0.66037 -48.5853,-0.95478 l -24.5536,-0.22109 v -1.16999 c 0,-1.47936 0.9679,-2.3526 7.2542,-6.54472 42.4701,-28.32197 93.8174,-50.76725 145.5589,-63.62768 24.3912,-6.06247 51.6774,-10.69909 71.4727,-12.14502 5.3026,-0.38734 208.8514,-0.55131 209.2341,-0.16855 0.4982,0.49816 -1.5037,1.41077 -9.2341,4.20967 -29.6827,10.74693 -206.8175,76.61185 -211.9238,78.80065 -1.5474,0.66331 -3.2749,0.69568 -48.6796,0.91212 -43.3028,0.20642 -85.2933,0.71489 -88.3252,1.06954 -0.6875,0.0804 -1.6857,0.008 -2.2183,-0.16015 z m -56.0853,-4.19316 c -0.3437,-0.0898 -0.9062,-0.0898 -1.25,0 -0.3437,0.0898 -0.062,0.16333 0.625,0.16333 0.6875,0 0.9688,-0.0735 0.625,-0.16333 z m -5.0893,-0.53738 c -3.12,-0.46798 -4.4289,-0.46607 -4.9022,0.007 -0.3209,0.3209 0.4563,0.40693 3.3129,0.36674 3.6466,-0.0513 3.6831,-0.0599 1.5893,-0.37392 z m 391.5287,-77.66663 c 2.4071,-0.3593 3.8447,-0.71817 3.5715,-0.89155 -0.2515,-0.15959 -3.2698,-0.26855 -6.7073,-0.24213 -3.4375,0.0264 -5.7679,0.10821 -5.1786,0.18175 2.0616,0.25727 2.6786,0.49131 2.6786,1.01607 0,0.68057 0.7002,0.6726 5.6358,-0.0641 z m -105.6806,-0.3149 c 2.9641,-0.27562 2.8439,-0.86326 -0.1784,-0.87229 -2.6801,-0.008 -4.0491,0.32833 -3.8153,0.93741 0.107,0.27884 0.4567,0.43336 0.7772,0.34338 0.3205,-0.09 1.7679,-0.2738 3.2165,-0.4085 z m -38.7945,-0.42183 c -0.6384,-0.0792 -1.683,-0.0792 -2.3214,0 -0.6384,0.0792 -0.1161,0.14404 1.1607,0.14404 1.2768,0 1.7991,-0.0648 1.1607,-0.14404 z"
       id="path1433" />
    <path
       style="fill:#d38d5f;stroke:#d38d5f;stroke-width:0.251429;stroke-miterlimit:4;stroke-dasharray:none;stroke-opacity:1"
       d="m 1506.6015,672.38159 c -1.8402,-0.2786 -14.8104,-0.51014 -52.6946,-0.94066 l -19.5536,-0.22221 v -1.16583 c 0,-1.55243 1.2087,-2.61144 8.3929,-7.35389 44.1491,-29.14364 96.8252,-51.70466 149.9424,-64.21987 22.2983,-5.2538 48.054,-9.46792 65.7719,-10.76151 5.715,-0.41725 208.973,-0.59544 209.3849,-0.18356 0.4886,0.48859 -1.0933,1.30288 -6.1706,3.17645 -2.9465,1.08725 -14.5179,5.34675 -25.7143,9.46557 -38.9953,14.34514 -157.7544,58.5045 -178.8266,66.49481 l -12.0409,4.56576 -31.8877,0.21308 c -17.5382,0.11719 -44.5841,0.29499 -60.102,0.39509 -25.7574,0.16616 -32.7287,0.28029 -41.6071,0.68115 -1.6696,0.0754 -3.8722,0.0104 -4.8947,-0.14438 z m -60.9982,-4.66957 c -1.9889,-0.41139 -3.667,-0.40263 -3.9285,0.0205 -0.1408,0.22769 0.7901,0.34226 2.5682,0.31607 2.4421,-0.036 2.6113,-0.0778 1.3603,-0.33656 z m 391.8977,-77.73556 c 3.8022,-0.61088 3.8099,-0.61413 2.0309,-0.86157 -0.9821,-0.13661 -3.2892,-0.26246 -5.1268,-0.27966 l -3.341,-0.0313 0.841,0.88669 c 1.0071,1.06173 0.8246,1.05241 5.5959,0.28583 z m -105.2905,-0.34468 c 1.571,-0.18985 1.7842,-0.28587 1.0649,-0.47957 -1.1616,-0.31285 -4.9935,0.002 -4.9935,0.41024 0,0.37176 1.2443,0.39372 3.9286,0.0693 z"
       id="path1435" />
    <path
       style="fill:#d38d5f;stroke:#d38d5f;stroke-width:0.251429;stroke-miterlimit:4;stroke-dasharray:none;stroke-opacity:1"
       d="m 1504.8891,672.38611 c -1.7679,-0.15303 -11.4911,-0.37965 -21.6072,-0.5036 -10.1161,-0.12394 -25.2634,-0.32423 -33.6607,-0.44508 l -15.2679,-0.21973 v -1.16532 c 0,-1.45113 1.3111,-2.69686 6.4875,-6.16402 41.9885,-28.12398 93.6927,-50.88545 144.6188,-63.66474 24.8198,-6.22823 52.0342,-10.92363 72.4652,-12.5027 5.7284,-0.44273 209.4582,-0.64929 209.8946,-0.2128 0.1328,0.13277 0.01,0.46962 -0.273,0.74856 -0.5662,0.55814 -0.8623,0.67086 -28.0145,10.66227 -41.3229,15.20596 -143.0511,53.02367 -177.8066,66.10005 l -16.7352,6.29643 -55.4076,0.33542 c -50.7483,0.30722 -66.6656,0.48655 -77.5506,0.87374 -2.1607,0.0769 -5.375,0.0145 -7.1428,-0.13848 z m -59.8215,-4.6536 c -1.3167,-0.42167 -3.2963,-0.42167 -3.0357,0 0.1214,0.19643 1.055,0.34112 2.0747,0.32154 1.4643,-0.0281 1.6663,-0.0957 0.961,-0.32154 z m 391.3783,-77.66447 c 1.8384,-0.27984 3.4322,-0.59838 3.5417,-0.70788 0.1095,-0.10949 -0.8322,-0.22471 -2.0926,-0.25605 -1.2604,-0.0313 -3.2119,-0.0967 -4.3367,-0.14518 l -2.0451,-0.0882 0.6165,0.84825 c 0.3391,0.46653 0.6969,0.85041 0.7951,0.85306 0.098,0.003 1.6827,-0.22414 3.5211,-0.50398 z m -104.414,-0.52933 c 1.3277,-0.27461 1.2598,-0.29839 -0.961,-0.33656 -1.3143,-0.0226 -2.489,0.11965 -2.6104,0.31607 -0.2651,0.42894 1.5465,0.43933 3.5714,0.0205 z"
       id="path1437" />
    <path
       style="fill:#d38d5f;stroke:#d38d5f;stroke-width:0.251429;stroke-miterlimit:4;stroke-dasharray:none;stroke-opacity:1"
       d="m 1502.5676,672.38879 c -2.6518,-0.1529 -13.8214,-0.37996 -24.8214,-0.50458 -11,-0.12462 -25.2634,-0.32652 -31.6964,-0.44866 l -11.6965,-0.22208 v -1.13228 c 0,-1.56129 1.5008,-2.91696 8.0358,-7.25889 42.3154,-28.11499 94.2732,-50.68776 145.7142,-63.30479 24.8645,-6.09854 54.8232,-11.08028 71.7858,-11.93703 6.8142,-0.34417 152.6921,-0.63946 180.9821,-0.36635 21.3089,0.20572 27.0536,0.35626 27.0536,0.70895 0,0.57329 -0.5754,0.79912 -24.8215,9.74219 -21.1468,7.79996 -46.0985,17.03715 -83.9285,31.07066 -28.4292,10.54613 -104.0496,38.78369 -109.6429,40.94193 l -4.2857,1.65369 -50.3571,0.32164 c -47.0412,0.30046 -68.5992,0.52979 -81.9643,0.8719 -3.0447,0.0779 -7.7054,0.0166 -10.3572,-0.1363 z m -58.0357,-4.65628 c -0.3928,-0.16882 -1.1161,-0.31577 -1.6071,-0.32657 -0.7037,-0.0155 -0.7794,0.0537 -0.3572,0.32657 0.2947,0.19041 1.0179,0.33737 1.6072,0.32657 0.9199,-0.0169 0.9704,-0.063 0.3571,-0.32657 z m 391.7857,-77.70599 c 3.9233,-0.45485 3.7063,-0.81941 -0.5018,-0.8428 -4.0607,-0.0226 -4.0712,-0.0204 -3.4222,0.6967 0.3581,0.39563 0.9053,0.64625 1.2161,0.55693 0.3108,-0.0893 1.5294,-0.2742 2.7079,-0.41083 z m -104.8214,-0.5083 c 0.731,-0.23411 0.5892,-0.29239 -0.7825,-0.32154 -0.9214,-0.0196 -1.7747,0.12512 -1.8961,0.32154 -0.2592,0.41943 1.3689,0.41943 2.6786,0 z"
       id="path1439" />
    <path
       style="fill:#d38d5f;stroke:#d38d5f;stroke-width:0.251429;stroke-miterlimit:4;stroke-dasharray:none;stroke-opacity:1"
       d="m 1506.1051,672.59406 c -0.117,-0.12494 -11.9295,-0.38795 -26.25,-0.58445 -14.3206,-0.19651 -30.4169,-0.45396 -35.7696,-0.57211 l -9.7322,-0.21483 v -1.16388 c 0,-1.97191 3.1573,-4.40065 16.8416,-12.95536 28.9932,-18.12512 61.1785,-33.43386 95.2378,-45.29938 34.3952,-11.98254 75.7476,-21.0394 109.8849,-24.06661 5.4334,-0.48181 161.8538,-0.93035 190.9822,-0.54763 21.9885,0.2889 22.5457,0.34474 18.9285,1.89704 -0.933,0.40041 -12.7857,4.8242 -26.3392,9.83065 -67.3178,24.86596 -149.831,55.55314 -180.7143,67.2088 l -13.9286,5.25676 -44.4643,0.28947 c -50.5744,0.32924 -76.9831,0.61009 -87.3214,0.92863 -3.9286,0.12104 -7.2385,0.11785 -7.3554,-0.007 z m 332.5143,-83.08617 c 0.3614,-0.21154 -0.6609,-0.32888 -2.9268,-0.33595 -3.2399,-0.0101 -3.8909,0.16404 -3.2143,0.85982 0.3364,0.34593 5.3918,-0.0853 6.1411,-0.52387 z m -107.8375,0.0103 0.8929,-0.28594 -0.8929,-0.0301 c -0.4911,-0.0166 -1.1339,0.12566 -1.4286,0.31607 -0.4761,0.30774 -0.4761,0.34286 0,0.31608 0.2947,-0.0166 0.9375,-0.15881 1.4286,-0.31608 z"
       id="path1441" />
    <path
       style="fill:#d38d5f;stroke:#d38d5f;stroke-width:0.251429;stroke-miterlimit:4;stroke-dasharray:none;stroke-opacity:1"
       d="m 1493.9962,672.36251 c -6.1875,-0.17187 -22.0703,-0.4658 -35.295,-0.65317 -13.2248,-0.18738 -24.1333,-0.42892 -24.2411,-0.53674 -0.5737,-0.57365 -0.087,-2.17839 1.0093,-3.32731 2.5695,-2.69307 21.4987,-14.67631 35.6697,-22.58087 11.2533,-6.27712 29.5429,-15.20835 43.0357,-21.01537 43.6548,-18.7882 93.2938,-31.69471 139.8214,-36.35466 4.7742,-0.47815 17.7692,-0.58314 94.4643,-0.76316 93.7638,-0.22009 119.4643,-0.0443 119.4643,0.8171 0,0.71544 4.6628,-1.05997 -62.1429,23.66127 -23.8661,8.83156 -51.0268,18.89999 -60.3571,22.37429 -9.3304,3.47429 -19.7768,7.35887 -23.2143,8.63239 -3.4375,1.27352 -22.1607,8.28571 -41.6072,15.58265 l -35.3571,13.26717 -15.7143,0.0967 c -30.3921,0.18694 -106.5286,0.82605 -115.3571,0.96834 -4.9107,0.0792 -13.9911,0.003 -20.1786,-0.16858 z m 343.8999,-82.84958 c 0.3789,-0.22165 -0.3969,-0.3337 -2.361,-0.34099 -2.7451,-0.0102 -3.6515,0.24826 -3.047,0.86886 0.3267,0.33549 4.654,-0.0869 5.408,-0.52787 z"
       id="path1443" />
    <path
       style="fill:#d38d5f;stroke:#d38d5f;stroke-width:0.251429;stroke-miterlimit:4;stroke-dasharray:none;stroke-opacity:1"
       d="m 1498.8176,672.45944 c -1.9643,-0.052 -17.2057,-0.31483 -33.8698,-0.58412 -18.4023,-0.29738 -30.4344,-0.62561 -30.6448,-0.83598 -0.5561,-0.55617 0.034,-2.13389 1.2483,-3.33536 2.4368,-2.41179 15.3229,-10.77481 27.6737,-17.96009 28.5342,-16.60035 61.0916,-31.03789 93.2712,-41.361 35.5309,-11.39821 79.1377,-20.0159 106.0714,-20.96211 10.2397,-0.35973 182.8125,-0.54082 195.4627,-0.2051 8.8255,0.23421 9.9147,0.32692 9.8167,0.83558 -0.128,0.66449 0.1546,0.55437 -31.8865,12.4287 -102.4647,37.97314 -101.2895,37.53633 -151.6072,56.35057 l -39.4642,14.75606 -42.1429,0.22945 c -23.1786,0.1262 -53.875,0.3888 -68.2143,0.58355 -14.3393,0.19475 -27.4375,0.30915 -29.1071,0.25422 -1.6697,-0.0549 -4.6429,-0.1424 -6.6072,-0.19437 z m 338.5536,-82.98682 c 0.1967,-0.18058 -0.5041,-0.31154 -1.6672,-0.31154 -2.2133,0 -3.237,0.26247 -2.9343,0.75231 0.2349,0.38007 4.112,0.009 4.6015,-0.44077 z"
       id="path1445" />
    <path
       style="fill:#d38d5f;stroke:#d38d5f;stroke-width:4.955;stroke-miterlimit:4;stroke-dasharray:none;stroke-opacity:1"
       d="m 1499.7105,672.63586 c -0.098,-0.0954 -7.8929,-0.28458 -17.3214,-0.42042 -33.3059,-0.47984 -47.7537,-0.84376 -48.1221,-1.21213 -0.6098,-0.60976 0.063,-2.25885 1.4479,-3.5505 1.9026,-1.77425 13.2493,-9.22258 22.567,-14.81368 33.8969,-20.33995 72.8214,-37.22426 111.2649,-48.26346 32.9664,-9.46642 69.0223,-16.05467 92.8746,-16.97031 9.6083,-0.36885 188.8956,-0.52746 198.5745,-0.17568 6.0694,0.22059 6.9467,0.32528 6.8518,0.81767 -0.1423,0.73892 0.061,0.66117 -58.357,22.30963 -62.3442,23.10337 -94.2211,34.96364 -133.3943,49.63138 l -30.9355,11.58327 -38.5288,0.22577 c -21.1908,0.12418 -42.7877,0.30372 -47.993,0.39899 -16.6787,0.30525 -58.7438,0.61896 -58.9286,0.43947 z m 337.1428,-83.11764 c 0,-0.41594 -2.2726,-0.41594 -3.5714,0 -0.6635,0.21251 -0.3196,0.29509 1.3393,0.32155 1.2738,0.0203 2.2321,-0.11775 2.2321,-0.32155 z"
       id="path1447" />
    <path
       id="path1447-4"
       style="fill:#d38d5f;stroke:#d38d5f;stroke-width:2.89262;stroke-miterlimit:4;stroke-dasharray:none;stroke-opacity:1"
       d="m 1854.1906,586.99609 c -5.9744,0.003 -13.9429,0.0202 -24.5795,0.043 -45.4056,0.0975 -68.6371,0.10654 -97.2188,0.0332 l -22.5719,-0.0586 -23.2429,12.57617 c -12.7836,6.91703 -25.83,13.91917 -28.9923,15.56055 -10.1328,5.2594 -35.5327,18.93121 -35.5822,19.15234 -0.027,0.11755 -4.648,2.87129 -10.2704,6.11915 -19.8609,11.4728 -28.4241,16.58682 -28.5192,17.0371 -0.1576,0.74533 0.8129,1.99252 2.0886,2.6836 1.7522,0.94935 11.1274,3.82103 18.6465,5.71094 27.3541,6.87532 56.5467,9.00449 83.4458,6.08789 23.0668,-2.5011 47.0048,-8.59084 61.6601,-15.68555 5.9034,-2.85791 113.7555,-62.17408 119.4543,-65.69727 2.0183,-1.24777 3.0203,-1.89858 3.4973,-2.31445 -10e-5,-0.011 -3e-4,-0.0219 0,-0.0332 v -0.043 c 0,-0.0138 4e-4,-0.0273 0,-0.041 -6e-4,-0.0183 0,0.002 0,-0.0215 0,-0.003 4e-4,-0.008 0,-0.0117 -10e-5,-0.006 -2e-4,-0.0116 0,-0.0176 0,-0.004 6e-4,-0.008 0,-0.0117 0,-0.0102 -0.01,-0.0193 -0.01,-0.0293 0,-0.0147 -0.011,-0.0301 -0.011,-0.0449 -6e-4,-0.003 8e-4,-0.005 0,-0.008 v -0.006 c 0,-0.0102 -0.013,-0.0205 -0.013,-0.0312 v -0.0117 -0.0117 c -0.01,-0.003 -0.011,-0.006 -0.011,-0.008 -0.01,-0.004 -0.01,-0.008 -0.01,-0.0117 7e-4,-0.002 0.012,-0.006 0,-0.008 -0.01,-0.011 -0.021,-0.0166 -0.021,-0.0352 0.01,0.002 0.01,0.002 0.01,0.004 v -0.002 c -0.01,-0.002 -0.01,-0.002 -0.01,-0.004 -0.01,-0.009 -0.014,-0.0199 -0.023,-0.0312 -0.01,-0.0134 -0.013,-0.0246 -0.022,-0.0391 0,-0.007 -0.01,-0.0145 -0.01,-0.0215 v -0.002 c -0.01,-0.0106 0.01,0.007 -0.01,-0.01 -0.01,-0.0118 -0.014,-0.0266 -0.023,-0.041 0,0 0,-0.002 0,-0.002 -0.021,-0.018 -0.048,-0.034 -0.066,-0.0566 0,2.4e-4 0,-0.005 -0.011,-0.0293 -0.072,-0.0317 -0.065,-0.0331 -0.1169,-0.082 v -0.002 c -3e-4,-0.008 -0.011,-0.0159 -0.017,-0.0195 -0.021,-0.0135 -0.047,-0.0199 -0.07,-0.0312 -0.033,-0.0164 -0.064,-0.034 -0.097,-0.0508 -0.035,-0.0218 -0.063,-0.0397 -0.1044,-0.0527 -0.086,-0.0269 -0.1854,-0.0252 -0.2591,-0.0879 -0.1056,-0.0546 -0.2228,-0.0554 -0.3274,-0.11524 -0.01,-0.005 -0.026,-0.0158 -0.043,-0.0273 -1.844,-0.1236 -6.0315,-0.1662 -16.5399,-0.16016 z m 17.7235,0.77344 c 0,0 0,0.002 0,0.002 0.01,0.0121 0.01,0.0221 0.019,0.0332 0,0.009 0.01,0.0174 0.016,0.0234 v 0.004 c 0,0.006 0.011,0.0135 0.011,0.0195 10e-5,0.002 0,0.005 0,0.008 0.01,9.9e-4 0.01,0.004 0.01,0.006 0,0.005 0.01,0.009 0.01,0.0137 0.01,0.0188 -5e-4,0.007 0.01,0.0137 v 0.002 c 0,0.007 0.01,0.0145 0.01,0.0215 0.01,0.0139 0.01,0.0295 0.015,0.043 0,0.002 -5e-4,0.003 0,0.004 0.01,0.0168 0.01,0.008 0.01,0.0215 0,0.0136 0.01,0.0257 0.01,0.0391 0.01,0.0115 0.013,0.0232 0.013,0.0351 0,0.008 10e-5,0.0154 0,0.0234 -10e-5,0.003 -3e-4,0.005 0,0.008 -8e-4,0.003 -2e-4,0.009 0,0.0117 4e-4,0.0339 -8e-4,0.002 0,0.0274 -8e-4,0.0333 0,-10e-4 0,0.0254 3e-4,0.004 -10e-5,0.0106 0,0.0156 0,0.0146 4e-4,0.0283 0,0.043 v 0.006 c 0.025,-0.0223 0.068,-0.0533 0.09,-0.0742 -0.032,-0.065 -0.077,-0.12924 -0.1026,-0.19336 -0.021,-0.0386 -0.041,-0.0761 -0.066,-0.11133 -9e-4,-10e-4 -0.03,-0.0429 -0.03,-0.0449 0,-0.002 0.013,-0.002 0.013,-0.002 -0.014,-0.006 -0.017,-0.017 -0.028,-0.0234 z m -18.8551,8.68945 c 0.08,3.8e-4 0.1318,0.023 0.1494,0.0684 0.1426,0.37048 -1.2245,1.12334 -2.1481,1.1836 -0.4717,0.0307 -0.292,-0.15677 0.6963,-0.73047 0.5693,-0.3304 1.0621,-0.52261 1.3024,-0.52149 z" />
  </g>
  <g
     id="layer4"
     style="display:inline">
    <g
       id="layer6"
       style="display:inline" />
    <path
       style="fill:none;stroke:#aade87;stroke-width:1px;stroke-linecap:butt;stroke-linejoin:miter;stroke-opacity:1"
       d="M -17.142857,737.14286 C 525.49948,736.37416 1067.9532,859.43533 1557.1429,1094.2857 c 84.5148,40.5739 167.455,84.4274 248.5714,131.4286"
       id="path4892" />
    <path
       style="fill:none;stroke:#000000;stroke-width:1px;stroke-linecap:butt;stroke-linejoin:miter;stroke-opacity:1"
       d="M 1805.7143,1225.7143 -17.142857,1088.5714 V 737.14286"
       id="path4896" />
    <path
       style="fill:#8dd35f;fill-opacity:1;stroke:#aade87;stroke-width:11.4286;stroke-opacity:1"
       d="M -12.794486,912.18088 V 738.87127 l 85,1.79912 c 269.995426,5.71476 542.674176,43.06753 809.285716,110.85962 30.64286,7.79165 59.85108,15.49189 64.90717,17.11164 l 9.19289,2.94501 -27.76432,22.13543 C 870.16203,939.69618 752.62483,1055.4422 742.99337,1075.739 l -4.62737,9.7515 H 362.78574 -12.794486 Z"
       id="path4898" />
    <path
       style="fill:#8dd35f;fill-opacity:1;stroke:#aade87;stroke-width:8.08122;stroke-opacity:1"
       d="M -5.9231752,911.86216 V 745.15015 l 39.9010252,1.12886 c 86.11962,2.43645 154.95336,5.27681 196.47467,8.10735 174.40536,11.88932 330.62477,33.62887 509.11688,70.84889 53.10516,11.07374 200.01021,47.1754 200.01021,49.15216 0,0.78716 -6.13668,6.34604 -13.63706,12.35308 -27.30679,21.86992 -62.98156,54.37667 -106.32092,96.87935 -48.61911,47.68046 -76.86984,78.23826 -81.70449,88.37656 l -3.13671,6.5778 H 364.42863 -5.9231752 Z"
       id="path4904" />
    <path
       style="fill:#8dd35f;fill-opacity:1;stroke:#aade87;stroke-width:8.08122;stroke-opacity:1"
       d="m -1.8872675,912.40408 -0.0047,-162.12948 15.6620675,0.47839 c 147.24386,4.49747 190.80916,6.48025 258.09867,11.74679 149.71261,11.71752 292.09139,32.00199 446.48743,63.61035 66.68023,13.65094 208.87742,48.02597 209.72575,50.6995 0.21229,0.66903 -6.43255,6.89082 -14.76631,13.82619 -47.24487,39.31727 -162.94932,153.43698 -175.69753,173.29118 l -6.81043,10.6066 H 364.46257 -1.882565 Z"
       id="path4906" />
    <path
       style="fill:#8dd35f;fill-opacity:1;stroke:#9fd972;stroke-width:42.381;stroke-miterlimit:4;stroke-dasharray:none;stroke-opacity:1"
       d="M 2.1580451,912.69409 V 754.89523 l 32.8299579,1.25458 c 18.056477,0.69002 57.831233,2.17943 88.388347,3.30979 251.36715,9.29854 475.70752,40.65887 723.17898,101.09249 31.61864,7.72142 60.9284,14.96522 65.13279,16.09734 l 7.64433,2.05841 -25.73683,22.52994 c -33.25121,29.108 -151.47512,147.16582 -159.88336,159.65872 l -6.4588,9.5965 H 364.70575 2.1580451 Z"
       id="path4908" />
    <path
       style="fill:#9fd972;fill-opacity:1;stroke:#9fd972;stroke-width:8.08122;stroke-opacity:1"
       d="M 6.1986553,912.8529 V 759.25344 l 12.6269067,1.05501 c 6.944799,0.58025 40.810163,2.00282 75.256365,3.16126 276.864403,9.31109 495.228293,39.34217 765.025433,105.21217 l 49.83743,12.16763 -18.5227,16.43043 C 862.93572,921.66152 732.74621,1052.2809 728.35077,1059.8864 l -3.7947,6.5659 H 365.37736 6.1986553 Z"
       id="path4910" />
  </g>
  <g
     id="layer7"
     style="display:inline">
    <path
       style="display:inline;fill:#34d399;fill-opacity:1;stroke:#34d399;stroke-width:6.25784;stroke-linecap:butt;stroke-linejoin:miter;stroke-miterlimit:4;stroke-dasharray:none;stroke-opacity:1"
       d="m 1345.0647,910.38063 c 20.3516,-6.02488 40.7039,-12.04996 55.6921,-6.08363 14.9883,5.96633 24.6093,23.92392 29.5854,32.88504 4.9762,8.96112 5.3098,8.92648 -6.4551,10.91079 -11.7648,1.98431 -35.6273,5.98737 -50.7459,-0.20471 -15.1186,-6.19208 -21.4949,-22.57969 -27.8715,-38.96831"
       id="path2373-9-7-1-1-0" />
    <path
       style="display:inline;fill:#34d399;fill-opacity:1;stroke:#34d399;stroke-width:3.84016;stroke-linecap:butt;stroke-linejoin:miter;stroke-miterlimit:4;stroke-dasharray:none;stroke-opacity:1"
       d="m 609.82054,988.77746 c 14.29179,0.59433 28.5841,1.18869 38.53118,7.18094 9.94709,5.9923 15.5474,17.3822 18.4625,23.0988 2.91511,5.7167 3.14546,5.7605 -5.03305,4.6167 -8.17851,-1.1437 -24.76554,-3.4749 -34.78997,-9.6124 -10.02443,-6.1376 -13.48667,-16.08163 -16.94902,-26.02604"
       id="path2373-8-7" />
    <path
       style="display:inline;fill:#34d399;fill-opacity:1;stroke:#34d399;stroke-width:3.84016;stroke-linecap:butt;stroke-linejoin:miter;stroke-miterlimit:4;stroke-dasharray:none;stroke-opacity:1"
       d="m 728.44237,992.34931 c -12.73725,-1.29843 -25.47485,-2.5969 -35.17148,2.67423 -9.69664,5.27116 -16.35083,17.11166 -19.78264,23.04006 -3.43182,5.9284 -3.64272,5.9455 3.76604,5.799 7.40876,-0.1465 22.43613,-0.4564 32.2228,-5.8777 9.78666,-5.4213 14.33305,-15.9539 18.87959,-26.48699"
       id="path2373-9-7-1" />
    <path
       style="display:inline;fill:none;stroke:#34d399;stroke-width:5.82589;stroke-linecap:butt;stroke-linejoin:miter;stroke-miterlimit:4;stroke-dasharray:none;stroke-opacity:1"
       d="m 669.27917,1018.7386 -1.59482,79.3066"
       id="path2461-60-8" />
    <path
       style="display:inline;fill:none;stroke:#34d399;stroke-width:1.50433;stroke-linecap:butt;stroke-linejoin:miter;stroke-miterlimit:4;stroke-dasharray:none;stroke-opacity:1"
       d="m 669.34995,1024.2747 -1.68989,72.3243"
       id="path3874" />
    <path
       style="display:inline;fill:#34d399;fill-opacity:1;stroke:#34d399;stroke-width:6.25784;stroke-linecap:butt;stroke-linejoin:miter;stroke-miterlimit:4;stroke-dasharray:none;stroke-opacity:1"
       d="m 1518.1921,910.25278 c -20.3516,-6.02488 -40.7039,-12.04996 -55.6921,-6.08363 -14.9883,5.96633 -24.6093,23.92392 -29.5854,32.88504 -4.9762,8.96112 -5.3098,8.92648 6.4551,10.91079 11.7648,1.98431 35.6273,5.98737 50.7459,-0.20471 15.1186,-6.19208 21.4949,-22.57969 27.8715,-38.96831"
       id="path2373-9-7-1-1" />
    <path
       style="display:inline;fill:none;stroke:#34d399;stroke-width:9.49374;stroke-linecap:butt;stroke-linejoin:miter;stroke-miterlimit:4;stroke-dasharray:none;stroke-opacity:1"
       d="m 1428.9499,944.36682 -2.3035,145.79488"
       id="path2461-60-8-5" />
    <path
       style="display:inline;fill:none;stroke:#34d399;stroke-width:2.45142;stroke-linecap:butt;stroke-linejoin:miter;stroke-miterlimit:4;stroke-dasharray:none;stroke-opacity:1"
       d="m 1429.0523,954.5442 -2.441,132.9589"
       id="path3874-5" />
    <path
       style="display:inline;fill:#34d399;fill-opacity:1;stroke:#34d399;stroke-width:8.05007;stroke-linecap:butt;stroke-linejoin:miter;stroke-miterlimit:4;stroke-dasharray:none;stroke-opacity:1"
       d="m 145.10376,870.68154 c 30.85382,-0.72334 61.70869,-1.44671 81.87661,9.43588 20.16792,10.88259 29.6452,33.37092 34.62784,44.64382 4.98264,11.27291 5.47204,11.33108 -11.99597,10.10479 -17.46801,-1.22628 -52.89238,-3.73705 -73.19367,-14.90564 -20.3013,-11.16859 -25.48052,-30.9953 -30.66006,-50.82324"
       id="path2373-8-7-7" />
    <path
       style="display:inline;fill:#34d399;fill-opacity:1;stroke:#34d399;stroke-width:8.05007;stroke-linecap:butt;stroke-linejoin:miter;stroke-miterlimit:4;stroke-dasharray:none;stroke-opacity:1"
       d="m 373.15787,873.04006 c -26.87306,-3.72348 -53.747,-7.44709 -72.24927,3.02718 -18.50226,10.47427 -28.62908,35.14567 -33.9073,47.49097 -5.27822,12.34531 -5.71104,12.36574 9.63815,12.61442 15.34919,0.24868 46.47889,0.72554 65.12076,-10.06079 18.64187,-10.78632 24.79755,-32.83659 30.95356,-54.88801"
       id="path2373-9-7-1-5" />
    <path
       style="display:inline;fill:none;stroke:#34d399;stroke-width:12.2127;stroke-linecap:butt;stroke-linejoin:miter;stroke-miterlimit:4;stroke-dasharray:none;stroke-opacity:1"
       d="m 262.41358,923.39709 -3.0456,182.47831"
       id="path2461-60-8-7" />
    <path
       style="display:inline;fill:none;stroke:#34d399;stroke-width:3.15351;stroke-linecap:butt;stroke-linejoin:miter;stroke-miterlimit:4;stroke-dasharray:none;stroke-opacity:1"
       d="m 262.54898,936.13521 -3.2274,166.41259"
       id="path3874-3" />
    <path
       style="display:inline;fill:#34d399;fill-opacity:1;stroke:#34d399;stroke-width:4.43823;stroke-linecap:butt;stroke-linejoin:miter;stroke-miterlimit:4;stroke-dasharray:none;stroke-opacity:1"
       d="m 1671.6676,971.11815 c 18.3604,3.82965 36.7214,7.65945 46.8707,15.57664 10.1493,7.91719 12.0846,19.92121 13.1917,25.96991 1.1072,6.0488 1.3871,6.1427 -8.741,3.1946 -10.128,-2.948 -30.6633,-8.9381 -40.8448,-17.00967 -10.1814,-8.07161 -10.0096,-18.22506 -9.8377,-28.37924"
       id="path2373-8-7-7-9" />
    <path
       style="display:inline;fill:#34d399;fill-opacity:1;stroke:#34d399;stroke-width:4.43823;stroke-linecap:butt;stroke-linejoin:miter;stroke-miterlimit:4;stroke-dasharray:none;stroke-opacity:1"
       d="m 1792.8022,984.89944 c -16.6078,-1.37976 -33.2164,-2.75958 -44.4695,2.71798 -11.2531,5.47757 -17.1487,17.81218 -20.2288,23.98798 -3.08,6.1758 -3.3464,6.1932 6.1134,6.0554 9.4599,-0.1379 28.6451,-0.4309 39.98,-6.0648 11.3349,-5.634 14.8204,-16.60904 18.306,-27.58454"
       id="path2373-9-7-1-5-7" />
    <path
       style="display:inline;fill:none;stroke:#34d399;stroke-width:6.7332;stroke-linecap:butt;stroke-linejoin:miter;stroke-miterlimit:4;stroke-dasharray:none;stroke-opacity:1"
       d="m 1731.2103,1007.7867 -1.8878,89.4861"
       id="path2461-60-8-7-2" />
    <path
       style="display:inline;fill:none;stroke:#34d399;stroke-width:1.73862;stroke-linecap:butt;stroke-linejoin:miter;stroke-miterlimit:4;stroke-dasharray:none;stroke-opacity:1"
       d="m 1731.2942,1014.0334 -2.0004,81.6076"
       id="path3874-3-8" />
    <path
       style="display:inline;fill:#34d399;fill-opacity:1;stroke:#34d399;stroke-width:0.7479;stroke-linecap:butt;stroke-linejoin:miter;stroke-miterlimit:4;stroke-dasharray:none;stroke-opacity:1"
       d="m 1557.1367,648.19955 c 1.5375,-2.4599 3.075,-4.91989 4.9223,-5.90847 1.8472,-0.98858 4.004,-0.50548 5.097,-0.28133 1.093,0.22415 1.1228,0.18871 0.1311,1.49209 -0.9916,1.30338 -3.0047,3.94548 -4.88,4.92892 -1.8753,0.98344 -3.613,0.30833 -5.3508,-0.36681"
       id="path2373-8-7-7-9-4" />
    <path
       style="display:inline;fill:#34d399;fill-opacity:1;stroke:#34d399;stroke-width:0.7479;stroke-linecap:butt;stroke-linejoin:miter;stroke-miterlimit:4;stroke-dasharray:none;stroke-opacity:1"
       d="m 1578.9989,645.42464 c -1.5436,-2.01347 -3.0873,-4.02695 -4.9544,-4.50327 -1.8672,-0.47631 -4.0576,0.58477 -5.1676,1.10191 -1.11,0.51713 -1.1399,0.49014 -0.1421,1.50925 0.9977,1.01911 3.0225,3.08374 4.9182,3.54737 1.8956,0.46363 3.6622,-0.67364 5.4289,-1.81097"
       id="path2373-9-7-1-5-7-1" />
    <path
       style="display:inline;fill:none;stroke:#34d399;stroke-width:1.13463;stroke-linecap:butt;stroke-linejoin:miter;stroke-miterlimit:4;stroke-dasharray:none;stroke-opacity:1"
       d="m 1568.0976,642.22279 -0.2752,17.43518"
       id="path2461-60-8-7-2-4" />
    <path
       style="display:inline;fill:none;stroke:#34d399;stroke-width:0.292979;stroke-linecap:butt;stroke-linejoin:miter;stroke-miterlimit:4;stroke-dasharray:none;stroke-opacity:1"
       d="m 1568.1098,643.43987 -0.2916,15.90017"
       id="path3874-3-8-1" />
    <path
       style="display:inline;fill:#34d399;fill-opacity:1;stroke:#34d399;stroke-width:0.7479;stroke-linecap:butt;stroke-linejoin:miter;stroke-miterlimit:4;stroke-dasharray:none;stroke-opacity:1"
       d="m 1636.1633,595.7097 c 2.5552,1.37325 5.1105,2.74658 6.2177,4.52523 1.1073,1.77864 0.7664,3.96242 0.6139,5.06754 -0.1525,1.10513 -0.1148,1.13304 -1.4802,0.22884 -1.3654,-0.9042 -4.1336,-2.7402 -5.2376,-4.54717 -1.104,-1.80697 -0.544,-3.58509 0.016,-5.36333"
       id="path2373-8-7-7-9-4-7" />
    <path
       style="display:inline;fill:#34d399;fill-opacity:1;stroke:#34d399;stroke-width:0.7479;stroke-linecap:butt;stroke-linejoin:miter;stroke-miterlimit:4;stroke-dasharray:none;stroke-opacity:1"
       d="m 1651.0952,598.16702 c -2.5193,0.29965 -5.0387,0.59931 -6.4014,1.96179 -1.3626,1.36247 -1.5682,3.78766 -1.6901,5.00611 -0.1218,1.21846 -0.16,1.2303 1.2255,0.89255 1.3855,-0.33776 4.1944,-1.02505 5.5607,-2.4185 1.3663,-1.39344 1.29,-3.49305 1.2138,-5.59283"
       id="path2373-9-7-1-5-7-1-2" />
    <path
       style="display:inline;fill:none;stroke:#34d399;stroke-width:1.13463;stroke-linecap:butt;stroke-linejoin:miter;stroke-miterlimit:4;stroke-dasharray:none;stroke-opacity:1"
       d="m 1643.0624,604.28064 -0.2752,17.43518"
       id="path2461-60-8-7-2-4-1" />
    <path
       style="display:inline;fill:none;stroke:#34d399;stroke-width:0.292979;stroke-linecap:butt;stroke-linejoin:miter;stroke-miterlimit:4;stroke-dasharray:none;stroke-opacity:1"
       d="m 1643.0746,605.49772 -0.2916,15.90017"
       id="path3874-3-8-1-4" />
    <path
       style="display:inline;fill:#34d399;fill-opacity:1;stroke:#34d399;stroke-width:0.372873;stroke-linecap:butt;stroke-linejoin:miter;stroke-miterlimit:4;stroke-dasharray:none;stroke-opacity:1"
       d="m 1712.1967,620.32739 c 1.1314,-0.33972 2.2629,-0.67945 3.1989,-0.29612 0.936,0.38333 1.6763,1.48982 2.0556,2.0425 0.3792,0.55267 0.3998,0.5516 -0.269,0.65707 -0.6689,0.10547 -2.0258,0.3174 -2.9716,-0.0798 -0.9458,-0.39725 -1.4809,-1.40382 -2.0158,-2.41024"
       id="path2373-8-7-7-9-4-9" />
    <path
       style="display:inline;fill:#34d399;fill-opacity:1;stroke:#34d399;stroke-width:0.345205;stroke-linecap:butt;stroke-linejoin:miter;stroke-miterlimit:4;stroke-dasharray:none;stroke-opacity:1"
       d="m 1722.7572,620.38153 c -0.8875,-0.40346 -1.7749,-0.80688 -2.5993,-0.45566 -0.8244,0.35122 -1.5856,1.45723 -1.9749,2.00903 -0.3892,0.55179 -0.4028,0.55003 0.1351,0.6902 0.538,0.14016 1.6288,0.42244 2.4632,0.0573 0.8344,-0.36516 1.4125,-1.37778 1.9906,-2.39037"
       id="path2373-9-7-1-5-7-1-6" />
    <path
       style="display:inline;fill:none;stroke:#34d399;stroke-width:0.557782;stroke-linecap:butt;stroke-linejoin:miter;stroke-miterlimit:4;stroke-dasharray:none;stroke-opacity:1"
       d="m 1717.7594,622.4262 0.095,12.2558"
       id="path2461-60-8-7-2-4-2" />
    <path
       style="display:inline;fill:none;stroke:#34d399;stroke-width:0.182238;stroke-linecap:butt;stroke-linejoin:miter;stroke-miterlimit:4;stroke-dasharray:none;stroke-opacity:1"
       d="m 1717.7594,622.4262 -0.1719,10.43262"
       id="path3874-3-8-1-0" />
    <path
       style="display:inline;fill:#34d399;fill-opacity:1;stroke:#34d399;stroke-width:0.7479;stroke-linecap:butt;stroke-linejoin:miter;stroke-miterlimit:4;stroke-dasharray:none;stroke-opacity:1"
       d="m 1674.5938,574.06514 c 2.7198,1.0084 5.4399,2.01691 6.7816,3.6262 1.3416,1.60929 1.3046,3.8192 1.306,4.9349 0,1.11569 0.043,1.13792 -1.4346,0.43022 -1.4771,-0.7077 -4.4716,-2.14494 -5.814,-3.78266 -1.3423,-1.63772 -1.0324,-3.47604 -0.7226,-5.31442"
       id="path2373-8-7-7-9-4-1" />
    <path
       style="display:inline;fill:#34d399;fill-opacity:1;stroke:#34d399;stroke-width:0.7479;stroke-linecap:butt;stroke-linejoin:miter;stroke-miterlimit:4;stroke-dasharray:none;stroke-opacity:1"
       d="m 1690.8508,575.17614 c -2.5094,0.3742 -5.0187,0.74838 -6.3404,2.15064 -1.3217,1.40226 -1.4553,3.8325 -1.5413,5.0541 -0.086,1.22161 -0.1229,1.23427 1.2518,0.85567 1.3746,-0.3786 4.162,-1.14883 5.4863,-2.58214 1.3244,-1.43331 1.186,-3.52977 1.0476,-5.62636"
       id="path2373-9-7-1-5-7-1-3" />
    <path
       style="display:inline;fill:none;stroke:#34d399;stroke-width:1.13463;stroke-linecap:butt;stroke-linejoin:miter;stroke-miterlimit:4;stroke-dasharray:none;stroke-opacity:1"
       d="m 1682.7461,581.15297 -0.2752,17.43518"
       id="path2461-60-8-7-2-4-0" />
    <path
       style="display:inline;fill:none;stroke:#34d399;stroke-width:0.292979;stroke-linecap:butt;stroke-linejoin:miter;stroke-miterlimit:4;stroke-dasharray:none;stroke-opacity:1"
       d="m 1682.7583,582.37006 -0.2916,15.90016"
       id="path3874-3-8-1-6" />
  </g>
  <g
     id="layer3"
     style="display:inline">
    <path
       style="fill:#c26d33;fill-opacity:1;stroke:#c26d33;stroke-width:0;stroke-linecap:butt;stroke-linejoin:miter;stroke-miterlimit:4;stroke-dasharray:none;stroke-opacity:1"
       d="m 1638.3229,621.93654 c 0.4543,-0.77498 1.1116,-1.4297 1.8885,-1.88083 0.7768,-0.45113 1.6712,-0.69764 2.5695,-0.70813 0.8982,-0.0105 1.7982,0.21503 2.5853,0.64788 0.7871,0.43285 1.4596,1.07203 1.9319,1.83618 0.027,0.0436 0.053,0.0877 0.079,0.13213"
       id="path1817" />
    <path
       style="fill:#c26d33;fill-opacity:1;stroke:#c26d33;stroke-width:0;stroke-linecap:butt;stroke-linejoin:miter;stroke-miterlimit:4;stroke-dasharray:none;stroke-opacity:1"
       d="m 1709.204,636.52074 c 0.7337,-1.57075 1.9169,-2.92847 3.3725,-3.87009 1.4557,-0.94163 3.1791,-1.46413 4.9126,-1.48935 1.7335,-0.0252 3.4714,0.44692 4.9538,1.3458 1.4824,0.89888 2.7046,2.2216 3.4837,3.77034 0.051,0.10124 0.1,0.20341 0.1472,0.30645"
       id="path1817-8" />
    <path
       style="fill:#c26d33;fill-opacity:1;stroke:#c26d33;stroke-width:0;stroke-linecap:butt;stroke-linejoin:miter;stroke-miterlimit:4;stroke-dasharray:none;stroke-opacity:1"
       d="m 1677.828,599.65959 c 0.4543,-0.77498 1.1116,-1.4297 1.8885,-1.88083 0.7768,-0.45113 1.6712,-0.69764 2.5695,-0.70813 0.8982,-0.0105 1.7982,0.21503 2.5853,0.64788 0.7871,0.43285 1.4596,1.07203 1.9319,1.83618 0.027,0.0436 0.053,0.0877 0.079,0.13213"
       id="path1817-8-9" />
    <path
       style="fill:#c26d33;fill-opacity:1;stroke:#c26d33;stroke-width:0;stroke-linecap:butt;stroke-linejoin:miter;stroke-miterlimit:4;stroke-dasharray:none;stroke-opacity:1"
       d="m 1561.5074,660.07883 c 0.4543,-0.77498 1.1116,-1.4297 1.8885,-1.88083 0.7768,-0.45113 1.6712,-0.69764 2.5695,-0.70813 0.8982,-0.0105 1.7982,0.21503 2.5853,0.64788 0.7871,0.43285 1.4596,1.07203 1.9319,1.83618 0.027,0.0436 0.053,0.0877 0.079,0.13213"
       id="path1817-8-4" />
  </g>
</svg>
