<?xml version="1.0" encoding="UTF-8" standalone="no"?>
<svg
   xmlns:dc="http://purl.org/dc/elements/1.1/"
   xmlns:cc="http://creativecommons.org/ns#"
   xmlns:rdf="http://www.w3.org/1999/02/22-rdf-syntax-ns#"
   xmlns:svg="http://www.w3.org/2000/svg"
   xmlns="http://www.w3.org/2000/svg"
   width="16.0px"
   height="16.0px"
   viewBox="0 0 16.0 16.0"
   version="1.1"
   id="SVGRoot">
  <defs
     id="defs18" />
  <metadata
     id="metadata21">
    <rdf:RDF>
      <cc:Work
         rdf:about="">
        <dc:format>image/svg+xml</dc:format>
        <dc:type
           rdf:resource="http://purl.org/dc/dcmitype/StillImage" />
        <dc:title></dc:title>
      </cc:Work>
    </rdf:RDF>
  </metadata>
  <g
     id="layer1"
     style="display:inline">
    <ellipse
       style="fill:#d38d5f;stroke:#a8632e;stroke-linejoin:round"
       id="path36"
       cx="8.0580578"
       cy="7.6837726"
       rx="0.19582766"
       ry="6.0476699"
       transform="matrix(0,1,0,1,0,0)" />
    <g
       id="g989"
       transform="rotate(16.945485,14.236081,12.512957)">
      <path
         style="fill:#2b1100;stroke:#000000;stroke-width:1px;stroke-linecap:butt;stroke-linejoin:miter;stroke-opacity:1"
         d="M 6.1666694,4.0316769 C 4.4172889,6.3023958 3.4934452,9.1953912 3.6030029,12.05974 c 0.013245,0.346292 0.041167,0.692949 0.1089914,1.032792 0.1386541,0.694739 0.4487614,1.359067 0.919036,1.888905 0.4702746,0.529838 1.1028916,0.920501 1.7953295,1.070223 0.6924379,0.149722 1.4416371,0.05123 2.0557264,-0.30201 0.6140893,-0.353244 1.0816616,-0.964363 1.2299082,-1.657118 0.070272,-0.32838 0.070272,-0.67162 0,-1"
         id="path931" />
      <path
         style="display:inline;fill:#2b1100;stroke:#000000;stroke-width:1.00617px;stroke-linecap:butt;stroke-linejoin:miter;stroke-opacity:1"
         d="m 6.1666694,4.0316769 c 2.1054801,2.1477434 3.4133363,5.0603075 3.619642,8.0608551 0.022892,0.332941 0.032687,0.667878 0,1 -0.072382,0.735452 -0.3598439,1.452108 -0.8357853,2.017447 -0.4759414,0.565339 -1.1411987,0.973786 -1.8660902,1.117525 -0.7248914,0.143739 -1.5046204,0.01652 -2.1334096,-0.371748 -0.6287892,-0.388269 -1.0958008,-1.038232 -1.239032,-1.763224 -0.065017,-0.329095 -0.065017,-0.670905 0,-1"
         id="path931-3" />
      <path
         style="fill:#412611;fill-opacity:1;stroke:#412611;stroke-width:2.906;stroke-linejoin:round;stroke-miterlimit:4;stroke-dasharray:none;stroke-opacity:1"
         d="M 7.1759231,15.597305 C 6.4008241,15.621494 5.6494953,15.299462 5.0798097,14.698876 4.5653443,14.156505 4.2322404,13.372094 4.1537576,12.518158 4.0657661,11.560763 4.1358265,10.327716 4.3347704,9.3323737 4.6383628,7.8134634 5.1963279,6.4373428 6.0592834,5.079173 6.1417333,4.9494084 6.2133416,4.8670752 6.2334849,4.8788809 c 0.018812,0.011025 0.1543261,0.1690705 0.301143,0.3512121 0.8896555,1.1037094 1.5288374,2.2393635 2.0370858,3.6193512 0.4020554,1.0916535 0.6619934,2.3911388 0.7051414,3.5251528 0.015,0.394294 -0.0082,0.800464 -0.04631,0.812088 -0.01277,0.0039 -0.01929,0.04685 -0.01449,0.09549 0.01202,0.121769 -0.126877,0.583526 -0.258646,0.859888 -0.220202,0.46183 -0.6276987,0.925468 -1.0483362,1.192765 -0.3061915,0.194571 -0.4732169,0.254369 -0.7331565,0.262483 z"
         id="path1039" />
      <path
         style="fill:none;fill-opacity:1;stroke:#ffffff;stroke-width:0.324509;stroke-linecap:butt;stroke-linejoin:miter;stroke-miterlimit:4;stroke-dasharray:none;stroke-opacity:1"
         d="M 6.1611015,3.9825734 C 5.5682386,7.0773869 5.5205283,10.275847 6.0208194,13.386967 c 0.05571,0.346437 0.1181465,0.691793 0.1872633,1.035806"
         id="path1041" />
      <path
         style="display:inline;fill:none;fill-opacity:1;stroke:#ffffff;stroke-width:0.371366;stroke-linecap:butt;stroke-linejoin:miter;stroke-miterlimit:4;stroke-dasharray:none;stroke-opacity:1"
         d="m 6.1632134,3.9825632 c 1.5295903,3.0204112 2.3285963,6.4076388 2.3101033,9.7932238 -0.00184,0.337216 -0.01165,0.674388 -0.029412,1.011141"
         id="path1041-2" />
    </g>
  </g>
</svg>
